<ttFont>
    <TTGlyph name="A" xMin="32" yMin="0" xMax="677" yMax="727">
      <contour>
        <pt x="382" y="727" on="1"/>
        <pt x="505" y="727" on="1"/>
        <pt x="677" y="0" on="1"/>
        <pt x="546" y="0" on="1"/>
        <pt x="426" y="558" on="1"/>
        <pt x="422" y="592" on="1"/>
        <pt x="410" y="557" on="1"/>
        <pt x="280" y="274" on="1"/>
        <pt x="266" y="254" on="1"/>
        <pt x="280" y="256" on="1"/>
        <pt x="378" y="256" on="1"/>
        <pt x="398" y="256" on="0"/>
        <pt x="427" y="239" on="0"/>
        <pt x="446" y="213" on="0"/>
        <pt x="458" y="180" on="0"/>
        <pt x="461" y="165" on="1"/>
        <pt x="231" y="165" on="1"/>
        <pt x="156" y="0" on="1"/>
        <pt x="32" y="0" on="1"/>
      </contour>
    </TTGlyph>
    <TTGlyph name="AE" xMin="8" yMin="0" xMax="933" yMax="727">
      <contour>
        <pt x="771" y="426" on="1"/>
        <pt x="906" y="426" on="1"/>
        <pt x="895" y="337" on="1"/>
        <pt x="658" y="337" on="1"/>
        <pt x="665" y="354" on="0"/>
        <pt x="685" y="386" on="0"/>
        <pt x="712" y="411" on="0"/>
        <pt x="748" y="426" on="0"/>
      </contour>
      <contour>
        <pt x="516" y="0" on="1"/>
        <pt x="499" y="543" on="1"/>
        <pt x="499" y="572" on="1"/>
        <pt x="500" y="610" on="1"/>
        <pt x="482" y="573" on="1"/>
        <pt x="298" y="274" on="1"/>
        <pt x="282" y="254" on="1"/>
        <pt x="301" y="256" on="1"/>
        <pt x="391" y="256" on="1"/>
        <pt x="411" y="256" on="0"/>
        <pt x="440" y="239" on="0"/>
        <pt x="459" y="213" on="0"/>
        <pt x="471" y="180" on="0"/>
        <pt x="474" y="165" on="1"/>
        <pt x="234" y="165" on="1"/>
        <pt x="133" y="0" on="1"/>
        <pt x="8" y="0" on="1"/>
        <pt x="468" y="727" on="1"/>
        <pt x="933" y="727" on="1"/>
        <pt x="922" y="636" on="1"/>
        <pt x="614" y="636" on="1"/>
        <pt x="630" y="91" on="1"/>
        <pt x="926" y="91" on="1"/>
        <pt x="915" y="0" on="1"/>
      </contour>
    </TTGlyph>
    <TTGlyph name="Aacute" xMin="21" yMin="0" xMax="666" yMax="890">
      <contour>
        <pt x="600" y="890" on="1"/>
        <pt x="511" y="802" on="1"/>
        <pt x="496" y="787" on="0"/>
        <pt x="460" y="770" on="0"/>
        <pt x="423" y="762" on="0"/>
        <pt x="390" y="762" on="0"/>
        <pt x="378" y="765" on="1"/>
        <pt x="481" y="890" on="1"/>
      </contour>
      <contour>
        <pt x="371" y="727" on="1"/>
        <pt x="493" y="727" on="1"/>
        <pt x="666" y="0" on="1"/>
        <pt x="535" y="0" on="1"/>
        <pt x="411" y="588" on="1"/>
        <pt x="268" y="274" on="1"/>
        <pt x="255" y="254" on="1"/>
        <pt x="269" y="256" on="1"/>
        <pt x="367" y="256" on="1"/>
        <pt x="387" y="256" on="0"/>
        <pt x="416" y="239" on="0"/>
        <pt x="435" y="213" on="0"/>
        <pt x="447" y="180" on="0"/>
        <pt x="450" y="165" on="1"/>
        <pt x="220" y="165" on="1"/>
        <pt x="144" y="0" on="1"/>
        <pt x="21" y="0" on="1"/>
      </contour>
    </TTGlyph>
    <TTGlyph name="Acircumflex" xMin="22" yMin="0" xMax="667" yMax="890">
      <contour>
        <pt x="407" y="890" on="1"/>
        <pt x="492" y="890" on="1"/>
        <pt x="586" y="772" on="1"/>
        <pt x="515" y="758" on="1"/>
        <pt x="440" y="815" on="1"/>
        <pt x="352" y="758" on="1"/>
        <pt x="285" y="772" on="1"/>
      </contour>
      <contour>
        <pt x="372" y="727" on="1"/>
        <pt x="495" y="727" on="1"/>
        <pt x="667" y="0" on="1"/>
        <pt x="536" y="0" on="1"/>
        <pt x="412" y="588" on="1"/>
        <pt x="270" y="274" on="1"/>
        <pt x="256" y="254" on="1"/>
        <pt x="270" y="256" on="1"/>
        <pt x="368" y="256" on="1"/>
        <pt x="388" y="256" on="0"/>
        <pt x="417" y="239" on="0"/>
        <pt x="436" y="213" on="0"/>
        <pt x="448" y="180" on="0"/>
        <pt x="451" y="165" on="1"/>
        <pt x="221" y="165" on="1"/>
        <pt x="146" y="0" on="1"/>
        <pt x="22" y="0" on="1"/>
      </contour>
    </TTGlyph>
    <TTGlyph name="Adieresis" xMin="22" yMin="0" xMax="667" yMax="899">
      <contour>
        <pt x="484" y="840" on="1"/>
        <pt x="487" y="865" on="0"/>
        <pt x="526" y="899" on="0"/>
        <pt x="550" y="899" on="1"/>
        <pt x="575" y="899" on="0"/>
        <pt x="606" y="865" on="0"/>
        <pt x="603" y="840" on="1"/>
        <pt x="600" y="815" on="0"/>
        <pt x="560" y="781" on="0"/>
        <pt x="535" y="781" on="1"/>
        <pt x="511" y="781" on="0"/>
        <pt x="481" y="815" on="0"/>
      </contour>
      <contour>
        <pt x="290" y="840" on="1"/>
        <pt x="293" y="865" on="0"/>
        <pt x="332" y="899" on="0"/>
        <pt x="355" y="899" on="1"/>
        <pt x="380" y="899" on="0"/>
        <pt x="411" y="865" on="0"/>
        <pt x="408" y="840" on="1"/>
        <pt x="405" y="815" on="0"/>
        <pt x="365" y="781" on="0"/>
        <pt x="340" y="781" on="1"/>
        <pt x="317" y="781" on="0"/>
        <pt x="287" y="815" on="0"/>
      </contour>
      <contour>
        <pt x="372" y="727" on="1"/>
        <pt x="495" y="727" on="1"/>
        <pt x="667" y="0" on="1"/>
        <pt x="536" y="0" on="1"/>
        <pt x="412" y="588" on="1"/>
        <pt x="270" y="274" on="1"/>
        <pt x="256" y="254" on="1"/>
        <pt x="270" y="256" on="1"/>
        <pt x="368" y="256" on="1"/>
        <pt x="388" y="256" on="0"/>
        <pt x="417" y="239" on="0"/>
        <pt x="436" y="213" on="0"/>
        <pt x="448" y="180" on="0"/>
        <pt x="451" y="165" on="1"/>
        <pt x="221" y="165" on="1"/>
        <pt x="146" y="0" on="1"/>
        <pt x="22" y="0" on="1"/>
      </contour>
    </TTGlyph>
    <TTGlyph name="Agrave" xMin="22" yMin="0" xMax="667" yMax="890">
      <contour>
        <pt x="381" y="802" on="1"/>
        <pt x="326" y="890" on="1"/>
        <pt x="444" y="890" on="1"/>
        <pt x="502" y="765" on="1"/>
        <pt x="489" y="762" on="0"/>
        <pt x="455" y="762" on="0"/>
        <pt x="420" y="769" on="0"/>
        <pt x="390" y="787" on="0"/>
      </contour>
      <contour>
        <pt x="372" y="727" on="1"/>
        <pt x="495" y="727" on="1"/>
        <pt x="667" y="0" on="1"/>
        <pt x="536" y="0" on="1"/>
        <pt x="412" y="588" on="1"/>
        <pt x="270" y="274" on="1"/>
        <pt x="256" y="254" on="1"/>
        <pt x="270" y="256" on="1"/>
        <pt x="368" y="256" on="1"/>
        <pt x="388" y="256" on="0"/>
        <pt x="417" y="239" on="0"/>
        <pt x="436" y="213" on="0"/>
        <pt x="448" y="180" on="0"/>
        <pt x="451" y="165" on="1"/>
        <pt x="221" y="165" on="1"/>
        <pt x="146" y="0" on="1"/>
        <pt x="22" y="0" on="1"/>
      </contour>
    </TTGlyph>
    <TTGlyph name="Aring" xMin="23" yMin="0" xMax="668" yMax="893">
      <contour>
        <pt x="436" y="757" on="1"/>
        <pt x="456" y="757" on="0"/>
        <pt x="482" y="782" on="0"/>
        <pt x="484" y="801" on="1"/>
        <pt x="486" y="820" on="0"/>
        <pt x="467" y="845" on="0"/>
        <pt x="447" y="845" on="1"/>
        <pt x="429" y="845" on="0"/>
        <pt x="404" y="819" on="0"/>
        <pt x="402" y="799" on="1"/>
        <pt x="400" y="783" on="0"/>
        <pt x="418" y="757" on="0"/>
      </contour>
      <contour>
        <pt x="146" y="0" on="1"/>
        <pt x="23" y="0" on="1"/>
        <pt x="371" y="724" on="1"/>
        <pt x="331" y="749" on="0"/>
        <pt x="337" y="799" on="1"/>
        <pt x="342" y="840" on="0"/>
        <pt x="408" y="893" on="0"/>
        <pt x="454" y="893" on="1"/>
        <pt x="501" y="893" on="0"/>
        <pt x="552" y="842" on="0"/>
        <pt x="547" y="800" on="1"/>
        <pt x="544" y="775" on="0"/>
        <pt x="516" y="737" on="0"/>
        <pt x="496" y="725" on="1"/>
        <pt x="668" y="0" on="1"/>
        <pt x="537" y="0" on="1"/>
        <pt x="508" y="137" on="0"/>
        <pt x="449" y="406" on="0"/>
        <pt x="420" y="543" on="1"/>
        <pt x="412" y="586" on="1"/>
        <pt x="393" y="542" on="1"/>
        <pt x="362" y="475" on="0"/>
        <pt x="301" y="341" on="0"/>
        <pt x="270" y="274" on="1"/>
        <pt x="257" y="254" on="1"/>
        <pt x="269" y="256" on="1"/>
        <pt x="369" y="256" on="1"/>
        <pt x="389" y="256" on="0"/>
        <pt x="418" y="239" on="0"/>
        <pt x="437" y="213" on="0"/>
        <pt x="449" y="180" on="0"/>
        <pt x="452" y="165" on="1"/>
        <pt x="222" y="165" on="1"/>
      </contour>
    </TTGlyph>
    <TTGlyph name="Atilde" xMin="22" yMin="0" xMax="667" yMax="897">
      <contour>
        <pt x="356" y="777" on="1"/>
        <pt x="289" y="783" on="1"/>
        <pt x="293" y="810" on="0"/>
        <pt x="315" y="853" on="0"/>
        <pt x="345" y="882" on="0"/>
        <pt x="381" y="897" on="0"/>
        <pt x="399" y="897" on="1"/>
        <pt x="421" y="897" on="0"/>
        <pt x="451" y="880" on="0"/>
        <pt x="475" y="860" on="0"/>
        <pt x="496" y="843" on="0"/>
        <pt x="510" y="843" on="1"/>
        <pt x="523" y="843" on="0"/>
        <pt x="542" y="870" on="0"/>
        <pt x="547" y="893" on="1"/>
        <pt x="611" y="887" on="1"/>
        <pt x="606" y="856" on="0"/>
        <pt x="583" y="812" on="0"/>
        <pt x="554" y="785" on="0"/>
        <pt x="521" y="773" on="0"/>
        <pt x="507" y="773" on="1"/>
        <pt x="482" y="773" on="0"/>
        <pt x="451" y="790" on="0"/>
        <pt x="429" y="810" on="0"/>
        <pt x="410" y="827" on="0"/>
        <pt x="397" y="827" on="1"/>
        <pt x="386" y="827" on="0"/>
        <pt x="361" y="805" on="0"/>
      </contour>
      <contour>
        <pt x="372" y="727" on="1"/>
        <pt x="495" y="727" on="1"/>
        <pt x="667" y="0" on="1"/>
        <pt x="536" y="0" on="1"/>
        <pt x="412" y="588" on="1"/>
        <pt x="270" y="274" on="1"/>
        <pt x="256" y="254" on="1"/>
        <pt x="270" y="256" on="1"/>
        <pt x="368" y="256" on="1"/>
        <pt x="388" y="256" on="0"/>
        <pt x="417" y="239" on="0"/>
        <pt x="436" y="213" on="0"/>
        <pt x="448" y="180" on="0"/>
        <pt x="451" y="165" on="1"/>
        <pt x="221" y="165" on="1"/>
        <pt x="146" y="0" on="1"/>
        <pt x="22" y="0" on="1"/>
      </contour>
    </TTGlyph>
    <TTGlyph name="B" xMin="83" yMin="-11" xMax="648" yMax="740">
      <contour>
        <pt x="353" y="80" on="1"/>
        <pt x="358" y="79" on="0"/>
        <pt x="365" y="79" on="0"/>
        <pt x="370" y="79" on="1"/>
        <pt x="396" y="79" on="0"/>
        <pt x="444" y="97" on="0"/>
        <pt x="482" y="130" on="0"/>
        <pt x="507" y="176" on="0"/>
        <pt x="511" y="204" on="1"/>
        <pt x="515" y="237" on="0"/>
        <pt x="493" y="287" on="0"/>
        <pt x="449" y="321" on="0"/>
        <pt x="385" y="339" on="0"/>
        <pt x="347" y="339" on="1"/>
        <pt x="247" y="339" on="1"/>
        <pt x="206" y="0" on="1"/>
        <pt x="83" y="0" on="1"/>
        <pt x="171" y="717" on="1"/>
        <pt x="207" y="723" on="0"/>
        <pt x="267" y="732" on="0"/>
        <pt x="319" y="738" on="0"/>
        <pt x="369" y="740" on="0"/>
        <pt x="396" y="740" on="1"/>
        <pt x="462" y="740" on="0"/>
        <pt x="558" y="710" on="0"/>
        <pt x="619" y="657" on="0"/>
        <pt x="644" y="584" on="0"/>
        <pt x="639" y="540" on="1"/>
        <pt x="637" y="522" on="0"/>
        <pt x="621" y="483" on="0"/>
        <pt x="595" y="446" on="0"/>
        <pt x="562" y="414" on="0"/>
        <pt x="542" y="402" on="1"/>
        <pt x="511" y="388" on="1"/>
        <pt x="538" y="381" on="1"/>
        <pt x="592" y="358" on="0"/>
        <pt x="648" y="262" on="0"/>
        <pt x="641" y="205" on="1"/>
        <pt x="636" y="166" on="0"/>
        <pt x="593" y="89" on="0"/>
        <pt x="522" y="28" on="0"/>
        <pt x="426" y="-11" on="0"/>
        <pt x="369" y="-11" on="1"/>
        <pt x="355" y="-11" on="0"/>
        <pt x="329" y="-10" on="0"/>
        <pt x="300" y="-6" on="0"/>
        <pt x="267" y="1" on="0"/>
        <pt x="246" y="6" on="1"/>
        <pt x="254" y="19" on="0"/>
        <pt x="276" y="46" on="0"/>
        <pt x="302" y="68" on="0"/>
        <pt x="334" y="81" on="0"/>
      </contour>
      <contour>
        <pt x="257" y="423" on="1"/>
        <pt x="357" y="423" on="1"/>
        <pt x="387" y="423" on="0"/>
        <pt x="440" y="440" on="0"/>
        <pt x="482" y="471" on="0"/>
        <pt x="509" y="514" on="0"/>
        <pt x="512" y="539" on="1"/>
        <pt x="514" y="560" on="0"/>
        <pt x="502" y="599" on="0"/>
        <pt x="472" y="630" on="0"/>
        <pt x="421" y="649" on="0"/>
        <pt x="385" y="649" on="1"/>
        <pt x="358" y="649" on="0"/>
        <pt x="312" y="646" on="0"/>
        <pt x="284" y="643" on="1"/>
      </contour>
    </TTGlyph>
    <TTGlyph name="C" xMin="91" yMin="-12" xMax="697" yMax="740">
      <contour>
        <pt x="433" y="-12" on="1"/>
        <pt x="346" y="-12" on="0"/>
        <pt x="213" y="44" on="0"/>
        <pt x="127" y="144" on="0"/>
        <pt x="91" y="281" on="0"/>
        <pt x="101" y="363" on="1"/>
        <pt x="111" y="443" on="0"/>
        <pt x="182" y="581" on="0"/>
        <pt x="293" y="682" on="0"/>
        <pt x="439" y="740" on="0"/>
        <pt x="525" y="740" on="1"/>
        <pt x="567" y="740" on="0"/>
        <pt x="652" y="724" on="0"/>
        <pt x="697" y="706" on="1"/>
        <pt x="655" y="624" on="1"/>
        <pt x="612" y="638" on="0"/>
        <pt x="549" y="648" on="0"/>
        <pt x="514" y="648" on="1"/>
        <pt x="457" y="648" on="0"/>
        <pt x="361" y="605" on="0"/>
        <pt x="288" y="528" on="0"/>
        <pt x="241" y="424" on="0"/>
        <pt x="234" y="363" on="1"/>
        <pt x="227" y="305" on="0"/>
        <pt x="248" y="202" on="0"/>
        <pt x="302" y="124" on="0"/>
        <pt x="387" y="79" on="0"/>
        <pt x="444" y="79" on="1"/>
        <pt x="479" y="79" on="0"/>
        <pt x="551" y="96" on="0"/>
        <pt x="592" y="115" on="1"/>
        <pt x="615" y="34" on="1"/>
        <pt x="567" y="10" on="0"/>
        <pt x="475" y="-12" on="0"/>
      </contour>
    </TTGlyph>
    <TTGlyph name="Ccedilla" xMin="92" yMin="-210" xMax="697" yMax="740">
      <contour>
        <pt x="433" y="-12" on="1"/>
        <pt x="424" y="-12" on="0"/>
        <pt x="408" y="-11" on="0"/>
        <pt x="400" y="-11" on="1"/>
        <pt x="387" y="-46" on="1"/>
        <pt x="402" y="-49" on="0"/>
        <pt x="429" y="-61" on="0"/>
        <pt x="450" y="-81" on="0"/>
        <pt x="460" y="-107" on="0"/>
        <pt x="458" y="-123" on="1"/>
        <pt x="455" y="-146" on="0"/>
        <pt x="430" y="-178" on="0"/>
        <pt x="392" y="-200" on="0"/>
        <pt x="348" y="-210" on="0"/>
        <pt x="326" y="-210" on="1"/>
        <pt x="309" y="-210" on="0"/>
        <pt x="271" y="-202" on="0"/>
        <pt x="248" y="-191" on="1"/>
        <pt x="270" y="-140" on="1"/>
        <pt x="288" y="-148" on="0"/>
        <pt x="318" y="-153" on="0"/>
        <pt x="333" y="-153" on="1"/>
        <pt x="350" y="-153" on="0"/>
        <pt x="379" y="-140" on="0"/>
        <pt x="381" y="-126" on="1"/>
        <pt x="383" y="-109" on="0"/>
        <pt x="347" y="-92" on="0"/>
        <pt x="312" y="-88" on="1"/>
        <pt x="344" y="-3" on="1"/>
        <pt x="278" y="10" on="0"/>
        <pt x="180" y="74" on="0"/>
        <pt x="117" y="170" on="0"/>
        <pt x="92" y="292" on="0"/>
        <pt x="101" y="363" on="1"/>
        <pt x="111" y="443" on="0"/>
        <pt x="182" y="581" on="0"/>
        <pt x="293" y="682" on="0"/>
        <pt x="439" y="740" on="0"/>
        <pt x="525" y="740" on="1"/>
        <pt x="567" y="740" on="0"/>
        <pt x="652" y="724" on="0"/>
        <pt x="697" y="706" on="1"/>
        <pt x="655" y="624" on="1"/>
        <pt x="612" y="638" on="0"/>
        <pt x="549" y="648" on="0"/>
        <pt x="514" y="648" on="1"/>
        <pt x="457" y="648" on="0"/>
        <pt x="361" y="605" on="0"/>
        <pt x="288" y="528" on="0"/>
        <pt x="241" y="424" on="0"/>
        <pt x="234" y="363" on="1"/>
        <pt x="226" y="303" on="0"/>
        <pt x="248" y="199" on="0"/>
        <pt x="302" y="123" on="0"/>
        <pt x="387" y="79" on="0"/>
        <pt x="444" y="79" on="1"/>
        <pt x="479" y="79" on="0"/>
        <pt x="551" y="96" on="0"/>
        <pt x="592" y="115" on="1"/>
        <pt x="615" y="34" on="1"/>
        <pt x="567" y="10" on="0"/>
        <pt x="475" y="-12" on="0"/>
      </contour>
    </TTGlyph>
    <TTGlyph name="D" xMin="85" yMin="-12" xMax="773" yMax="740">
      <contour>
        <pt x="371" y="-12" on="1"/>
        <pt x="341" y="-12" on="0"/>
        <pt x="290" y="-6" on="0"/>
        <pt x="248" y="5" on="1"/>
        <pt x="256" y="18" on="0"/>
        <pt x="277" y="45" on="0"/>
        <pt x="304" y="67" on="0"/>
        <pt x="336" y="81" on="0"/>
        <pt x="355" y="80" on="1"/>
        <pt x="361" y="79" on="0"/>
        <pt x="367" y="79" on="0"/>
        <pt x="372" y="79" on="1"/>
        <pt x="426" y="79" on="0"/>
        <pt x="515" y="127" on="0"/>
        <pt x="581" y="207" on="0"/>
        <pt x="622" y="310" on="0"/>
        <pt x="629" y="365" on="1"/>
        <pt x="637" y="429" on="0"/>
        <pt x="617" y="534" on="0"/>
        <pt x="557" y="608" on="0"/>
        <pt x="457" y="648" on="0"/>
        <pt x="384" y="648" on="1"/>
        <pt x="360" y="648" on="0"/>
        <pt x="311" y="644" on="0"/>
        <pt x="287" y="641" on="1"/>
        <pt x="209" y="0" on="1"/>
        <pt x="85" y="0" on="1"/>
        <pt x="172" y="715" on="1"/>
        <pt x="233" y="728" on="0"/>
        <pt x="351" y="740" on="0"/>
        <pt x="395" y="740" on="1"/>
        <pt x="493" y="740" on="0"/>
        <pt x="640" y="689" on="0"/>
        <pt x="734" y="593" on="0"/>
        <pt x="773" y="453" on="0"/>
        <pt x="762" y="365" on="1"/>
        <pt x="752" y="285" on="0"/>
        <pt x="682" y="147" on="0"/>
        <pt x="577" y="46" on="0"/>
        <pt x="444" y="-12" on="0"/>
      </contour>
    </TTGlyph>
    <TTGlyph name="E" xMin="85" yMin="0" xMax="602" yMax="727">
      <contour>
        <pt x="395" y="426" on="1"/>
        <pt x="531" y="426" on="1"/>
        <pt x="520" y="337" on="1"/>
        <pt x="289" y="337" on="1"/>
        <pt x="296" y="352" on="0"/>
        <pt x="316" y="384" on="0"/>
        <pt x="342" y="410" on="0"/>
        <pt x="375" y="426" on="0"/>
      </contour>
      <contour>
        <pt x="85" y="0" on="1"/>
        <pt x="174" y="727" on="1"/>
        <pt x="602" y="727" on="1"/>
        <pt x="591" y="636" on="1"/>
        <pt x="288" y="636" on="1"/>
        <pt x="221" y="91" on="1"/>
        <pt x="540" y="91" on="1"/>
        <pt x="529" y="0" on="1"/>
      </contour>
    </TTGlyph>
    <TTGlyph name="Eacute" xMin="75" yMin="0" xMax="592" yMax="890">
      <contour>
        <pt x="555" y="890" on="1"/>
        <pt x="466" y="802" on="1"/>
        <pt x="451" y="787" on="0"/>
        <pt x="415" y="770" on="0"/>
        <pt x="378" y="762" on="0"/>
        <pt x="345" y="762" on="0"/>
        <pt x="333" y="765" on="1"/>
        <pt x="436" y="890" on="1"/>
      </contour>
      <contour>
        <pt x="385" y="426" on="1"/>
        <pt x="521" y="426" on="1"/>
        <pt x="510" y="337" on="1"/>
        <pt x="279" y="337" on="1"/>
        <pt x="286" y="352" on="0"/>
        <pt x="306" y="384" on="0"/>
        <pt x="332" y="410" on="0"/>
        <pt x="365" y="426" on="0"/>
      </contour>
      <contour>
        <pt x="75" y="0" on="1"/>
        <pt x="164" y="727" on="1"/>
        <pt x="592" y="727" on="1"/>
        <pt x="581" y="636" on="1"/>
        <pt x="278" y="636" on="1"/>
        <pt x="211" y="91" on="1"/>
        <pt x="530" y="91" on="1"/>
        <pt x="519" y="0" on="1"/>
      </contour>
    </TTGlyph>
    <TTGlyph name="Ecircumflex" xMin="75" yMin="0" xMax="592" yMax="890">
      <contour>
        <pt x="369" y="890" on="1"/>
        <pt x="454" y="890" on="1"/>
        <pt x="548" y="772" on="1"/>
        <pt x="477" y="758" on="1"/>
        <pt x="402" y="815" on="1"/>
        <pt x="314" y="758" on="1"/>
        <pt x="247" y="772" on="1"/>
      </contour>
      <contour>
        <pt x="385" y="426" on="1"/>
        <pt x="521" y="426" on="1"/>
        <pt x="510" y="337" on="1"/>
        <pt x="279" y="337" on="1"/>
        <pt x="286" y="352" on="0"/>
        <pt x="306" y="384" on="0"/>
        <pt x="332" y="410" on="0"/>
        <pt x="365" y="426" on="0"/>
      </contour>
      <contour>
        <pt x="75" y="0" on="1"/>
        <pt x="164" y="727" on="1"/>
        <pt x="592" y="727" on="1"/>
        <pt x="581" y="636" on="1"/>
        <pt x="278" y="636" on="1"/>
        <pt x="211" y="91" on="1"/>
        <pt x="530" y="91" on="1"/>
        <pt x="519" y="0" on="1"/>
      </contour>
    </TTGlyph>
    <TTGlyph name="Edieresis" xMin="75" yMin="0" xMax="592" yMax="899">
      <contour>
        <pt x="441" y="840" on="1"/>
        <pt x="444" y="865" on="0"/>
        <pt x="483" y="899" on="0"/>
        <pt x="507" y="899" on="1"/>
        <pt x="532" y="899" on="0"/>
        <pt x="563" y="865" on="0"/>
        <pt x="560" y="840" on="1"/>
        <pt x="557" y="815" on="0"/>
        <pt x="517" y="781" on="0"/>
        <pt x="492" y="781" on="1"/>
        <pt x="468" y="781" on="0"/>
        <pt x="438" y="815" on="0"/>
      </contour>
      <contour>
        <pt x="247" y="840" on="1"/>
        <pt x="250" y="865" on="0"/>
        <pt x="289" y="899" on="0"/>
        <pt x="312" y="899" on="1"/>
        <pt x="337" y="899" on="0"/>
        <pt x="368" y="865" on="0"/>
        <pt x="365" y="840" on="1"/>
        <pt x="362" y="815" on="0"/>
        <pt x="322" y="781" on="0"/>
        <pt x="297" y="781" on="1"/>
        <pt x="274" y="781" on="0"/>
        <pt x="244" y="815" on="0"/>
      </contour>
      <contour>
        <pt x="385" y="426" on="1"/>
        <pt x="521" y="426" on="1"/>
        <pt x="510" y="337" on="1"/>
        <pt x="279" y="337" on="1"/>
        <pt x="286" y="352" on="0"/>
        <pt x="306" y="384" on="0"/>
        <pt x="332" y="410" on="0"/>
        <pt x="365" y="426" on="0"/>
      </contour>
      <contour>
        <pt x="75" y="0" on="1"/>
        <pt x="164" y="727" on="1"/>
        <pt x="592" y="727" on="1"/>
        <pt x="581" y="636" on="1"/>
        <pt x="278" y="636" on="1"/>
        <pt x="211" y="91" on="1"/>
        <pt x="530" y="91" on="1"/>
        <pt x="519" y="0" on="1"/>
      </contour>
    </TTGlyph>
    <TTGlyph name="Egrave" xMin="75" yMin="0" xMax="592" yMax="890">
      <contour>
        <pt x="339" y="802" on="1"/>
        <pt x="285" y="890" on="1"/>
        <pt x="403" y="890" on="1"/>
        <pt x="461" y="765" on="1"/>
        <pt x="448" y="762" on="0"/>
        <pt x="413" y="762" on="0"/>
        <pt x="379" y="769" on="0"/>
        <pt x="348" y="787" on="0"/>
      </contour>
      <contour>
        <pt x="385" y="426" on="1"/>
        <pt x="521" y="426" on="1"/>
        <pt x="510" y="337" on="1"/>
        <pt x="279" y="337" on="1"/>
        <pt x="286" y="352" on="0"/>
        <pt x="306" y="384" on="0"/>
        <pt x="332" y="410" on="0"/>
        <pt x="365" y="426" on="0"/>
      </contour>
      <contour>
        <pt x="75" y="0" on="1"/>
        <pt x="164" y="727" on="1"/>
        <pt x="592" y="727" on="1"/>
        <pt x="581" y="636" on="1"/>
        <pt x="278" y="636" on="1"/>
        <pt x="211" y="91" on="1"/>
        <pt x="530" y="91" on="1"/>
        <pt x="519" y="0" on="1"/>
      </contour>
    </TTGlyph>
    <TTGlyph name="Eth" xMin="33" yMin="-12" xMax="763" yMax="740">
      <contour>
        <pt x="33" y="315" on="1"/>
        <pt x="43" y="396" on="1"/>
        <pt x="123" y="396" on="1"/>
        <pt x="162" y="715" on="1"/>
        <pt x="223" y="728" on="0"/>
        <pt x="341" y="740" on="0"/>
        <pt x="385" y="740" on="1"/>
        <pt x="483" y="740" on="0"/>
        <pt x="630" y="688" on="0"/>
        <pt x="724" y="591" on="0"/>
        <pt x="763" y="452" on="0"/>
        <pt x="752" y="365" on="1"/>
        <pt x="742" y="285" on="0"/>
        <pt x="672" y="147" on="0"/>
        <pt x="567" y="46" on="0"/>
        <pt x="434" y="-12" on="0"/>
        <pt x="361" y="-12" on="1"/>
        <pt x="331" y="-12" on="0"/>
        <pt x="280" y="-6" on="0"/>
        <pt x="238" y="5" on="1"/>
        <pt x="246" y="18" on="0"/>
        <pt x="267" y="45" on="0"/>
        <pt x="294" y="67" on="0"/>
        <pt x="326" y="81" on="0"/>
        <pt x="345" y="80" on="1"/>
        <pt x="351" y="79" on="0"/>
        <pt x="357" y="79" on="0"/>
        <pt x="362" y="79" on="1"/>
        <pt x="416" y="79" on="0"/>
        <pt x="505" y="127" on="0"/>
        <pt x="571" y="207" on="0"/>
        <pt x="612" y="310" on="0"/>
        <pt x="619" y="365" on="1"/>
        <pt x="627" y="429" on="0"/>
        <pt x="607" y="534" on="0"/>
        <pt x="547" y="608" on="0"/>
        <pt x="447" y="648" on="0"/>
        <pt x="374" y="648" on="1"/>
        <pt x="350" y="648" on="0"/>
        <pt x="301" y="644" on="0"/>
        <pt x="277" y="641" on="1"/>
        <pt x="247" y="396" on="1"/>
        <pt x="459" y="396" on="1"/>
        <pt x="449" y="315" on="1"/>
        <pt x="237" y="315" on="1"/>
        <pt x="199" y="0" on="1"/>
        <pt x="75" y="0" on="1"/>
        <pt x="113" y="315" on="1"/>
      </contour>
    </TTGlyph>
    <TTGlyph name="Euro" xMin="6" yMin="-11" xMax="611" yMax="713">
      <contour>
        <pt x="350" y="469" on="1"/>
        <pt x="505" y="469" on="1"/>
        <pt x="496" y="398" on="1"/>
        <pt x="256" y="398" on="1"/>
        <pt x="270" y="427" on="0"/>
        <pt x="314" y="469" on="0"/>
      </contour>
      <contour>
        <pt x="6" y="246" on="1"/>
        <pt x="14" y="317" on="1"/>
        <pt x="84" y="317" on="1"/>
        <pt x="85" y="325" on="0"/>
        <pt x="86" y="342" on="0"/>
        <pt x="87" y="350" on="1"/>
        <pt x="89" y="362" on="0"/>
        <pt x="92" y="386" on="0"/>
        <pt x="95" y="398" on="1"/>
        <pt x="24" y="398" on="1"/>
        <pt x="33" y="469" on="1"/>
        <pt x="115" y="469" on="1"/>
        <pt x="135" y="522" on="0"/>
        <pt x="198" y="611" on="0"/>
        <pt x="282" y="676" on="0"/>
        <pt x="387" y="713" on="0"/>
        <pt x="449" y="713" on="1"/>
        <pt x="491" y="713" on="0"/>
        <pt x="566" y="698" on="0"/>
        <pt x="611" y="681" on="1"/>
        <pt x="569" y="601" on="1"/>
        <pt x="529" y="615" on="0"/>
        <pt x="470" y="624" on="0"/>
        <pt x="438" y="624" on="1"/>
        <pt x="392" y="624" on="0"/>
        <pt x="315" y="581" on="0"/>
        <pt x="257" y="506" on="0"/>
        <pt x="218" y="406" on="0"/>
        <pt x="211" y="350" on="1"/>
        <pt x="210" y="342" on="0"/>
        <pt x="209" y="325" on="0"/>
        <pt x="208" y="317" on="1"/>
        <pt x="486" y="317" on="1"/>
        <pt x="478" y="246" on="1"/>
        <pt x="240" y="246" on="1"/>
        <pt x="232" y="246" on="0"/>
        <pt x="218" y="247" on="0"/>
        <pt x="210" y="247" on="1"/>
        <pt x="220" y="211" on="0"/>
        <pt x="245" y="149" on="0"/>
        <pt x="281" y="104" on="0"/>
        <pt x="333" y="78" on="0"/>
        <pt x="371" y="78" on="1"/>
        <pt x="405" y="78" on="0"/>
        <pt x="469" y="92" on="0"/>
        <pt x="509" y="108" on="1"/>
        <pt x="531" y="28" on="1"/>
        <pt x="486" y="8" on="0"/>
        <pt x="402" y="-11" on="0"/>
        <pt x="360" y="-11" on="1"/>
        <pt x="295" y="-11" on="0"/>
        <pt x="197" y="28" on="0"/>
        <pt x="129" y="97" on="0"/>
        <pt x="91" y="191" on="0"/>
        <pt x="86" y="246" on="1"/>
      </contour>
    </TTGlyph>
    <TTGlyph name="F" xMin="85" yMin="0" xMax="602" yMax="727">
      <contour>
        <pt x="395" y="426" on="1"/>
        <pt x="531" y="426" on="1"/>
        <pt x="520" y="337" on="1"/>
        <pt x="289" y="337" on="1"/>
        <pt x="296" y="352" on="0"/>
        <pt x="316" y="384" on="0"/>
        <pt x="342" y="410" on="0"/>
        <pt x="375" y="426" on="0"/>
      </contour>
      <contour>
        <pt x="85" y="0" on="1"/>
        <pt x="174" y="727" on="1"/>
        <pt x="602" y="727" on="1"/>
        <pt x="591" y="636" on="1"/>
        <pt x="288" y="636" on="1"/>
        <pt x="210" y="0" on="1"/>
      </contour>
    </TTGlyph>
    <TTGlyph name="G" xMin="73" yMin="-12" xMax="720" yMax="740">
      <contour>
        <pt x="508" y="648" on="1"/>
        <pt x="451" y="648" on="0"/>
        <pt x="352" y="606" on="0"/>
        <pt x="275" y="531" on="0"/>
        <pt x="225" y="426" on="0"/>
        <pt x="217" y="363" on="1"/>
        <pt x="209" y="302" on="0"/>
        <pt x="234" y="198" on="0"/>
        <pt x="291" y="122" on="0"/>
        <pt x="379" y="79" on="0"/>
        <pt x="436" y="79" on="1"/>
        <pt x="458" y="79" on="0"/>
        <pt x="507" y="84" on="0"/>
        <pt x="540" y="93" on="1"/>
        <pt x="570" y="337" on="1"/>
        <pt x="685" y="337" on="1"/>
        <pt x="648" y="37" on="1"/>
        <pt x="590" y="11" on="0"/>
        <pt x="468" y="-12" on="0"/>
        <pt x="425" y="-12" on="1"/>
        <pt x="338" y="-12" on="0"/>
        <pt x="202" y="44" on="0"/>
        <pt x="112" y="143" on="0"/>
        <pt x="73" y="281" on="0"/>
        <pt x="83" y="363" on="1"/>
        <pt x="93" y="444" on="0"/>
        <pt x="167" y="582" on="0"/>
        <pt x="283" y="683" on="0"/>
        <pt x="433" y="740" on="0"/>
        <pt x="519" y="740" on="1"/>
        <pt x="562" y="740" on="0"/>
        <pt x="668" y="720" on="0"/>
        <pt x="720" y="696" on="1"/>
        <pt x="678" y="612" on="1"/>
        <pt x="624" y="634" on="0"/>
        <pt x="543" y="648" on="0"/>
      </contour>
    </TTGlyph>
    <TTGlyph name="H" xMin="85" yMin="0" xMax="756" yMax="727">
      <contour>
        <pt x="85" y="0" on="1"/>
        <pt x="174" y="727" on="1"/>
        <pt x="299" y="727" on="1"/>
        <pt x="210" y="0" on="1"/>
      </contour>
      <contour>
        <pt x="395" y="427" on="1"/>
        <pt x="596" y="427" on="1"/>
        <pt x="633" y="727" on="1"/>
        <pt x="756" y="727" on="1"/>
        <pt x="667" y="0" on="1"/>
        <pt x="544" y="0" on="1"/>
        <pt x="585" y="336" on="1"/>
        <pt x="289" y="336" on="1"/>
        <pt x="296" y="352" on="0"/>
        <pt x="316" y="384" on="0"/>
        <pt x="342" y="410" on="0"/>
        <pt x="375" y="427" on="0"/>
      </contour>
    </TTGlyph>
    <TTGlyph name="I" xMin="85" yMin="0" xMax="296" yMax="727">
      <contour>
        <pt x="296" y="727" on="1"/>
        <pt x="207" y="0" on="1"/>
        <pt x="85" y="0" on="1"/>
        <pt x="174" y="727" on="1"/>
      </contour>
    </TTGlyph>
    <TTGlyph name="Iacute" xMin="74" yMin="0" xMax="390" yMax="890">
      <contour>
        <pt x="390" y="890" on="1"/>
        <pt x="301" y="802" on="1"/>
        <pt x="286" y="787" on="0"/>
        <pt x="249" y="770" on="0"/>
        <pt x="213" y="762" on="0"/>
        <pt x="179" y="762" on="0"/>
        <pt x="167" y="765" on="1"/>
        <pt x="270" y="890" on="1"/>
      </contour>
      <contour>
        <pt x="284" y="727" on="1"/>
        <pt x="195" y="0" on="1"/>
        <pt x="74" y="0" on="1"/>
        <pt x="163" y="727" on="1"/>
      </contour>
    </TTGlyph>
    <TTGlyph name="Icircumflex" xMin="99" yMin="0" xMax="405" yMax="890">
      <contour>
        <pt x="226" y="890" on="1"/>
        <pt x="311" y="890" on="1"/>
        <pt x="405" y="772" on="1"/>
        <pt x="334" y="758" on="1"/>
        <pt x="259" y="815" on="1"/>
        <pt x="171" y="758" on="1"/>
        <pt x="104" y="772" on="1"/>
      </contour>
      <contour>
        <pt x="309" y="727" on="1"/>
        <pt x="220" y="0" on="1"/>
        <pt x="99" y="0" on="1"/>
        <pt x="188" y="727" on="1"/>
      </contour>
    </TTGlyph>
    <TTGlyph name="Idieresis" xMin="112" yMin="0" xMax="435" yMax="899">
      <contour>
        <pt x="314" y="840" on="1"/>
        <pt x="317" y="865" on="0"/>
        <pt x="356" y="899" on="0"/>
        <pt x="380" y="899" on="1"/>
        <pt x="404" y="899" on="0"/>
        <pt x="435" y="865" on="0"/>
        <pt x="432" y="840" on="1"/>
        <pt x="429" y="815" on="0"/>
        <pt x="389" y="781" on="0"/>
        <pt x="365" y="781" on="1"/>
        <pt x="341" y="781" on="0"/>
        <pt x="311" y="815" on="0"/>
      </contour>
      <contour>
        <pt x="119" y="840" on="1"/>
        <pt x="122" y="865" on="0"/>
        <pt x="161" y="899" on="0"/>
        <pt x="185" y="899" on="1"/>
        <pt x="210" y="899" on="0"/>
        <pt x="241" y="865" on="0"/>
        <pt x="238" y="840" on="1"/>
        <pt x="235" y="815" on="0"/>
        <pt x="195" y="781" on="0"/>
        <pt x="170" y="781" on="1"/>
        <pt x="146" y="781" on="0"/>
        <pt x="116" y="815" on="0"/>
      </contour>
      <contour>
        <pt x="323" y="727" on="1"/>
        <pt x="234" y="0" on="1"/>
        <pt x="112" y="0" on="1"/>
        <pt x="201" y="727" on="1"/>
      </contour>
    </TTGlyph>
    <TTGlyph name="Igrave" xMin="82" yMin="0" xMax="299" yMax="890">
      <contour>
        <pt x="177" y="802" on="1"/>
        <pt x="123" y="890" on="1"/>
        <pt x="241" y="890" on="1"/>
        <pt x="299" y="765" on="1"/>
        <pt x="286" y="762" on="0"/>
        <pt x="251" y="762" on="0"/>
        <pt x="217" y="769" on="0"/>
        <pt x="186" y="787" on="0"/>
      </contour>
      <contour>
        <pt x="293" y="727" on="1"/>
        <pt x="204" y="0" on="1"/>
        <pt x="82" y="0" on="1"/>
        <pt x="171" y="727" on="1"/>
      </contour>
    </TTGlyph>
    <TTGlyph name="J" xMin="-25" yMin="-217" xMax="368" yMax="727">
      <contour>
        <pt x="368" y="727" on="1"/>
        <pt x="294" y="128" on="1"/>
        <pt x="286" y="60" on="0"/>
        <pt x="243" y="-37" on="0"/>
        <pt x="174" y="-114" on="0"/>
        <pt x="80" y="-180" on="0"/>
        <pt x="20" y="-217" on="1"/>
        <pt x="-25" y="-146" on="1"/>
        <pt x="16" y="-115" on="0"/>
        <pt x="82" y="-63" on="0"/>
        <pt x="131" y="-3" on="0"/>
        <pt x="162" y="74" on="0"/>
        <pt x="169" y="128" on="1"/>
        <pt x="243" y="727" on="1"/>
      </contour>
    </TTGlyph>
    <TTGlyph name="K" xMin="85" yMin="0" xMax="728" yMax="727">
      <contour>
        <pt x="210" y="0" on="1"/>
        <pt x="85" y="0" on="1"/>
        <pt x="174" y="727" on="1"/>
        <pt x="299" y="727" on="1"/>
      </contour>
      <contour>
        <pt x="728" y="727" on="1"/>
        <pt x="467" y="435" on="1"/>
        <pt x="673" y="0" on="1"/>
        <pt x="528" y="0" on="1"/>
        <pt x="393" y="331" on="1"/>
        <pt x="389" y="353" on="1"/>
        <pt x="375" y="333" on="1"/>
        <pt x="295" y="243" on="1"/>
        <pt x="287" y="285" on="0"/>
        <pt x="313" y="388" on="0"/>
        <pt x="343" y="431" on="1"/>
        <pt x="394" y="505" on="0"/>
        <pt x="528" y="655" on="0"/>
        <pt x="590" y="727" on="1"/>
      </contour>
    </TTGlyph>
    <TTGlyph name="L" xMin="85" yMin="0" xMax="499" yMax="727">
      <contour>
        <pt x="85" y="0" on="1"/>
        <pt x="174" y="727" on="1"/>
        <pt x="300" y="727" on="1"/>
        <pt x="222" y="92" on="1"/>
        <pt x="499" y="92" on="1"/>
        <pt x="496" y="69" on="0"/>
        <pt x="490" y="23" on="0"/>
        <pt x="488" y="0" on="1"/>
      </contour>
    </TTGlyph>
    <TTGlyph name="M" xMin="72" yMin="0" xMax="913" yMax="727">
      <contour>
        <pt x="72" y="0" on="1"/>
        <pt x="235" y="727" on="1"/>
        <pt x="394" y="727" on="1"/>
        <pt x="497" y="157" on="1"/>
        <pt x="500" y="123" on="1"/>
        <pt x="512" y="157" on="1"/>
        <pt x="754" y="727" on="1"/>
        <pt x="913" y="727" on="1"/>
        <pt x="897" y="0" on="1"/>
        <pt x="781" y="0" on="1"/>
        <pt x="803" y="561" on="1"/>
        <pt x="806" y="607" on="1"/>
        <pt x="788" y="561" on="1"/>
        <pt x="548" y="10" on="1"/>
        <pt x="423" y="10" on="1"/>
        <pt x="316" y="562" on="1"/>
        <pt x="309" y="607" on="1"/>
        <pt x="188" y="0" on="1"/>
      </contour>
    </TTGlyph>
    <TTGlyph name="N" xMin="98" yMin="0" xMax="754" yMax="727">
      <contour>
        <pt x="555" y="0" on="1"/>
        <pt x="486" y="135" on="0"/>
        <pt x="351" y="401" on="0"/>
        <pt x="283" y="536" on="1"/>
        <pt x="272" y="571" on="1"/>
        <pt x="269" y="537" on="1"/>
        <pt x="204" y="0" on="1"/>
        <pt x="98" y="0" on="1"/>
        <pt x="187" y="727" on="1"/>
        <pt x="309" y="727" on="1"/>
        <pt x="554" y="240" on="1"/>
        <pt x="569" y="210" on="1"/>
        <pt x="578" y="172" on="1"/>
        <pt x="580" y="210" on="1"/>
        <pt x="644" y="727" on="1"/>
        <pt x="754" y="727" on="1"/>
        <pt x="665" y="0" on="1"/>
      </contour>
    </TTGlyph>
    <TTGlyph name="Ntilde" xMin="92" yMin="0" xMax="748" yMax="897">
      <contour>
        <pt x="385" y="777" on="1"/>
        <pt x="319" y="783" on="1"/>
        <pt x="323" y="810" on="0"/>
        <pt x="345" y="853" on="0"/>
        <pt x="375" y="882" on="0"/>
        <pt x="410" y="897" on="0"/>
        <pt x="428" y="897" on="1"/>
        <pt x="450" y="897" on="0"/>
        <pt x="480" y="880" on="0"/>
        <pt x="504" y="860" on="0"/>
        <pt x="526" y="843" on="0"/>
        <pt x="539" y="843" on="1"/>
        <pt x="553" y="843" on="0"/>
        <pt x="571" y="870" on="0"/>
        <pt x="576" y="893" on="1"/>
        <pt x="641" y="887" on="1"/>
        <pt x="636" y="856" on="0"/>
        <pt x="613" y="812" on="0"/>
        <pt x="583" y="785" on="0"/>
        <pt x="551" y="773" on="0"/>
        <pt x="536" y="773" on="1"/>
        <pt x="512" y="773" on="0"/>
        <pt x="481" y="790" on="0"/>
        <pt x="458" y="810" on="0"/>
        <pt x="439" y="827" on="0"/>
        <pt x="426" y="827" on="1"/>
        <pt x="415" y="827" on="0"/>
        <pt x="390" y="805" on="0"/>
      </contour>
      <contour>
        <pt x="549" y="0" on="1"/>
        <pt x="480" y="135" on="0"/>
        <pt x="344" y="402" on="0"/>
        <pt x="275" y="537" on="1"/>
        <pt x="266" y="571" on="1"/>
        <pt x="263" y="537" on="1"/>
        <pt x="198" y="0" on="1"/>
        <pt x="92" y="0" on="1"/>
        <pt x="181" y="727" on="1"/>
        <pt x="302" y="727" on="1"/>
        <pt x="549" y="239" on="1"/>
        <pt x="553" y="231" on="0"/>
        <pt x="560" y="216" on="0"/>
        <pt x="564" y="208" on="1"/>
        <pt x="572" y="175" on="1"/>
        <pt x="574" y="210" on="1"/>
        <pt x="638" y="727" on="1"/>
        <pt x="748" y="727" on="1"/>
        <pt x="659" y="0" on="1"/>
      </contour>
    </TTGlyph>
    <TTGlyph name="O" xMin="78" yMin="-14" xMax="801" yMax="742">
      <contour>
        <pt x="221" y="364" on="1"/>
        <pt x="214" y="306" on="0"/>
        <pt x="231" y="202" on="0"/>
        <pt x="278" y="123" on="0"/>
        <pt x="354" y="77" on="0"/>
        <pt x="405" y="77" on="1"/>
        <pt x="451" y="77" on="0"/>
        <pt x="536" y="118" on="0"/>
        <pt x="605" y="193" on="0"/>
        <pt x="652" y="299" on="0"/>
        <pt x="660" y="364" on="1"/>
        <pt x="668" y="427" on="0"/>
        <pt x="649" y="533" on="0"/>
        <pt x="600" y="608" on="0"/>
        <pt x="524" y="650" on="0"/>
        <pt x="475" y="650" on="1"/>
        <pt x="425" y="650" on="0"/>
        <pt x="338" y="606" on="0"/>
        <pt x="272" y="530" on="0"/>
        <pt x="228" y="425" on="0"/>
      </contour>
      <contour>
        <pt x="88" y="364" on="1"/>
        <pt x="98" y="449" on="0"/>
        <pt x="169" y="588" on="0"/>
        <pt x="276" y="687" on="0"/>
        <pt x="412" y="742" on="0"/>
        <pt x="487" y="742" on="1"/>
        <pt x="579" y="742" on="0"/>
        <pt x="704" y="677" on="0"/>
        <pt x="776" y="570" on="0"/>
        <pt x="801" y="434" on="0"/>
        <pt x="792" y="364" on="1"/>
        <pt x="783" y="286" on="0"/>
        <pt x="716" y="148" on="0"/>
        <pt x="611" y="45" on="0"/>
        <pt x="474" y="-14" on="0"/>
        <pt x="394" y="-14" on="1"/>
        <pt x="314" y="-14" on="0"/>
        <pt x="190" y="41" on="0"/>
        <pt x="111" y="141" on="0"/>
        <pt x="78" y="280" on="0"/>
      </contour>
    </TTGlyph>
    <TTGlyph name="OE" xMin="62" yMin="-14" xMax="1003" yMax="742">
      <contour>
        <pt x="796" y="426" on="1"/>
        <pt x="932" y="426" on="1"/>
        <pt x="921" y="337" on="1"/>
        <pt x="690" y="337" on="1"/>
        <pt x="697" y="352" on="0"/>
        <pt x="717" y="384" on="0"/>
        <pt x="743" y="410" on="0"/>
        <pt x="776" y="426" on="0"/>
      </contour>
      <contour>
        <pt x="461" y="650" on="1"/>
        <pt x="410" y="650" on="0"/>
        <pt x="324" y="606" on="0"/>
        <pt x="258" y="530" on="0"/>
        <pt x="214" y="425" on="0"/>
        <pt x="207" y="364" on="1"/>
        <pt x="200" y="305" on="0"/>
        <pt x="218" y="200" on="0"/>
        <pt x="265" y="122" on="0"/>
        <pt x="341" y="77" on="0"/>
        <pt x="391" y="77" on="1"/>
        <pt x="417" y="77" on="0"/>
        <pt x="471" y="85" on="0"/>
        <pt x="497" y="94" on="1"/>
        <pt x="563" y="633" on="1"/>
        <pt x="540" y="641" on="0"/>
        <pt x="487" y="650" on="0"/>
      </contour>
      <contour>
        <pt x="380" y="-14" on="1"/>
        <pt x="301" y="-14" on="0"/>
        <pt x="177" y="40" on="0"/>
        <pt x="96" y="139" on="0"/>
        <pt x="62" y="279" on="0"/>
        <pt x="73" y="364" on="1"/>
        <pt x="83" y="448" on="0"/>
        <pt x="153" y="587" on="0"/>
        <pt x="259" y="687" on="0"/>
        <pt x="396" y="742" on="0"/>
        <pt x="473" y="742" on="1"/>
        <pt x="509" y="742" on="0"/>
        <pt x="583" y="727" on="0"/>
        <pt x="626" y="727" on="1"/>
        <pt x="1003" y="727" on="1"/>
        <pt x="992" y="636" on="1"/>
        <pt x="689" y="636" on="1"/>
        <pt x="622" y="91" on="1"/>
        <pt x="941" y="91" on="1"/>
        <pt x="930" y="0" on="1"/>
        <pt x="537" y="0" on="1"/>
        <pt x="490" y="0" on="0"/>
        <pt x="412" y="-14" on="0"/>
      </contour>
    </TTGlyph>
    <TTGlyph name="Oacute" xMin="62" yMin="-14" xMax="787" yMax="890">
      <contour>
        <pt x="651" y="890" on="1"/>
        <pt x="562" y="802" on="1"/>
        <pt x="547" y="787" on="0"/>
        <pt x="511" y="770" on="0"/>
        <pt x="474" y="762" on="0"/>
        <pt x="441" y="762" on="0"/>
        <pt x="429" y="765" on="1"/>
        <pt x="532" y="890" on="1"/>
      </contour>
      <contour>
        <pt x="645" y="364" on="1"/>
        <pt x="652" y="425" on="0"/>
        <pt x="635" y="530" on="0"/>
        <pt x="587" y="606" on="0"/>
        <pt x="511" y="650" on="0"/>
        <pt x="460" y="650" on="1"/>
        <pt x="410" y="650" on="0"/>
        <pt x="323" y="606" on="0"/>
        <pt x="257" y="530" on="0"/>
        <pt x="213" y="425" on="0"/>
        <pt x="206" y="364" on="1"/>
        <pt x="199" y="305" on="0"/>
        <pt x="217" y="200" on="0"/>
        <pt x="264" y="122" on="0"/>
        <pt x="340" y="77" on="0"/>
        <pt x="390" y="77" on="1"/>
        <pt x="441" y="77" on="0"/>
        <pt x="528" y="122" on="0"/>
        <pt x="594" y="200" on="0"/>
        <pt x="638" y="305" on="0"/>
      </contour>
      <contour>
        <pt x="777" y="364" on="1"/>
        <pt x="767" y="280" on="0"/>
        <pt x="696" y="141" on="0"/>
        <pt x="589" y="41" on="0"/>
        <pt x="454" y="-14" on="0"/>
        <pt x="379" y="-14" on="1"/>
        <pt x="300" y="-14" on="0"/>
        <pt x="177" y="40" on="0"/>
        <pt x="96" y="139" on="0"/>
        <pt x="62" y="279" on="0"/>
        <pt x="73" y="364" on="1"/>
        <pt x="83" y="448" on="0"/>
        <pt x="153" y="587" on="0"/>
        <pt x="259" y="687" on="0"/>
        <pt x="395" y="742" on="0"/>
        <pt x="472" y="742" on="1"/>
        <pt x="551" y="742" on="0"/>
        <pt x="675" y="687" on="0"/>
        <pt x="754" y="588" on="0"/>
        <pt x="787" y="449" on="0"/>
      </contour>
    </TTGlyph>
    <TTGlyph name="Ocircumflex" xMin="62" yMin="-14" xMax="787" yMax="890">
      <contour>
        <pt x="450" y="890" on="1"/>
        <pt x="535" y="890" on="1"/>
        <pt x="629" y="772" on="1"/>
        <pt x="558" y="758" on="1"/>
        <pt x="483" y="815" on="1"/>
        <pt x="395" y="758" on="1"/>
        <pt x="328" y="772" on="1"/>
      </contour>
      <contour>
        <pt x="645" y="364" on="1"/>
        <pt x="652" y="425" on="0"/>
        <pt x="635" y="530" on="0"/>
        <pt x="587" y="606" on="0"/>
        <pt x="511" y="650" on="0"/>
        <pt x="460" y="650" on="1"/>
        <pt x="410" y="650" on="0"/>
        <pt x="323" y="606" on="0"/>
        <pt x="257" y="530" on="0"/>
        <pt x="213" y="425" on="0"/>
        <pt x="206" y="364" on="1"/>
        <pt x="199" y="305" on="0"/>
        <pt x="217" y="200" on="0"/>
        <pt x="264" y="122" on="0"/>
        <pt x="340" y="77" on="0"/>
        <pt x="390" y="77" on="1"/>
        <pt x="441" y="77" on="0"/>
        <pt x="528" y="122" on="0"/>
        <pt x="594" y="200" on="0"/>
        <pt x="638" y="305" on="0"/>
      </contour>
      <contour>
        <pt x="777" y="364" on="1"/>
        <pt x="767" y="280" on="0"/>
        <pt x="696" y="141" on="0"/>
        <pt x="589" y="41" on="0"/>
        <pt x="454" y="-14" on="0"/>
        <pt x="379" y="-14" on="1"/>
        <pt x="300" y="-14" on="0"/>
        <pt x="177" y="40" on="0"/>
        <pt x="96" y="139" on="0"/>
        <pt x="62" y="279" on="0"/>
        <pt x="73" y="364" on="1"/>
        <pt x="83" y="448" on="0"/>
        <pt x="153" y="587" on="0"/>
        <pt x="259" y="687" on="0"/>
        <pt x="395" y="742" on="0"/>
        <pt x="472" y="742" on="1"/>
        <pt x="551" y="742" on="0"/>
        <pt x="675" y="687" on="0"/>
        <pt x="754" y="588" on="0"/>
        <pt x="787" y="449" on="0"/>
      </contour>
    </TTGlyph>
    <TTGlyph name="Odieresis" xMin="62" yMin="-14" xMax="788" yMax="899">
      <contour>
        <pt x="525" y="840" on="1"/>
        <pt x="528" y="865" on="0"/>
        <pt x="567" y="899" on="0"/>
        <pt x="591" y="899" on="1"/>
        <pt x="615" y="899" on="0"/>
        <pt x="646" y="865" on="0"/>
        <pt x="643" y="840" on="1"/>
        <pt x="640" y="815" on="0"/>
        <pt x="600" y="781" on="0"/>
        <pt x="576" y="781" on="1"/>
        <pt x="552" y="781" on="0"/>
        <pt x="522" y="815" on="0"/>
      </contour>
      <contour>
        <pt x="330" y="840" on="1"/>
        <pt x="333" y="865" on="0"/>
        <pt x="372" y="899" on="0"/>
        <pt x="396" y="899" on="1"/>
        <pt x="421" y="899" on="0"/>
        <pt x="452" y="865" on="0"/>
        <pt x="449" y="840" on="1"/>
        <pt x="446" y="815" on="0"/>
        <pt x="406" y="781" on="0"/>
        <pt x="381" y="781" on="1"/>
        <pt x="357" y="781" on="0"/>
        <pt x="327" y="815" on="0"/>
      </contour>
      <contour>
        <pt x="645" y="364" on="1"/>
        <pt x="652" y="425" on="0"/>
        <pt x="635" y="530" on="0"/>
        <pt x="587" y="606" on="0"/>
        <pt x="512" y="650" on="0"/>
        <pt x="461" y="650" on="1"/>
        <pt x="410" y="650" on="0"/>
        <pt x="324" y="606" on="0"/>
        <pt x="258" y="530" on="0"/>
        <pt x="214" y="425" on="0"/>
        <pt x="207" y="364" on="1"/>
        <pt x="200" y="305" on="0"/>
        <pt x="218" y="200" on="0"/>
        <pt x="265" y="122" on="0"/>
        <pt x="341" y="77" on="0"/>
        <pt x="391" y="77" on="1"/>
        <pt x="442" y="77" on="0"/>
        <pt x="528" y="122" on="0"/>
        <pt x="595" y="200" on="0"/>
        <pt x="638" y="305" on="0"/>
      </contour>
      <contour>
        <pt x="778" y="364" on="1"/>
        <pt x="768" y="280" on="0"/>
        <pt x="697" y="141" on="0"/>
        <pt x="590" y="41" on="0"/>
        <pt x="455" y="-14" on="0"/>
        <pt x="380" y="-14" on="1"/>
        <pt x="301" y="-14" on="0"/>
        <pt x="177" y="40" on="0"/>
        <pt x="96" y="139" on="0"/>
        <pt x="62" y="279" on="0"/>
        <pt x="73" y="364" on="1"/>
        <pt x="83" y="448" on="0"/>
        <pt x="153" y="587" on="0"/>
        <pt x="259" y="687" on="0"/>
        <pt x="396" y="742" on="0"/>
        <pt x="473" y="742" on="1"/>
        <pt x="552" y="742" on="0"/>
        <pt x="675" y="687" on="0"/>
        <pt x="755" y="588" on="0"/>
        <pt x="788" y="449" on="0"/>
      </contour>
    </TTGlyph>
    <TTGlyph name="Ograve" xMin="63" yMin="-14" xMax="789" yMax="890">
      <contour>
        <pt x="388" y="802" on="1"/>
        <pt x="334" y="890" on="1"/>
        <pt x="452" y="890" on="1"/>
        <pt x="510" y="765" on="1"/>
        <pt x="497" y="762" on="0"/>
        <pt x="462" y="762" on="0"/>
        <pt x="428" y="769" on="0"/>
        <pt x="397" y="787" on="0"/>
      </contour>
      <contour>
        <pt x="646" y="364" on="1"/>
        <pt x="653" y="425" on="0"/>
        <pt x="636" y="530" on="0"/>
        <pt x="588" y="606" on="0"/>
        <pt x="512" y="650" on="0"/>
        <pt x="462" y="650" on="1"/>
        <pt x="411" y="650" on="0"/>
        <pt x="325" y="606" on="0"/>
        <pt x="258" y="530" on="0"/>
        <pt x="214" y="425" on="0"/>
        <pt x="207" y="364" on="1"/>
        <pt x="200" y="305" on="0"/>
        <pt x="218" y="200" on="0"/>
        <pt x="266" y="122" on="0"/>
        <pt x="341" y="77" on="0"/>
        <pt x="392" y="77" on="1"/>
        <pt x="442" y="77" on="0"/>
        <pt x="529" y="122" on="0"/>
        <pt x="595" y="200" on="0"/>
        <pt x="639" y="305" on="0"/>
      </contour>
      <contour>
        <pt x="779" y="364" on="1"/>
        <pt x="769" y="280" on="0"/>
        <pt x="698" y="141" on="0"/>
        <pt x="591" y="41" on="0"/>
        <pt x="456" y="-14" on="0"/>
        <pt x="381" y="-14" on="1"/>
        <pt x="301" y="-14" on="0"/>
        <pt x="178" y="40" on="0"/>
        <pt x="97" y="139" on="0"/>
        <pt x="63" y="279" on="0"/>
        <pt x="74" y="364" on="1"/>
        <pt x="84" y="448" on="0"/>
        <pt x="154" y="587" on="0"/>
        <pt x="260" y="687" on="0"/>
        <pt x="397" y="742" on="0"/>
        <pt x="474" y="742" on="1"/>
        <pt x="553" y="742" on="0"/>
        <pt x="676" y="687" on="0"/>
        <pt x="756" y="588" on="0"/>
        <pt x="789" y="449" on="0"/>
      </contour>
    </TTGlyph>
    <TTGlyph name="Oslash" xMin="61" yMin="-60" xMax="790" yMax="789">
      <contour>
        <pt x="647" y="364" on="1"/>
        <pt x="655" y="423" on="0"/>
        <pt x="637" y="523" on="0"/>
        <pt x="615" y="561" on="1"/>
        <pt x="315" y="140" on="1"/>
        <pt x="306" y="153" on="0"/>
        <pt x="291" y="184" on="0"/>
        <pt x="285" y="218" on="0"/>
        <pt x="291" y="255" on="0"/>
        <pt x="303" y="274" on="1"/>
        <pt x="556" y="625" on="1"/>
        <pt x="516" y="651" on="0"/>
        <pt x="461" y="651" on="1"/>
        <pt x="410" y="651" on="0"/>
        <pt x="323" y="607" on="0"/>
        <pt x="256" y="530" on="0"/>
        <pt x="212" y="425" on="0"/>
        <pt x="205" y="364" on="1"/>
        <pt x="198" y="305" on="0"/>
        <pt x="217" y="200" on="0"/>
        <pt x="265" y="122" on="0"/>
        <pt x="341" y="77" on="0"/>
        <pt x="391" y="77" on="1"/>
        <pt x="442" y="77" on="0"/>
        <pt x="529" y="122" on="0"/>
        <pt x="596" y="200" on="0"/>
        <pt x="640" y="305" on="0"/>
      </contour>
      <contour>
        <pt x="777" y="789" on="1"/>
        <pt x="689" y="665" on="1"/>
        <pt x="743" y="615" on="0"/>
        <pt x="790" y="461" on="0"/>
        <pt x="778" y="364" on="1"/>
        <pt x="768" y="280" on="0"/>
        <pt x="697" y="141" on="0"/>
        <pt x="590" y="41" on="0"/>
        <pt x="455" y="-14" on="0"/>
        <pt x="380" y="-14" on="1"/>
        <pt x="338" y="-14" on="0"/>
        <pt x="265" y="2" on="0"/>
        <pt x="233" y="16" on="1"/>
        <pt x="180" y="-60" on="1"/>
        <pt x="77" y="-60" on="1"/>
        <pt x="164" y="62" on="1"/>
        <pt x="109" y="112" on="0"/>
        <pt x="61" y="265" on="0"/>
        <pt x="73" y="364" on="1"/>
        <pt x="83" y="448" on="0"/>
        <pt x="153" y="587" on="0"/>
        <pt x="259" y="687" on="0"/>
        <pt x="396" y="742" on="0"/>
        <pt x="473" y="742" on="1"/>
        <pt x="553" y="742" on="0"/>
        <pt x="618" y="711" on="1"/>
        <pt x="674" y="789" on="1"/>
      </contour>
    </TTGlyph>
    <TTGlyph name="Otilde" xMin="62" yMin="-14" xMax="788" yMax="897">
      <contour>
        <pt x="394" y="777" on="1"/>
        <pt x="328" y="783" on="1"/>
        <pt x="332" y="810" on="0"/>
        <pt x="354" y="853" on="0"/>
        <pt x="384" y="882" on="0"/>
        <pt x="419" y="897" on="0"/>
        <pt x="437" y="897" on="1"/>
        <pt x="459" y="897" on="0"/>
        <pt x="489" y="880" on="0"/>
        <pt x="513" y="860" on="0"/>
        <pt x="535" y="843" on="0"/>
        <pt x="548" y="843" on="1"/>
        <pt x="562" y="843" on="0"/>
        <pt x="580" y="870" on="0"/>
        <pt x="585" y="893" on="1"/>
        <pt x="650" y="887" on="1"/>
        <pt x="645" y="856" on="0"/>
        <pt x="622" y="812" on="0"/>
        <pt x="592" y="785" on="0"/>
        <pt x="560" y="773" on="0"/>
        <pt x="545" y="773" on="1"/>
        <pt x="521" y="773" on="0"/>
        <pt x="490" y="790" on="0"/>
        <pt x="467" y="810" on="0"/>
        <pt x="448" y="827" on="0"/>
        <pt x="435" y="827" on="1"/>
        <pt x="424" y="827" on="0"/>
        <pt x="399" y="805" on="0"/>
      </contour>
      <contour>
        <pt x="645" y="364" on="1"/>
        <pt x="652" y="425" on="0"/>
        <pt x="635" y="530" on="0"/>
        <pt x="587" y="606" on="0"/>
        <pt x="512" y="650" on="0"/>
        <pt x="461" y="650" on="1"/>
        <pt x="410" y="650" on="0"/>
        <pt x="324" y="606" on="0"/>
        <pt x="258" y="530" on="0"/>
        <pt x="214" y="425" on="0"/>
        <pt x="207" y="364" on="1"/>
        <pt x="200" y="305" on="0"/>
        <pt x="218" y="200" on="0"/>
        <pt x="265" y="122" on="0"/>
        <pt x="341" y="77" on="0"/>
        <pt x="391" y="77" on="1"/>
        <pt x="442" y="77" on="0"/>
        <pt x="528" y="122" on="0"/>
        <pt x="595" y="200" on="0"/>
        <pt x="638" y="305" on="0"/>
      </contour>
      <contour>
        <pt x="778" y="364" on="1"/>
        <pt x="768" y="280" on="0"/>
        <pt x="697" y="141" on="0"/>
        <pt x="590" y="41" on="0"/>
        <pt x="455" y="-14" on="0"/>
        <pt x="380" y="-14" on="1"/>
        <pt x="301" y="-14" on="0"/>
        <pt x="177" y="40" on="0"/>
        <pt x="96" y="139" on="0"/>
        <pt x="62" y="279" on="0"/>
        <pt x="73" y="364" on="1"/>
        <pt x="83" y="448" on="0"/>
        <pt x="153" y="587" on="0"/>
        <pt x="259" y="687" on="0"/>
        <pt x="396" y="742" on="0"/>
        <pt x="473" y="742" on="1"/>
        <pt x="552" y="742" on="0"/>
        <pt x="675" y="687" on="0"/>
        <pt x="755" y="588" on="0"/>
        <pt x="788" y="449" on="0"/>
      </contour>
    </TTGlyph>
    <TTGlyph name="P" xMin="85" yMin="0" xMax="651" yMax="741">
      <contour>
        <pt x="645" y="516" on="1"/>
        <pt x="639" y="467" on="0"/>
        <pt x="590" y="389" on="0"/>
        <pt x="519" y="332" on="0"/>
        <pt x="431" y="299" on="0"/>
        <pt x="386" y="295" on="1"/>
        <pt x="363" y="293" on="0"/>
        <pt x="312" y="296" on="0"/>
        <pt x="286" y="304" on="1"/>
        <pt x="293" y="317" on="0"/>
        <pt x="313" y="345" on="0"/>
        <pt x="337" y="367" on="0"/>
        <pt x="366" y="382" on="0"/>
        <pt x="383" y="383" on="1"/>
        <pt x="405" y="384" on="0"/>
        <pt x="450" y="405" on="0"/>
        <pt x="487" y="441" on="0"/>
        <pt x="513" y="489" on="0"/>
        <pt x="516" y="516" on="1"/>
        <pt x="519" y="544" on="0"/>
        <pt x="503" y="592" on="0"/>
        <pt x="468" y="628" on="0"/>
        <pt x="416" y="649" on="0"/>
        <pt x="384" y="649" on="1"/>
        <pt x="356" y="649" on="0"/>
        <pt x="317" y="646" on="0"/>
        <pt x="289" y="643" on="1"/>
        <pt x="211" y="0" on="1"/>
        <pt x="85" y="1" on="1"/>
        <pt x="173" y="719" on="1"/>
        <pt x="210" y="725" on="0"/>
        <pt x="268" y="734" on="0"/>
        <pt x="319" y="739" on="0"/>
        <pt x="368" y="741" on="0"/>
        <pt x="395" y="741" on="1"/>
        <pt x="455" y="741" on="0"/>
        <pt x="553" y="708" on="0"/>
        <pt x="620" y="649" on="0"/>
        <pt x="651" y="566" on="0"/>
      </contour>
    </TTGlyph>
    <TTGlyph name="Q" xMin="81" yMin="-21" xMax="805" yMax="742">
      <contour>
        <pt x="675" y="115" on="1"/>
        <pt x="733" y="46" on="1"/>
        <pt x="657" y="-21" on="1"/>
        <pt x="441" y="231" on="1"/>
        <pt x="517" y="298" on="1"/>
        <pt x="593" y="208" on="1"/>
        <pt x="604" y="188" on="1"/>
        <pt x="614" y="213" on="1"/>
        <pt x="634" y="248" on="0"/>
        <pt x="657" y="326" on="0"/>
        <pt x="662" y="364" on="1"/>
        <pt x="669" y="425" on="0"/>
        <pt x="652" y="530" on="0"/>
        <pt x="604" y="606" on="0"/>
        <pt x="529" y="650" on="0"/>
        <pt x="478" y="650" on="1"/>
        <pt x="428" y="650" on="0"/>
        <pt x="341" y="606" on="0"/>
        <pt x="275" y="530" on="0"/>
        <pt x="231" y="425" on="0"/>
        <pt x="224" y="364" on="1"/>
        <pt x="217" y="305" on="0"/>
        <pt x="234" y="201" on="0"/>
        <pt x="280" y="123" on="0"/>
        <pt x="352" y="78" on="0"/>
        <pt x="400" y="78" on="1"/>
        <pt x="411" y="78" on="0"/>
        <pt x="437" y="80" on="0"/>
        <pt x="449" y="82" on="1"/>
        <pt x="480" y="84" on="0"/>
        <pt x="533" y="55" on="0"/>
        <pt x="547" y="37" on="1"/>
        <pt x="505" y="11" on="0"/>
        <pt x="426" y="-14" on="0"/>
        <pt x="389" y="-14" on="1"/>
        <pt x="312" y="-14" on="0"/>
        <pt x="192" y="41" on="0"/>
        <pt x="114" y="141" on="0"/>
        <pt x="81" y="280" on="0"/>
        <pt x="91" y="364" on="1"/>
        <pt x="101" y="448" on="0"/>
        <pt x="171" y="587" on="0"/>
        <pt x="277" y="687" on="0"/>
        <pt x="413" y="742" on="0"/>
        <pt x="490" y="742" on="1"/>
        <pt x="569" y="742" on="0"/>
        <pt x="693" y="687" on="0"/>
        <pt x="772" y="588" on="0"/>
        <pt x="805" y="449" on="0"/>
        <pt x="795" y="364" on="1"/>
        <pt x="787" y="295" on="0"/>
        <pt x="725" y="172" on="0"/>
      </contour>
    </TTGlyph>
    <TTGlyph name="R" xMin="85" yMin="0" xMax="651" yMax="741">
      <contour>
        <pt x="645" y="521" on="1"/>
        <pt x="638" y="461" on="0"/>
        <pt x="569" y="372" on="0"/>
        <pt x="518" y="345" on="1"/>
        <pt x="490" y="335" on="1"/>
        <pt x="529" y="313" on="0"/>
        <pt x="564" y="242" on="0"/>
        <pt x="582" y="154" on="0"/>
        <pt x="595" y="52" on="0"/>
        <pt x="612" y="0" on="1"/>
        <pt x="483" y="0" on="1"/>
        <pt x="469" y="40" on="0"/>
        <pt x="458" y="131" on="0"/>
        <pt x="444" y="216" on="0"/>
        <pt x="416" y="286" on="0"/>
        <pt x="386" y="305" on="1"/>
        <pt x="371" y="303" on="0"/>
        <pt x="354" y="305" on="1"/>
        <pt x="338" y="305" on="0"/>
        <pt x="304" y="309" on="0"/>
        <pt x="287" y="314" on="1"/>
        <pt x="294" y="327" on="0"/>
        <pt x="314" y="355" on="0"/>
        <pt x="338" y="378" on="0"/>
        <pt x="367" y="393" on="0"/>
        <pt x="384" y="394" on="1"/>
        <pt x="406" y="395" on="0"/>
        <pt x="451" y="416" on="0"/>
        <pt x="488" y="449" on="0"/>
        <pt x="513" y="494" on="0"/>
        <pt x="516" y="521" on="1"/>
        <pt x="519" y="548" on="0"/>
        <pt x="502" y="595" on="0"/>
        <pt x="466" y="630" on="0"/>
        <pt x="415" y="649" on="0"/>
        <pt x="384" y="649" on="1"/>
        <pt x="370" y="649" on="0"/>
        <pt x="348" y="648" on="0"/>
        <pt x="327" y="647" on="0"/>
        <pt x="304" y="644" on="0"/>
        <pt x="289" y="642" on="1"/>
        <pt x="211" y="0" on="1"/>
        <pt x="85" y="0" on="1"/>
        <pt x="173" y="718" on="1"/>
        <pt x="210" y="724" on="0"/>
        <pt x="268" y="733" on="0"/>
        <pt x="319" y="739" on="0"/>
        <pt x="368" y="741" on="0"/>
        <pt x="395" y="741" on="1"/>
        <pt x="454" y="741" on="0"/>
        <pt x="552" y="709" on="0"/>
        <pt x="619" y="652" on="0"/>
        <pt x="651" y="570" on="0"/>
      </contour>
    </TTGlyph>
    <TTGlyph name="S" xMin="58" yMin="-13" xMax="553" yMax="740">
      <contour>
        <pt x="365" y="650" on="1"/>
        <pt x="315" y="650" on="0"/>
        <pt x="254" y="599" on="0"/>
        <pt x="249" y="561" on="1"/>
        <pt x="245" y="525" on="0"/>
        <pt x="289" y="473" on="0"/>
        <pt x="359" y="428" on="0"/>
        <pt x="441" y="382" on="0"/>
        <pt x="510" y="323" on="0"/>
        <pt x="550" y="242" on="0"/>
        <pt x="543" y="185" on="1"/>
        <pt x="538" y="141" on="0"/>
        <pt x="494" y="68" on="0"/>
        <pt x="423" y="16" on="0"/>
        <pt x="328" y="-13" on="0"/>
        <pt x="271" y="-13" on="1"/>
        <pt x="228" y="-13" on="0"/>
        <pt x="117" y="10" on="0"/>
        <pt x="58" y="39" on="1"/>
        <pt x="101" y="121" on="1"/>
        <pt x="150" y="98" on="0"/>
        <pt x="240" y="79" on="0"/>
        <pt x="277" y="79" on="1"/>
        <pt x="307" y="79" on="0"/>
        <pt x="358" y="95" on="0"/>
        <pt x="397" y="124" on="0"/>
        <pt x="420" y="162" on="0"/>
        <pt x="423" y="184" on="1"/>
        <pt x="428" y="223" on="0"/>
        <pt x="384" y="277" on="0"/>
        <pt x="315" y="322" on="0"/>
        <pt x="232" y="365" on="0"/>
        <pt x="164" y="422" on="0"/>
        <pt x="123" y="498" on="0"/>
        <pt x="130" y="553" on="1"/>
        <pt x="136" y="598" on="0"/>
        <pt x="177" y="668" on="0"/>
        <pt x="241" y="715" on="0"/>
        <pt x="322" y="740" on="0"/>
        <pt x="367" y="740" on="1"/>
        <pt x="412" y="740" on="0"/>
        <pt x="497" y="727" on="0"/>
        <pt x="553" y="708" on="1"/>
        <pt x="510" y="627" on="1"/>
        <pt x="468" y="640" on="0"/>
        <pt x="396" y="650" on="0"/>
      </contour>
    </TTGlyph>
    <TTGlyph name="Scaron" xMin="53" yMin="-13" xMax="548" yMax="893">
      <contour>
        <pt x="416" y="761" on="1"/>
        <pt x="331" y="761" on="1"/>
        <pt x="238" y="879" on="1"/>
        <pt x="308" y="893" on="1"/>
        <pt x="382" y="836" on="1"/>
        <pt x="471" y="893" on="1"/>
        <pt x="539" y="879" on="1"/>
      </contour>
      <contour>
        <pt x="360" y="650" on="1"/>
        <pt x="310" y="650" on="0"/>
        <pt x="249" y="599" on="0"/>
        <pt x="244" y="561" on="1"/>
        <pt x="240" y="525" on="0"/>
        <pt x="284" y="473" on="0"/>
        <pt x="354" y="428" on="0"/>
        <pt x="436" y="382" on="0"/>
        <pt x="505" y="323" on="0"/>
        <pt x="545" y="242" on="0"/>
        <pt x="538" y="185" on="1"/>
        <pt x="533" y="141" on="0"/>
        <pt x="489" y="68" on="0"/>
        <pt x="418" y="16" on="0"/>
        <pt x="323" y="-13" on="0"/>
        <pt x="266" y="-13" on="1"/>
        <pt x="223" y="-13" on="0"/>
        <pt x="112" y="10" on="0"/>
        <pt x="53" y="39" on="1"/>
        <pt x="97" y="121" on="1"/>
        <pt x="145" y="98" on="0"/>
        <pt x="235" y="79" on="0"/>
        <pt x="272" y="79" on="1"/>
        <pt x="302" y="79" on="0"/>
        <pt x="353" y="95" on="0"/>
        <pt x="392" y="124" on="0"/>
        <pt x="415" y="162" on="0"/>
        <pt x="418" y="184" on="1"/>
        <pt x="423" y="223" on="0"/>
        <pt x="379" y="277" on="0"/>
        <pt x="310" y="322" on="0"/>
        <pt x="227" y="365" on="0"/>
        <pt x="159" y="422" on="0"/>
        <pt x="118" y="498" on="0"/>
        <pt x="125" y="553" on="1"/>
        <pt x="131" y="598" on="0"/>
        <pt x="172" y="668" on="0"/>
        <pt x="236" y="715" on="0"/>
        <pt x="317" y="740" on="0"/>
        <pt x="362" y="740" on="1"/>
        <pt x="407" y="740" on="0"/>
        <pt x="492" y="727" on="0"/>
        <pt x="548" y="708" on="1"/>
        <pt x="505" y="627" on="1"/>
        <pt x="463" y="640" on="0"/>
        <pt x="391" y="650" on="0"/>
      </contour>
    </TTGlyph>
    <TTGlyph name="T" xMin="85" yMin="0" xMax="618" yMax="727">
      <contour>
        <pt x="283" y="636" on="1"/>
        <pt x="85" y="636" on="1"/>
        <pt x="96" y="727" on="1"/>
        <pt x="618" y="727" on="1"/>
        <pt x="607" y="636" on="1"/>
        <pt x="408" y="636" on="1"/>
        <pt x="330" y="0" on="1"/>
        <pt x="205" y="0" on="1"/>
      </contour>
    </TTGlyph>
    <TTGlyph name="Thorn" xMin="79" yMin="0" xMax="620" yMax="727">
      <contour>
        <pt x="614" y="364" on="1"/>
        <pt x="608" y="313" on="0"/>
        <pt x="559" y="234" on="0"/>
        <pt x="487" y="177" on="0"/>
        <pt x="399" y="144" on="0"/>
        <pt x="354" y="140" on="1"/>
        <pt x="331" y="138" on="0"/>
        <pt x="280" y="141" on="0"/>
        <pt x="254" y="149" on="1"/>
        <pt x="261" y="162" on="0"/>
        <pt x="281" y="190" on="0"/>
        <pt x="305" y="212" on="0"/>
        <pt x="333" y="227" on="0"/>
        <pt x="350" y="228" on="1"/>
        <pt x="373" y="229" on="0"/>
        <pt x="418" y="251" on="0"/>
        <pt x="455" y="287" on="0"/>
        <pt x="481" y="335" on="0"/>
        <pt x="484" y="364" on="1"/>
        <pt x="488" y="393" on="0"/>
        <pt x="472" y="443" on="0"/>
        <pt x="437" y="479" on="0"/>
        <pt x="385" y="500" on="0"/>
        <pt x="353" y="500" on="1"/>
        <pt x="326" y="500" on="0"/>
        <pt x="286" y="497" on="0"/>
        <pt x="258" y="494" on="1"/>
        <pt x="198" y="0" on="1"/>
        <pt x="79" y="0" on="1"/>
        <pt x="168" y="727" on="1"/>
        <pt x="287" y="727" on="1"/>
        <pt x="270" y="588" on="1"/>
        <pt x="293" y="590" on="0"/>
        <pt x="338" y="592" on="0"/>
        <pt x="364" y="592" on="1"/>
        <pt x="425" y="592" on="0"/>
        <pt x="523" y="559" on="0"/>
        <pt x="589" y="499" on="0"/>
        <pt x="620" y="415" on="0"/>
      </contour>
    </TTGlyph>
    <TTGlyph name="U" xMin="106" yMin="-14" xMax="735" yMax="727">
      <contour>
        <pt x="362" y="-14" on="1"/>
        <pt x="296" y="-14" on="0"/>
        <pt x="196" y="25" on="0"/>
        <pt x="132" y="99" on="0"/>
        <pt x="106" y="206" on="0"/>
        <pt x="114" y="274" on="1"/>
        <pt x="170" y="727" on="1"/>
        <pt x="293" y="727" on="1"/>
        <pt x="235" y="259" on="1"/>
        <pt x="230" y="217" on="0"/>
        <pt x="245" y="149" on="0"/>
        <pt x="282" y="102" on="0"/>
        <pt x="338" y="77" on="0"/>
        <pt x="373" y="77" on="1"/>
        <pt x="408" y="77" on="0"/>
        <pt x="469" y="102" on="0"/>
        <pt x="517" y="149" on="0"/>
        <pt x="549" y="217" on="0"/>
        <pt x="554" y="259" on="1"/>
        <pt x="612" y="727" on="1"/>
        <pt x="735" y="727" on="1"/>
        <pt x="679" y="274" on="1"/>
        <pt x="671" y="209" on="0"/>
        <pt x="618" y="102" on="0"/>
        <pt x="535" y="27" on="0"/>
        <pt x="426" y="-14" on="0"/>
      </contour>
    </TTGlyph>
    <TTGlyph name="Uacute" xMin="89" yMin="-14" xMax="718" yMax="890">
      <contour>
        <pt x="611" y="890" on="1"/>
        <pt x="522" y="802" on="1"/>
        <pt x="507" y="787" on="0"/>
        <pt x="471" y="770" on="0"/>
        <pt x="434" y="762" on="0"/>
        <pt x="401" y="762" on="0"/>
        <pt x="389" y="765" on="1"/>
        <pt x="492" y="890" on="1"/>
      </contour>
      <contour>
        <pt x="345" y="-14" on="1"/>
        <pt x="279" y="-14" on="0"/>
        <pt x="179" y="25" on="0"/>
        <pt x="115" y="99" on="0"/>
        <pt x="89" y="206" on="0"/>
        <pt x="97" y="274" on="1"/>
        <pt x="153" y="727" on="1"/>
        <pt x="277" y="727" on="1"/>
        <pt x="219" y="259" on="1"/>
        <pt x="214" y="217" on="0"/>
        <pt x="229" y="149" on="0"/>
        <pt x="265" y="102" on="0"/>
        <pt x="321" y="77" on="0"/>
        <pt x="356" y="77" on="1"/>
        <pt x="391" y="77" on="0"/>
        <pt x="452" y="102" on="0"/>
        <pt x="500" y="149" on="0"/>
        <pt x="532" y="217" on="0"/>
        <pt x="537" y="259" on="1"/>
        <pt x="595" y="727" on="1"/>
        <pt x="718" y="727" on="1"/>
        <pt x="662" y="274" on="1"/>
        <pt x="654" y="209" on="0"/>
        <pt x="601" y="102" on="0"/>
        <pt x="518" y="27" on="0"/>
        <pt x="409" y="-14" on="0"/>
      </contour>
    </TTGlyph>
    <TTGlyph name="Ucircumflex" xMin="89" yMin="-14" xMax="718" yMax="890">
      <contour>
        <pt x="413" y="890" on="1"/>
        <pt x="498" y="890" on="1"/>
        <pt x="592" y="772" on="1"/>
        <pt x="521" y="758" on="1"/>
        <pt x="446" y="815" on="1"/>
        <pt x="358" y="758" on="1"/>
        <pt x="291" y="772" on="1"/>
      </contour>
      <contour>
        <pt x="345" y="-14" on="1"/>
        <pt x="279" y="-14" on="0"/>
        <pt x="179" y="25" on="0"/>
        <pt x="115" y="99" on="0"/>
        <pt x="89" y="206" on="0"/>
        <pt x="97" y="274" on="1"/>
        <pt x="153" y="727" on="1"/>
        <pt x="277" y="727" on="1"/>
        <pt x="219" y="259" on="1"/>
        <pt x="214" y="217" on="0"/>
        <pt x="229" y="149" on="0"/>
        <pt x="265" y="102" on="0"/>
        <pt x="321" y="77" on="0"/>
        <pt x="356" y="77" on="1"/>
        <pt x="391" y="77" on="0"/>
        <pt x="452" y="102" on="0"/>
        <pt x="500" y="149" on="0"/>
        <pt x="532" y="217" on="0"/>
        <pt x="537" y="259" on="1"/>
        <pt x="595" y="727" on="1"/>
        <pt x="718" y="727" on="1"/>
        <pt x="662" y="274" on="1"/>
        <pt x="654" y="209" on="0"/>
        <pt x="601" y="102" on="0"/>
        <pt x="518" y="27" on="0"/>
        <pt x="409" y="-14" on="0"/>
      </contour>
    </TTGlyph>
    <TTGlyph name="Udieresis" xMin="89" yMin="-14" xMax="717" yMax="899">
      <contour>
        <pt x="489" y="840" on="1"/>
        <pt x="492" y="865" on="0"/>
        <pt x="531" y="899" on="0"/>
        <pt x="555" y="899" on="1"/>
        <pt x="579" y="899" on="0"/>
        <pt x="610" y="865" on="0"/>
        <pt x="607" y="840" on="1"/>
        <pt x="604" y="815" on="0"/>
        <pt x="564" y="781" on="0"/>
        <pt x="540" y="781" on="1"/>
        <pt x="516" y="781" on="0"/>
        <pt x="486" y="815" on="0"/>
      </contour>
      <contour>
        <pt x="294" y="840" on="1"/>
        <pt x="297" y="865" on="0"/>
        <pt x="336" y="899" on="0"/>
        <pt x="360" y="899" on="1"/>
        <pt x="385" y="899" on="0"/>
        <pt x="416" y="865" on="0"/>
        <pt x="413" y="840" on="1"/>
        <pt x="410" y="815" on="0"/>
        <pt x="370" y="781" on="0"/>
        <pt x="345" y="781" on="1"/>
        <pt x="321" y="781" on="0"/>
        <pt x="291" y="815" on="0"/>
      </contour>
      <contour>
        <pt x="344" y="-14" on="1"/>
        <pt x="278" y="-14" on="0"/>
        <pt x="179" y="25" on="0"/>
        <pt x="115" y="99" on="0"/>
        <pt x="89" y="206" on="0"/>
        <pt x="97" y="274" on="1"/>
        <pt x="153" y="727" on="1"/>
        <pt x="276" y="727" on="1"/>
        <pt x="218" y="259" on="1"/>
        <pt x="213" y="217" on="0"/>
        <pt x="228" y="149" on="0"/>
        <pt x="265" y="102" on="0"/>
        <pt x="320" y="77" on="0"/>
        <pt x="355" y="77" on="1"/>
        <pt x="390" y="77" on="0"/>
        <pt x="452" y="102" on="0"/>
        <pt x="500" y="149" on="0"/>
        <pt x="532" y="217" on="0"/>
        <pt x="537" y="259" on="1"/>
        <pt x="595" y="727" on="1"/>
        <pt x="717" y="727" on="1"/>
        <pt x="661" y="274" on="1"/>
        <pt x="653" y="209" on="0"/>
        <pt x="600" y="102" on="0"/>
        <pt x="518" y="27" on="0"/>
        <pt x="408" y="-14" on="0"/>
      </contour>
    </TTGlyph>
    <TTGlyph name="Ugrave" xMin="90" yMin="-14" xMax="719" yMax="890">
      <contour>
        <pt x="372" y="802" on="1"/>
        <pt x="317" y="890" on="1"/>
        <pt x="436" y="890" on="1"/>
        <pt x="494" y="765" on="1"/>
        <pt x="481" y="762" on="0"/>
        <pt x="446" y="762" on="0"/>
        <pt x="412" y="769" on="0"/>
        <pt x="381" y="787" on="0"/>
      </contour>
      <contour>
        <pt x="346" y="-14" on="1"/>
        <pt x="280" y="-14" on="0"/>
        <pt x="180" y="25" on="0"/>
        <pt x="116" y="99" on="0"/>
        <pt x="90" y="206" on="0"/>
        <pt x="98" y="274" on="1"/>
        <pt x="154" y="727" on="1"/>
        <pt x="277" y="727" on="1"/>
        <pt x="219" y="259" on="1"/>
        <pt x="214" y="217" on="0"/>
        <pt x="229" y="149" on="0"/>
        <pt x="266" y="102" on="0"/>
        <pt x="322" y="77" on="0"/>
        <pt x="357" y="77" on="1"/>
        <pt x="392" y="77" on="0"/>
        <pt x="453" y="102" on="0"/>
        <pt x="501" y="149" on="0"/>
        <pt x="533" y="217" on="0"/>
        <pt x="538" y="259" on="1"/>
        <pt x="596" y="727" on="1"/>
        <pt x="719" y="727" on="1"/>
        <pt x="663" y="274" on="1"/>
        <pt x="655" y="209" on="0"/>
        <pt x="602" y="102" on="0"/>
        <pt x="519" y="27" on="0"/>
        <pt x="410" y="-14" on="0"/>
      </contour>
    </TTGlyph>
    <TTGlyph name="V" xMin="99" yMin="0" xMax="736" yMax="727">
      <contour>
        <pt x="394" y="0" on="1"/>
        <pt x="265" y="0" on="1"/>
        <pt x="99" y="727" on="1"/>
        <pt x="232" y="727" on="1"/>
        <pt x="343" y="158" on="1"/>
        <pt x="345" y="122" on="1"/>
        <pt x="357" y="157" on="1"/>
        <pt x="607" y="727" on="1"/>
        <pt x="736" y="727" on="1"/>
      </contour>
    </TTGlyph>
    <TTGlyph name="W" xMin="116" yMin="0" xMax="1088" yMax="727">
      <contour>
        <pt x="536" y="717" on="1"/>
        <pt x="673" y="717" on="1"/>
        <pt x="742" y="172" on="1"/>
        <pt x="745" y="119" on="1"/>
        <pt x="760" y="170" on="1"/>
        <pt x="968" y="727" on="1"/>
        <pt x="1088" y="727" on="1"/>
        <pt x="798" y="0" on="1"/>
        <pt x="668" y="0" on="1"/>
        <pt x="590" y="547" on="1"/>
        <pt x="587" y="588" on="1"/>
        <pt x="574" y="548" on="1"/>
        <pt x="363" y="0" on="1"/>
        <pt x="229" y="0" on="1"/>
        <pt x="116" y="727" on="1"/>
        <pt x="239" y="727" on="1"/>
        <pt x="311" y="172" on="1"/>
        <pt x="312" y="119" on="1"/>
        <pt x="330" y="172" on="1"/>
      </contour>
    </TTGlyph>
    <TTGlyph name="X" xMin="31" yMin="0" xMax="692" yMax="727">
      <contour>
        <pt x="279" y="170" on="1"/>
        <pt x="165" y="0" on="1"/>
        <pt x="31" y="0" on="1"/>
        <pt x="270" y="327" on="1"/>
        <pt x="277" y="315" on="0"/>
        <pt x="293" y="277" on="0"/>
        <pt x="299" y="235" on="0"/>
        <pt x="293" y="190" on="0"/>
      </contour>
      <contour>
        <pt x="478" y="0" on="1"/>
        <pt x="132" y="727" on="1"/>
        <pt x="272" y="727" on="1"/>
        <pt x="373" y="478" on="1"/>
        <pt x="380" y="449" on="1"/>
        <pt x="391" y="478" on="1"/>
        <pt x="554" y="727" on="1"/>
        <pt x="692" y="727" on="1"/>
        <pt x="433" y="371" on="1"/>
        <pt x="615" y="0" on="1"/>
      </contour>
    </TTGlyph>
    <TTGlyph name="Y" xMin="115" yMin="0" xMax="728" yMax="727">
      <contour>
        <pt x="463" y="536" on="1"/>
        <pt x="593" y="727" on="1"/>
        <pt x="728" y="727" on="1"/>
        <pt x="473" y="377" on="1"/>
        <pt x="465" y="389" on="0"/>
        <pt x="449" y="426" on="0"/>
        <pt x="442" y="469" on="0"/>
        <pt x="448" y="515" on="0"/>
      </contour>
      <contour>
        <pt x="253" y="727" on="1"/>
        <pt x="438" y="338" on="1"/>
        <pt x="397" y="0" on="1"/>
        <pt x="276" y="0" on="1"/>
        <pt x="314" y="317" on="1"/>
        <pt x="115" y="727" on="1"/>
      </contour>
    </TTGlyph>
    <TTGlyph name="Yacute" xMin="103" yMin="0" xMax="716" yMax="890">
      <contour>
        <pt x="607" y="890" on="1"/>
        <pt x="518" y="802" on="1"/>
        <pt x="503" y="787" on="0"/>
        <pt x="467" y="770" on="0"/>
        <pt x="430" y="762" on="0"/>
        <pt x="397" y="762" on="0"/>
        <pt x="385" y="765" on="1"/>
        <pt x="488" y="890" on="1"/>
      </contour>
      <contour>
        <pt x="450" y="536" on="1"/>
        <pt x="580" y="727" on="1"/>
        <pt x="716" y="727" on="1"/>
        <pt x="460" y="377" on="1"/>
        <pt x="452" y="389" on="0"/>
        <pt x="436" y="426" on="0"/>
        <pt x="429" y="469" on="0"/>
        <pt x="436" y="515" on="0"/>
      </contour>
      <contour>
        <pt x="241" y="727" on="1"/>
        <pt x="426" y="338" on="1"/>
        <pt x="385" y="0" on="1"/>
        <pt x="264" y="0" on="1"/>
        <pt x="302" y="317" on="1"/>
        <pt x="103" y="727" on="1"/>
      </contour>
    </TTGlyph>
    <TTGlyph name="Ydieresis" xMin="101" yMin="0" xMax="715" yMax="899">
      <contour>
        <pt x="465" y="840" on="1"/>
        <pt x="468" y="865" on="0"/>
        <pt x="507" y="899" on="0"/>
        <pt x="531" y="899" on="1"/>
        <pt x="556" y="899" on="0"/>
        <pt x="587" y="865" on="0"/>
        <pt x="584" y="840" on="1"/>
        <pt x="581" y="815" on="0"/>
        <pt x="541" y="781" on="0"/>
        <pt x="516" y="781" on="1"/>
        <pt x="492" y="781" on="0"/>
        <pt x="462" y="815" on="0"/>
      </contour>
      <contour>
        <pt x="271" y="840" on="1"/>
        <pt x="274" y="865" on="0"/>
        <pt x="313" y="899" on="0"/>
        <pt x="336" y="899" on="1"/>
        <pt x="361" y="899" on="0"/>
        <pt x="392" y="865" on="0"/>
        <pt x="389" y="840" on="1"/>
        <pt x="386" y="815" on="0"/>
        <pt x="346" y="781" on="0"/>
        <pt x="321" y="781" on="1"/>
        <pt x="298" y="781" on="0"/>
        <pt x="268" y="815" on="0"/>
      </contour>
      <contour>
        <pt x="449" y="536" on="1"/>
        <pt x="579" y="727" on="1"/>
        <pt x="715" y="727" on="1"/>
        <pt x="459" y="377" on="1"/>
        <pt x="451" y="389" on="0"/>
        <pt x="435" y="426" on="0"/>
        <pt x="428" y="469" on="0"/>
        <pt x="435" y="515" on="0"/>
      </contour>
      <contour>
        <pt x="239" y="727" on="1"/>
        <pt x="425" y="338" on="1"/>
        <pt x="384" y="0" on="1"/>
        <pt x="263" y="0" on="1"/>
        <pt x="301" y="317" on="1"/>
        <pt x="101" y="727" on="1"/>
      </contour>
    </TTGlyph>
    <TTGlyph name="Z" xMin="61" yMin="0" xMax="678" yMax="727">
      <contour>
        <pt x="175" y="637" on="1"/>
        <pt x="186" y="727" on="1"/>
        <pt x="678" y="727" on="1"/>
        <pt x="672" y="676" on="1"/>
        <pt x="234" y="103" on="1"/>
        <pt x="216" y="88" on="1"/>
        <pt x="240" y="91" on="1"/>
        <pt x="610" y="91" on="1"/>
        <pt x="599" y="0" on="1"/>
        <pt x="61" y="0" on="1"/>
        <pt x="67" y="51" on="1"/>
        <pt x="504" y="623" on="1"/>
        <pt x="522" y="640" on="1"/>
        <pt x="498" y="637" on="1"/>
      </contour>
    </TTGlyph>
    <TTGlyph name="Zcaron" xMin="78" yMin="0" xMax="694" yMax="893">
      <contour>
        <pt x="499" y="761" on="1"/>
        <pt x="414" y="761" on="1"/>
        <pt x="321" y="879" on="1"/>
        <pt x="391" y="893" on="1"/>
        <pt x="465" y="836" on="1"/>
        <pt x="554" y="893" on="1"/>
        <pt x="622" y="879" on="1"/>
      </contour>
      <contour>
        <pt x="191" y="637" on="1"/>
        <pt x="202" y="727" on="1"/>
        <pt x="694" y="727" on="1"/>
        <pt x="688" y="676" on="1"/>
        <pt x="250" y="103" on="1"/>
        <pt x="232" y="88" on="1"/>
        <pt x="256" y="91" on="1"/>
        <pt x="626" y="91" on="1"/>
        <pt x="615" y="0" on="1"/>
        <pt x="78" y="0" on="1"/>
        <pt x="84" y="51" on="1"/>
        <pt x="520" y="623" on="1"/>
        <pt x="538" y="640" on="1"/>
        <pt x="514" y="637" on="1"/>
      </contour>
    </TTGlyph>
    <TTGlyph name="a" xMin="73" yMin="-12" xMax="582" yMax="528">
      <contour>
        <pt x="544" y="187" on="1"/>
        <pt x="538" y="136" on="0"/>
        <pt x="532" y="50" on="0"/>
        <pt x="537" y="5" on="1"/>
        <pt x="444" y="0" on="1"/>
        <pt x="429" y="12" on="0"/>
        <pt x="409" y="65" on="0"/>
        <pt x="414" y="100" on="1"/>
        <pt x="454" y="428" on="1"/>
        <pt x="433" y="433" on="0"/>
        <pt x="397" y="437" on="0"/>
        <pt x="382" y="437" on="1"/>
        <pt x="310" y="437" on="0"/>
        <pt x="220" y="334" on="0"/>
        <pt x="209" y="246" on="1"/>
        <pt x="205" y="215" on="0"/>
        <pt x="209" y="155" on="0"/>
        <pt x="227" y="109" on="0"/>
        <pt x="263" y="84" on="0"/>
        <pt x="292" y="87" on="1"/>
        <pt x="319" y="90" on="0"/>
        <pt x="353" y="60" on="0"/>
        <pt x="369" y="34" on="1"/>
        <pt x="340" y="17" on="0"/>
        <pt x="283" y="-6" on="0"/>
        <pt x="259" y="-8" on="1"/>
        <pt x="212" y="-12" on="0"/>
        <pt x="139" y="28" on="0"/>
        <pt x="92" y="100" on="0"/>
        <pt x="73" y="195" on="0"/>
        <pt x="79" y="246" on="1"/>
        <pt x="86" y="306" on="0"/>
        <pt x="137" y="410" on="0"/>
        <pt x="218" y="485" on="0"/>
        <pt x="326" y="528" on="0"/>
        <pt x="390" y="528" on="1"/>
        <pt x="411" y="528" on="0"/>
        <pt x="452" y="525" on="0"/>
        <pt x="497" y="518" on="0"/>
        <pt x="550" y="506" on="0"/>
        <pt x="582" y="497" on="1"/>
      </contour>
    </TTGlyph>
    <TTGlyph name="aacute" xMin="73" yMin="-12" xMax="582" yMax="740">
      <contour>
        <pt x="544" y="187" on="1"/>
        <pt x="538" y="136" on="0"/>
        <pt x="532" y="50" on="0"/>
        <pt x="537" y="5" on="1"/>
        <pt x="444" y="0" on="1"/>
        <pt x="429" y="12" on="0"/>
        <pt x="409" y="65" on="0"/>
        <pt x="414" y="100" on="1"/>
        <pt x="454" y="428" on="1"/>
        <pt x="433" y="433" on="0"/>
        <pt x="397" y="437" on="0"/>
        <pt x="382" y="437" on="1"/>
        <pt x="310" y="437" on="0"/>
        <pt x="220" y="334" on="0"/>
        <pt x="209" y="246" on="1"/>
        <pt x="205" y="215" on="0"/>
        <pt x="209" y="155" on="0"/>
        <pt x="227" y="109" on="0"/>
        <pt x="263" y="84" on="0"/>
        <pt x="292" y="87" on="1"/>
        <pt x="319" y="90" on="0"/>
        <pt x="353" y="60" on="0"/>
        <pt x="369" y="34" on="1"/>
        <pt x="340" y="17" on="0"/>
        <pt x="283" y="-6" on="0"/>
        <pt x="259" y="-8" on="1"/>
        <pt x="212" y="-12" on="0"/>
        <pt x="139" y="28" on="0"/>
        <pt x="92" y="100" on="0"/>
        <pt x="73" y="195" on="0"/>
        <pt x="79" y="246" on="1"/>
        <pt x="86" y="306" on="0"/>
        <pt x="137" y="410" on="0"/>
        <pt x="218" y="485" on="0"/>
        <pt x="326" y="528" on="0"/>
        <pt x="390" y="528" on="1"/>
        <pt x="411" y="528" on="0"/>
        <pt x="452" y="525" on="0"/>
        <pt x="497" y="518" on="0"/>
        <pt x="550" y="506" on="0"/>
        <pt x="582" y="497" on="1"/>
      </contour>
      <contour>
        <pt x="557" y="740" on="1"/>
        <pt x="463" y="640" on="1"/>
        <pt x="448" y="624" on="0"/>
        <pt x="412" y="605" on="0"/>
        <pt x="376" y="598" on="0"/>
        <pt x="342" y="599" on="0"/>
        <pt x="330" y="602" on="1"/>
        <pt x="434" y="740" on="1"/>
      </contour>
    </TTGlyph>
    <TTGlyph name="acircumflex" xMin="73" yMin="-12" xMax="582" yMax="743">
      <contour>
        <pt x="544" y="187" on="1"/>
        <pt x="538" y="136" on="0"/>
        <pt x="532" y="50" on="0"/>
        <pt x="537" y="5" on="1"/>
        <pt x="444" y="0" on="1"/>
        <pt x="429" y="12" on="0"/>
        <pt x="409" y="65" on="0"/>
        <pt x="414" y="100" on="1"/>
        <pt x="454" y="428" on="1"/>
        <pt x="433" y="433" on="0"/>
        <pt x="397" y="437" on="0"/>
        <pt x="382" y="437" on="1"/>
        <pt x="310" y="437" on="0"/>
        <pt x="220" y="334" on="0"/>
        <pt x="209" y="246" on="1"/>
        <pt x="205" y="215" on="0"/>
        <pt x="209" y="155" on="0"/>
        <pt x="227" y="109" on="0"/>
        <pt x="263" y="84" on="0"/>
        <pt x="292" y="87" on="1"/>
        <pt x="319" y="90" on="0"/>
        <pt x="353" y="60" on="0"/>
        <pt x="369" y="34" on="1"/>
        <pt x="340" y="17" on="0"/>
        <pt x="283" y="-6" on="0"/>
        <pt x="259" y="-8" on="1"/>
        <pt x="212" y="-12" on="0"/>
        <pt x="139" y="28" on="0"/>
        <pt x="92" y="100" on="0"/>
        <pt x="73" y="195" on="0"/>
        <pt x="79" y="246" on="1"/>
        <pt x="86" y="306" on="0"/>
        <pt x="137" y="410" on="0"/>
        <pt x="218" y="485" on="0"/>
        <pt x="326" y="528" on="0"/>
        <pt x="390" y="528" on="1"/>
        <pt x="411" y="528" on="0"/>
        <pt x="452" y="525" on="0"/>
        <pt x="497" y="518" on="0"/>
        <pt x="550" y="506" on="0"/>
        <pt x="582" y="497" on="1"/>
      </contour>
      <contour>
        <pt x="377" y="743" on="1"/>
        <pt x="462" y="743" on="1"/>
        <pt x="553" y="601" on="1"/>
        <pt x="482" y="587" on="1"/>
        <pt x="409" y="664" on="1"/>
        <pt x="319" y="587" on="1"/>
        <pt x="252" y="601" on="1"/>
      </contour>
    </TTGlyph>
    <TTGlyph name="acute" xMin="132" yMin="598" xMax="360" yMax="740">
      <contour>
        <pt x="360" y="740" on="1"/>
        <pt x="265" y="640" on="1"/>
        <pt x="250" y="624" on="0"/>
        <pt x="214" y="605" on="0"/>
        <pt x="178" y="598" on="0"/>
        <pt x="144" y="599" on="0"/>
        <pt x="132" y="602" on="1"/>
        <pt x="237" y="740" on="1"/>
      </contour>
    </TTGlyph>
    <TTGlyph name="adieresis" xMin="73" yMin="-12" xMax="582" yMax="729">
      <contour>
        <pt x="544" y="187" on="1"/>
        <pt x="538" y="136" on="0"/>
        <pt x="532" y="50" on="0"/>
        <pt x="537" y="5" on="1"/>
        <pt x="444" y="0" on="1"/>
        <pt x="429" y="12" on="0"/>
        <pt x="409" y="65" on="0"/>
        <pt x="414" y="100" on="1"/>
        <pt x="454" y="428" on="1"/>
        <pt x="433" y="433" on="0"/>
        <pt x="397" y="437" on="0"/>
        <pt x="382" y="437" on="1"/>
        <pt x="310" y="437" on="0"/>
        <pt x="220" y="334" on="0"/>
        <pt x="209" y="246" on="1"/>
        <pt x="205" y="215" on="0"/>
        <pt x="209" y="155" on="0"/>
        <pt x="227" y="109" on="0"/>
        <pt x="263" y="84" on="0"/>
        <pt x="292" y="87" on="1"/>
        <pt x="319" y="90" on="0"/>
        <pt x="353" y="60" on="0"/>
        <pt x="369" y="34" on="1"/>
        <pt x="340" y="17" on="0"/>
        <pt x="283" y="-6" on="0"/>
        <pt x="259" y="-8" on="1"/>
        <pt x="212" y="-12" on="0"/>
        <pt x="139" y="28" on="0"/>
        <pt x="92" y="100" on="0"/>
        <pt x="73" y="195" on="0"/>
        <pt x="79" y="246" on="1"/>
        <pt x="86" y="306" on="0"/>
        <pt x="137" y="410" on="0"/>
        <pt x="218" y="485" on="0"/>
        <pt x="326" y="528" on="0"/>
        <pt x="390" y="528" on="1"/>
        <pt x="411" y="528" on="0"/>
        <pt x="452" y="525" on="0"/>
        <pt x="497" y="518" on="0"/>
        <pt x="550" y="506" on="0"/>
        <pt x="582" y="497" on="1"/>
      </contour>
      <contour>
        <pt x="436" y="670" on="1"/>
        <pt x="439" y="695" on="0"/>
        <pt x="478" y="729" on="0"/>
        <pt x="502" y="729" on="1"/>
        <pt x="527" y="729" on="0"/>
        <pt x="558" y="695" on="0"/>
        <pt x="555" y="670" on="1"/>
        <pt x="552" y="645" on="0"/>
        <pt x="513" y="611" on="0"/>
        <pt x="488" y="611" on="1"/>
        <pt x="464" y="611" on="0"/>
        <pt x="433" y="645" on="0"/>
      </contour>
      <contour>
        <pt x="242" y="670" on="1"/>
        <pt x="245" y="695" on="0"/>
        <pt x="284" y="729" on="0"/>
        <pt x="307" y="729" on="1"/>
        <pt x="332" y="729" on="0"/>
        <pt x="363" y="695" on="0"/>
        <pt x="360" y="670" on="1"/>
        <pt x="357" y="645" on="0"/>
        <pt x="318" y="611" on="0"/>
        <pt x="293" y="611" on="1"/>
        <pt x="270" y="611" on="0"/>
        <pt x="239" y="645" on="0"/>
      </contour>
    </TTGlyph>
    <TTGlyph name="ae" xMin="42" yMin="-12" xMax="844" yMax="529">
      <contour>
        <pt x="622" y="317" on="1"/>
        <pt x="726" y="317" on="1"/>
        <pt x="732" y="342" on="0"/>
        <pt x="727" y="387" on="0"/>
        <pt x="706" y="421" on="0"/>
        <pt x="670" y="441" on="0"/>
        <pt x="647" y="441" on="1"/>
        <pt x="622" y="441" on="0"/>
        <pt x="574" y="420" on="0"/>
        <pt x="533" y="377" on="0"/>
        <pt x="504" y="312" on="0"/>
        <pt x="498" y="268" on="1"/>
        <pt x="493" y="224" on="0"/>
        <pt x="506" y="155" on="0"/>
        <pt x="539" y="105" on="0"/>
        <pt x="590" y="79" on="0"/>
        <pt x="623" y="79" on="1"/>
        <pt x="658" y="79" on="0"/>
        <pt x="725" y="96" on="0"/>
        <pt x="771" y="116" on="1"/>
        <pt x="793" y="33" on="1"/>
        <pt x="738" y="8" on="0"/>
        <pt x="642" y="-12" on="0"/>
        <pt x="599" y="-12" on="1"/>
        <pt x="565" y="-12" on="0"/>
        <pt x="506" y="11" on="0"/>
        <pt x="460" y="49" on="0"/>
        <pt x="429" y="99" on="0"/>
        <pt x="423" y="125" on="1"/>
        <pt x="405" y="90" on="0"/>
        <pt x="355" y="39" on="0"/>
        <pt x="297" y="5" on="0"/>
        <pt x="236" y="-12" on="0"/>
        <pt x="208" y="-12" on="1"/>
        <pt x="128" y="-12" on="0"/>
        <pt x="42" y="69" on="0"/>
        <pt x="50" y="136" on="1"/>
        <pt x="54" y="170" on="0"/>
        <pt x="89" y="227" on="0"/>
        <pt x="158" y="271" on="0"/>
        <pt x="267" y="302" on="0"/>
        <pt x="346" y="309" on="1"/>
        <pt x="341" y="287" on="0"/>
        <pt x="315" y="243" on="0"/>
        <pt x="290" y="232" on="1"/>
        <pt x="262" y="216" on="0"/>
        <pt x="220" y="202" on="0"/>
        <pt x="192" y="189" on="0"/>
        <pt x="175" y="168" on="0"/>
        <pt x="172" y="146" on="1"/>
        <pt x="169" y="118" on="0"/>
        <pt x="203" y="79" on="0"/>
        <pt x="234" y="79" on="1"/>
        <pt x="291" y="79" on="0"/>
        <pt x="366" y="179" on="0"/>
        <pt x="377" y="264" on="1"/>
        <pt x="383" y="315" on="1"/>
        <pt x="390" y="370" on="0"/>
        <pt x="341" y="436" on="0"/>
        <pt x="282" y="436" on="1"/>
        <pt x="256" y="436" on="0"/>
        <pt x="200" y="426" on="0"/>
        <pt x="163" y="413" on="1"/>
        <pt x="143" y="491" on="1"/>
        <pt x="191" y="512" on="0"/>
        <pt x="280" y="528" on="0"/>
        <pt x="314" y="528" on="1"/>
        <pt x="366" y="528" on="0"/>
        <pt x="448" y="471" on="0"/>
        <pt x="468" y="420" on="1"/>
        <pt x="484" y="444" on="0"/>
        <pt x="530" y="485" on="0"/>
        <pt x="582" y="513" on="0"/>
        <pt x="638" y="529" on="0"/>
        <pt x="665" y="529" on="1"/>
        <pt x="719" y="529" on="0"/>
        <pt x="800" y="484" on="0"/>
        <pt x="844" y="406" on="0"/>
        <pt x="844" y="301" on="0"/>
        <pt x="816" y="241" on="1"/>
        <pt x="533" y="241" on="1"/>
        <pt x="547" y="273" on="0"/>
        <pt x="593" y="317" on="0"/>
      </contour>
    </TTGlyph>
    <TTGlyph name="agrave" xMin="73" yMin="-12" xMax="582" yMax="740">
      <contour>
        <pt x="544" y="187" on="1"/>
        <pt x="538" y="136" on="0"/>
        <pt x="532" y="50" on="0"/>
        <pt x="537" y="5" on="1"/>
        <pt x="444" y="0" on="1"/>
        <pt x="429" y="12" on="0"/>
        <pt x="409" y="65" on="0"/>
        <pt x="414" y="100" on="1"/>
        <pt x="454" y="428" on="1"/>
        <pt x="433" y="433" on="0"/>
        <pt x="397" y="437" on="0"/>
        <pt x="382" y="437" on="1"/>
        <pt x="310" y="437" on="0"/>
        <pt x="220" y="334" on="0"/>
        <pt x="209" y="246" on="1"/>
        <pt x="205" y="215" on="0"/>
        <pt x="209" y="155" on="0"/>
        <pt x="227" y="109" on="0"/>
        <pt x="263" y="84" on="0"/>
        <pt x="292" y="87" on="1"/>
        <pt x="319" y="90" on="0"/>
        <pt x="353" y="60" on="0"/>
        <pt x="369" y="34" on="1"/>
        <pt x="340" y="17" on="0"/>
        <pt x="283" y="-6" on="0"/>
        <pt x="259" y="-8" on="1"/>
        <pt x="212" y="-12" on="0"/>
        <pt x="139" y="28" on="0"/>
        <pt x="92" y="100" on="0"/>
        <pt x="73" y="195" on="0"/>
        <pt x="79" y="246" on="1"/>
        <pt x="86" y="306" on="0"/>
        <pt x="137" y="410" on="0"/>
        <pt x="218" y="485" on="0"/>
        <pt x="326" y="528" on="0"/>
        <pt x="390" y="528" on="1"/>
        <pt x="411" y="528" on="0"/>
        <pt x="452" y="525" on="0"/>
        <pt x="497" y="518" on="0"/>
        <pt x="550" y="506" on="0"/>
        <pt x="582" y="497" on="1"/>
      </contour>
      <contour>
        <pt x="328" y="642" on="1"/>
        <pt x="273" y="740" on="1"/>
        <pt x="392" y="740" on="1"/>
        <pt x="448" y="602" on="1"/>
        <pt x="435" y="599" on="0"/>
        <pt x="402" y="599" on="0"/>
        <pt x="369" y="608" on="0"/>
        <pt x="339" y="626" on="0"/>
      </contour>
    </TTGlyph>
    <TTGlyph name="ampersand" xMin="133" yMin="-11" xMax="729" yMax="737">
      <contour>
        <pt x="398" y="86" on="1"/>
        <pt x="434" y="92" on="0"/>
        <pt x="482" y="66" on="0"/>
        <pt x="502" y="44" on="1"/>
        <pt x="463" y="17" on="0"/>
        <pt x="382" y="-11" on="0"/>
        <pt x="333" y="-11" on="1"/>
        <pt x="282" y="-11" on="0"/>
        <pt x="205" y="23" on="0"/>
        <pt x="155" y="82" on="0"/>
        <pt x="133" y="162" on="0"/>
        <pt x="139" y="209" on="1"/>
        <pt x="143" y="243" on="0"/>
        <pt x="169" y="302" on="0"/>
        <pt x="207" y="353" on="0"/>
        <pt x="255" y="397" on="0"/>
        <pt x="282" y="415" on="1"/>
        <pt x="256" y="460" on="0"/>
        <pt x="242" y="524" on="0"/>
        <pt x="246" y="555" on="1"/>
        <pt x="251" y="597" on="0"/>
        <pt x="291" y="665" on="0"/>
        <pt x="352" y="712" on="0"/>
        <pt x="434" y="737" on="0"/>
        <pt x="481" y="737" on="1"/>
        <pt x="514" y="737" on="0"/>
        <pt x="594" y="720" on="0"/>
        <pt x="627" y="703" on="1"/>
        <pt x="590" y="622" on="1"/>
        <pt x="561" y="633" on="0"/>
        <pt x="495" y="645" on="0"/>
        <pt x="468" y="645" on="1"/>
        <pt x="424" y="645" on="0"/>
        <pt x="363" y="599" on="0"/>
        <pt x="358" y="564" on="1"/>
        <pt x="356" y="543" on="0"/>
        <pt x="364" y="507" on="0"/>
        <pt x="382" y="469" on="0"/>
        <pt x="410" y="429" on="0"/>
        <pt x="428" y="404" on="1"/>
        <pt x="560" y="219" on="1"/>
        <pt x="582" y="261" on="0"/>
        <pt x="618" y="333" on="0"/>
        <pt x="630" y="379" on="1"/>
        <pt x="729" y="379" on="1"/>
        <pt x="707" y="313" on="0"/>
        <pt x="655" y="198" on="0"/>
        <pt x="618" y="147" on="1"/>
        <pt x="726" y="0" on="1"/>
        <pt x="583" y="0" on="1"/>
        <pt x="347" y="320" on="1"/>
        <pt x="330" y="347" on="1"/>
        <pt x="305" y="318" on="0"/>
        <pt x="266" y="264" on="0"/>
        <pt x="261" y="222" on="1"/>
        <pt x="253" y="160" on="0"/>
        <pt x="302" y="81" on="0"/>
        <pt x="359" y="81" on="1"/>
        <pt x="370" y="81" on="0"/>
        <pt x="387" y="84" on="0"/>
      </contour>
    </TTGlyph>
    <TTGlyph name="aring" xMin="73" yMin="-12" xMax="582" yMax="749">
      <contour>
        <pt x="544" y="187" on="1"/>
        <pt x="538" y="136" on="0"/>
        <pt x="532" y="50" on="0"/>
        <pt x="537" y="5" on="1"/>
        <pt x="444" y="0" on="1"/>
        <pt x="429" y="12" on="0"/>
        <pt x="409" y="65" on="0"/>
        <pt x="414" y="100" on="1"/>
        <pt x="454" y="428" on="1"/>
        <pt x="433" y="433" on="0"/>
        <pt x="397" y="437" on="0"/>
        <pt x="382" y="437" on="1"/>
        <pt x="310" y="437" on="0"/>
        <pt x="220" y="334" on="0"/>
        <pt x="209" y="246" on="1"/>
        <pt x="205" y="215" on="0"/>
        <pt x="209" y="155" on="0"/>
        <pt x="227" y="109" on="0"/>
        <pt x="263" y="84" on="0"/>
        <pt x="292" y="87" on="1"/>
        <pt x="319" y="90" on="0"/>
        <pt x="353" y="60" on="0"/>
        <pt x="369" y="34" on="1"/>
        <pt x="340" y="17" on="0"/>
        <pt x="283" y="-6" on="0"/>
        <pt x="259" y="-8" on="1"/>
        <pt x="212" y="-12" on="0"/>
        <pt x="139" y="28" on="0"/>
        <pt x="92" y="100" on="0"/>
        <pt x="73" y="195" on="0"/>
        <pt x="79" y="246" on="1"/>
        <pt x="86" y="306" on="0"/>
        <pt x="137" y="410" on="0"/>
        <pt x="218" y="485" on="0"/>
        <pt x="326" y="528" on="0"/>
        <pt x="390" y="528" on="1"/>
        <pt x="411" y="528" on="0"/>
        <pt x="452" y="525" on="0"/>
        <pt x="497" y="518" on="0"/>
        <pt x="550" y="506" on="0"/>
        <pt x="582" y="497" on="1"/>
      </contour>
      <contour>
        <pt x="407" y="613" on="1"/>
        <pt x="427" y="613" on="0"/>
        <pt x="452" y="638" on="0"/>
        <pt x="454" y="657" on="1"/>
        <pt x="456" y="676" on="0"/>
        <pt x="438" y="701" on="0"/>
        <pt x="418" y="701" on="1"/>
        <pt x="400" y="701" on="0"/>
        <pt x="374" y="675" on="0"/>
        <pt x="372" y="655" on="1"/>
        <pt x="370" y="639" on="0"/>
        <pt x="388" y="613" on="0"/>
      </contour>
      <contour>
        <pt x="401" y="564" on="1"/>
        <pt x="355" y="564" on="0"/>
        <pt x="302" y="616" on="0"/>
        <pt x="307" y="655" on="1"/>
        <pt x="312" y="696" on="0"/>
        <pt x="378" y="749" on="0"/>
        <pt x="424" y="749" on="1"/>
        <pt x="471" y="749" on="0"/>
        <pt x="522" y="698" on="0"/>
        <pt x="517" y="656" on="1"/>
        <pt x="514" y="636" on="0"/>
        <pt x="494" y="602" on="0"/>
        <pt x="462" y="578" on="0"/>
        <pt x="423" y="564" on="0"/>
      </contour>
    </TTGlyph>
    <TTGlyph name="asciicircum" xMin="90" yMin="210" xMax="591" yMax="727">
      <contour>
        <pt x="377" y="557" on="1"/>
        <pt x="200" y="210" on="1"/>
        <pt x="90" y="210" on="1"/>
        <pt x="363" y="727" on="1"/>
        <pt x="446" y="727" on="1"/>
        <pt x="591" y="210" on="1"/>
        <pt x="483" y="210" on="1"/>
        <pt x="397" y="534" on="1"/>
        <pt x="395" y="539" on="0"/>
        <pt x="393" y="551" on="0"/>
        <pt x="391" y="557" on="1"/>
        <pt x="387" y="586" on="1"/>
      </contour>
    </TTGlyph>
    <TTGlyph name="asciitilde" xMin="91" yMin="222" xMax="615" yMax="391">
      <contour>
        <pt x="194" y="228" on="1"/>
        <pt x="91" y="236" on="1"/>
        <pt x="97" y="274" on="0"/>
        <pt x="130" y="331" on="0"/>
        <pt x="177" y="370" on="0"/>
        <pt x="235" y="391" on="0"/>
        <pt x="265" y="391" on="1"/>
        <pt x="299" y="391" on="0"/>
        <pt x="349" y="367" on="0"/>
        <pt x="391" y="338" on="0"/>
        <pt x="430" y="314" on="0"/>
        <pt x="454" y="314" on="1"/>
        <pt x="476" y="314" on="0"/>
        <pt x="506" y="353" on="0"/>
        <pt x="514" y="385" on="1"/>
        <pt x="615" y="377" on="1"/>
        <pt x="607" y="334" on="0"/>
        <pt x="573" y="275" on="0"/>
        <pt x="527" y="238" on="0"/>
        <pt x="474" y="222" on="0"/>
        <pt x="449" y="222" on="1"/>
        <pt x="411" y="222" on="0"/>
        <pt x="360" y="245" on="0"/>
        <pt x="319" y="274" on="0"/>
        <pt x="283" y="298" on="0"/>
        <pt x="260" y="298" on="1"/>
        <pt x="240" y="298" on="0"/>
        <pt x="202" y="265" on="0"/>
      </contour>
    </TTGlyph>
    <TTGlyph name="asterisk" xMin="112" yMin="349" xMax="522" yMax="743">
      <contour>
        <pt x="322" y="590" on="1"/>
        <pt x="400" y="743" on="1"/>
        <pt x="477" y="694" on="1"/>
        <pt x="430" y="644" on="0"/>
        <pt x="377" y="587" on="0"/>
        <pt x="358" y="568" on="1"/>
        <pt x="522" y="593" on="1"/>
        <pt x="511" y="497" on="1"/>
        <pt x="479" y="502" on="0"/>
        <pt x="431" y="509" on="0"/>
        <pt x="393" y="515" on="0"/>
        <pt x="364" y="520" on="0"/>
        <pt x="351" y="523" on="1"/>
        <pt x="439" y="397" on="1"/>
        <pt x="350" y="349" on="1"/>
        <pt x="311" y="502" on="1"/>
        <pt x="234" y="349" on="1"/>
        <pt x="157" y="397" on="1"/>
        <pt x="276" y="524" on="1"/>
        <pt x="112" y="498" on="1"/>
        <pt x="123" y="594" on="1"/>
        <pt x="280" y="569" on="1"/>
        <pt x="192" y="694" on="1"/>
        <pt x="282" y="743" on="1"/>
      </contour>
    </TTGlyph>
    <TTGlyph name="at" xMin="98" yMin="-128" xMax="871" yMax="644">
      <contour>
        <pt x="645" y="159" on="1"/>
        <pt x="643" y="153" on="0"/>
        <pt x="642" y="142" on="0"/>
        <pt x="640" y="137" on="1"/>
        <pt x="645" y="139" on="0"/>
        <pt x="652" y="146" on="0"/>
        <pt x="656" y="149" on="1"/>
        <pt x="711" y="182" on="0"/>
        <pt x="767" y="274" on="0"/>
        <pt x="773" y="322" on="1"/>
        <pt x="780" y="380" on="0"/>
        <pt x="752" y="472" on="0"/>
        <pt x="688" y="536" on="0"/>
        <pt x="591" y="570" on="0"/>
        <pt x="530" y="570" on="1"/>
        <pt x="466" y="570" on="0"/>
        <pt x="353" y="528" on="0"/>
        <pt x="266" y="449" on="0"/>
        <pt x="208" y="332" on="0"/>
        <pt x="199" y="257" on="1"/>
        <pt x="190" y="182" on="0"/>
        <pt x="219" y="67" on="0"/>
        <pt x="284" y="-13" on="0"/>
        <pt x="381" y="-54" on="0"/>
        <pt x="440" y="-54" on="1"/>
        <pt x="462" y="-54" on="0"/>
        <pt x="502" y="-52" on="0"/>
        <pt x="546" y="-46" on="0"/>
        <pt x="597" y="-34" on="0"/>
        <pt x="629" y="-24" on="1"/>
        <pt x="645" y="-93" on="1"/>
        <pt x="608" y="-104" on="0"/>
        <pt x="550" y="-118" on="0"/>
        <pt x="501" y="-126" on="0"/>
        <pt x="456" y="-128" on="0"/>
        <pt x="431" y="-128" on="1"/>
        <pt x="354" y="-128" on="0"/>
        <pt x="226" y="-83" on="0"/>
        <pt x="137" y="11" on="0"/>
        <pt x="98" y="156" on="0"/>
        <pt x="110" y="257" on="1"/>
        <pt x="122" y="350" on="0"/>
        <pt x="202" y="495" on="0"/>
        <pt x="320" y="593" on="0"/>
        <pt x="465" y="644" on="0"/>
        <pt x="541" y="644" on="1"/>
        <pt x="615" y="644" on="0"/>
        <pt x="741" y="601" on="0"/>
        <pt x="829" y="519" on="0"/>
        <pt x="871" y="399" on="0"/>
        <pt x="862" y="322" on="1"/>
        <pt x="856" y="271" on="0"/>
        <pt x="807" y="182" on="0"/>
        <pt x="731" y="112" on="0"/>
        <pt x="633" y="65" on="0"/>
        <pt x="578" y="55" on="1"/>
        <pt x="567" y="61" on="0"/>
        <pt x="559" y="82" on="0"/>
        <pt x="556" y="95" on="1"/>
        <pt x="556" y="114" on="1"/>
        <pt x="544" y="94" on="1"/>
        <pt x="511" y="65" on="0"/>
        <pt x="455" y="47" on="0"/>
        <pt x="428" y="47" on="1"/>
        <pt x="365" y="47" on="0"/>
        <pt x="301" y="107" on="0"/>
        <pt x="307" y="158" on="1"/>
        <pt x="311" y="188" on="0"/>
        <pt x="340" y="233" on="0"/>
        <pt x="395" y="266" on="0"/>
        <pt x="478" y="287" on="0"/>
        <pt x="537" y="293" on="1"/>
        <pt x="535" y="286" on="0"/>
        <pt x="526" y="264" on="0"/>
        <pt x="511" y="241" on="0"/>
        <pt x="488" y="223" on="0"/>
        <pt x="473" y="221" on="1"/>
        <pt x="429" y="215" on="0"/>
        <pt x="397" y="182" on="0"/>
        <pt x="394" y="162" on="1"/>
        <pt x="392" y="140" on="0"/>
        <pt x="422" y="113" on="0"/>
        <pt x="452" y="113" on="1"/>
        <pt x="478" y="113" on="0"/>
        <pt x="533" y="138" on="0"/>
        <pt x="560" y="169" on="1"/>
        <pt x="577" y="305" on="1"/>
        <pt x="587" y="396" on="0"/>
        <pt x="494" y="396" on="1"/>
        <pt x="473" y="396" on="0"/>
        <pt x="428" y="389" on="0"/>
        <pt x="396" y="378" on="1"/>
        <pt x="379" y="439" on="1"/>
        <pt x="421" y="455" on="0"/>
        <pt x="485" y="466" on="0"/>
        <pt x="517" y="466" on="1"/>
        <pt x="596" y="466" on="0"/>
        <pt x="672" y="381" on="0"/>
        <pt x="661" y="300" on="1"/>
        <pt x="651" y="216" on="1"/>
        <pt x="649" y="202" on="0"/>
        <pt x="646" y="173" on="0"/>
      </contour>
    </TTGlyph>
    <TTGlyph name="atilde" xMin="73" yMin="-12" xMax="582" yMax="738">
      <contour>
        <pt x="544" y="187" on="1"/>
        <pt x="538" y="136" on="0"/>
        <pt x="532" y="50" on="0"/>
        <pt x="537" y="5" on="1"/>
        <pt x="444" y="0" on="1"/>
        <pt x="429" y="12" on="0"/>
        <pt x="409" y="65" on="0"/>
        <pt x="414" y="100" on="1"/>
        <pt x="454" y="428" on="1"/>
        <pt x="433" y="433" on="0"/>
        <pt x="397" y="437" on="0"/>
        <pt x="382" y="437" on="1"/>
        <pt x="310" y="437" on="0"/>
        <pt x="220" y="334" on="0"/>
        <pt x="209" y="246" on="1"/>
        <pt x="205" y="215" on="0"/>
        <pt x="209" y="155" on="0"/>
        <pt x="227" y="109" on="0"/>
        <pt x="263" y="84" on="0"/>
        <pt x="292" y="87" on="1"/>
        <pt x="319" y="90" on="0"/>
        <pt x="353" y="60" on="0"/>
        <pt x="369" y="34" on="1"/>
        <pt x="340" y="17" on="0"/>
        <pt x="283" y="-6" on="0"/>
        <pt x="259" y="-8" on="1"/>
        <pt x="212" y="-12" on="0"/>
        <pt x="139" y="28" on="0"/>
        <pt x="92" y="100" on="0"/>
        <pt x="73" y="195" on="0"/>
        <pt x="79" y="246" on="1"/>
        <pt x="86" y="306" on="0"/>
        <pt x="137" y="410" on="0"/>
        <pt x="218" y="485" on="0"/>
        <pt x="326" y="528" on="0"/>
        <pt x="390" y="528" on="1"/>
        <pt x="411" y="528" on="0"/>
        <pt x="452" y="525" on="0"/>
        <pt x="497" y="518" on="0"/>
        <pt x="550" y="506" on="0"/>
        <pt x="582" y="497" on="1"/>
      </contour>
      <contour>
        <pt x="301" y="618" on="1"/>
        <pt x="235" y="624" on="1"/>
        <pt x="239" y="651" on="0"/>
        <pt x="260" y="694" on="0"/>
        <pt x="290" y="723" on="0"/>
        <pt x="326" y="738" on="0"/>
        <pt x="344" y="738" on="1"/>
        <pt x="366" y="738" on="0"/>
        <pt x="396" y="721" on="0"/>
        <pt x="420" y="701" on="0"/>
        <pt x="442" y="684" on="0"/>
        <pt x="455" y="684" on="1"/>
        <pt x="468" y="684" on="0"/>
        <pt x="488" y="711" on="0"/>
        <pt x="493" y="734" on="1"/>
        <pt x="557" y="728" on="1"/>
        <pt x="552" y="697" on="0"/>
        <pt x="529" y="653" on="0"/>
        <pt x="500" y="626" on="0"/>
        <pt x="468" y="614" on="0"/>
        <pt x="453" y="614" on="1"/>
        <pt x="429" y="614" on="0"/>
        <pt x="398" y="631" on="0"/>
        <pt x="375" y="651" on="0"/>
        <pt x="356" y="668" on="0"/>
        <pt x="343" y="668" on="1"/>
        <pt x="332" y="668" on="0"/>
        <pt x="307" y="646" on="0"/>
      </contour>
    </TTGlyph>
    <TTGlyph name="b" xMin="82" yMin="-13" xMax="592" yMax="758">
      <contour>
        <pt x="294" y="494" on="1"/>
        <pt x="323" y="508" on="0"/>
        <pt x="383" y="523" on="0"/>
        <pt x="407" y="525" on="1"/>
        <pt x="452" y="527" on="0"/>
        <pt x="524" y="488" on="0"/>
        <pt x="572" y="418" on="0"/>
        <pt x="592" y="323" on="0"/>
        <pt x="586" y="271" on="1"/>
        <pt x="578" y="210" on="0"/>
        <pt x="528" y="106" on="0"/>
        <pt x="449" y="30" on="0"/>
        <pt x="346" y="-13" on="0"/>
        <pt x="285" y="-13" on="1"/>
        <pt x="230" y="-13" on="0"/>
        <pt x="133" y="12" on="0"/>
        <pt x="82" y="41" on="1"/>
        <pt x="170" y="758" on="1"/>
        <pt x="290" y="751" on="1"/>
        <pt x="209" y="90" on="1"/>
        <pt x="232" y="83" on="0"/>
        <pt x="275" y="78" on="0"/>
        <pt x="296" y="78" on="1"/>
        <pt x="327" y="78" on="0"/>
        <pt x="382" y="107" on="0"/>
        <pt x="424" y="158" on="0"/>
        <pt x="452" y="229" on="0"/>
        <pt x="457" y="271" on="1"/>
        <pt x="461" y="305" on="0"/>
        <pt x="455" y="366" on="0"/>
        <pt x="434" y="411" on="0"/>
        <pt x="397" y="436" on="0"/>
        <pt x="370" y="433" on="1"/>
        <pt x="341" y="430" on="0"/>
        <pt x="307" y="467" on="0"/>
      </contour>
    </TTGlyph>
    <TTGlyph name="backslash" xMin="90" yMin="-62" xMax="345" yMax="727">
      <contour>
        <pt x="345" y="-62" on="1"/>
        <pt x="236" y="-62" on="1"/>
        <pt x="90" y="727" on="1"/>
        <pt x="199" y="727" on="1"/>
      </contour>
    </TTGlyph>
    <TTGlyph name="bar" xMin="79" yMin="-293" xMax="323" yMax="811">
      <contour>
        <pt x="188" y="-293" on="1"/>
        <pt x="79" y="-293" on="1"/>
        <pt x="214" y="811" on="1"/>
        <pt x="323" y="811" on="1"/>
      </contour>
    </TTGlyph>
    <TTGlyph name="braceleft" xMin="103" yMin="-176" xMax="489" yMax="767">
      <contour>
        <pt x="190" y="189" on="1"/>
        <pt x="191" y="207" on="0"/>
        <pt x="178" y="234" on="0"/>
        <pt x="154" y="255" on="0"/>
        <pt x="122" y="269" on="0"/>
        <pt x="103" y="272" on="1"/>
        <pt x="111" y="338" on="1"/>
        <pt x="150" y="345" on="0"/>
        <pt x="212" y="386" on="0"/>
        <pt x="220" y="421" on="1"/>
        <pt x="232" y="483" on="0"/>
        <pt x="267" y="584" on="0"/>
        <pt x="319" y="667" on="0"/>
        <pt x="391" y="736" on="0"/>
        <pt x="441" y="767" on="1"/>
        <pt x="489" y="708" on="1"/>
        <pt x="452" y="679" on="0"/>
        <pt x="399" y="623" on="0"/>
        <pt x="362" y="559" on="0"/>
        <pt x="337" y="485" on="0"/>
        <pt x="328" y="439" on="1"/>
        <pt x="320" y="397" on="0"/>
        <pt x="272" y="335" on="0"/>
        <pt x="238" y="314" on="1"/>
        <pt x="213" y="303" on="1"/>
        <pt x="235" y="292" on="1"/>
        <pt x="259" y="275" on="0"/>
        <pt x="289" y="229" on="0"/>
        <pt x="292" y="200" on="1"/>
        <pt x="294" y="188" on="0"/>
        <pt x="296" y="162" on="0"/>
        <pt x="295" y="148" on="1"/>
        <pt x="293" y="103" on="0"/>
        <pt x="300" y="29" on="0"/>
        <pt x="321" y="-33" on="0"/>
        <pt x="359" y="-89" on="0"/>
        <pt x="388" y="-116" on="1"/>
        <pt x="325" y="-176" on="1"/>
        <pt x="281" y="-144" on="0"/>
        <pt x="225" y="-72" on="0"/>
        <pt x="194" y="15" on="0"/>
        <pt x="186" y="122" on="0"/>
      </contour>
    </TTGlyph>
    <TTGlyph name="braceright" xMin="63" yMin="-176" xMax="452" yMax="767">
      <contour>
        <pt x="337" y="189" on="1"/>
        <pt x="325" y="122" on="0"/>
        <pt x="290" y="15" on="0"/>
        <pt x="238" y="-72" on="0"/>
        <pt x="163" y="-144" on="0"/>
        <pt x="112" y="-176" on="1"/>
        <pt x="63" y="-116" on="1"/>
        <pt x="99" y="-89" on="0"/>
        <pt x="150" y="-33" on="0"/>
        <pt x="188" y="29" on="0"/>
        <pt x="213" y="103" on="0"/>
        <pt x="222" y="148" on="1"/>
        <pt x="233" y="196" on="0"/>
        <pt x="274" y="266" on="0"/>
        <pt x="316" y="292" on="1"/>
        <pt x="343" y="303" on="1"/>
        <pt x="318" y="314" on="1"/>
        <pt x="289" y="335" on="0"/>
        <pt x="257" y="397" on="0"/>
        <pt x="259" y="439" on="1"/>
        <pt x="261" y="485" on="0"/>
        <pt x="255" y="559" on="0"/>
        <pt x="233" y="623" on="0"/>
        <pt x="194" y="679" on="0"/>
        <pt x="164" y="708" on="1"/>
        <pt x="228" y="767" on="1"/>
        <pt x="270" y="736" on="0"/>
        <pt x="325" y="667" on="0"/>
        <pt x="357" y="584" on="0"/>
        <pt x="366" y="483" on="0"/>
        <pt x="363" y="421" on="1"/>
        <pt x="362" y="403" on="0"/>
        <pt x="376" y="376" on="0"/>
        <pt x="400" y="355" on="0"/>
        <pt x="433" y="341" on="0"/>
        <pt x="452" y="338" on="1"/>
        <pt x="444" y="272" on="1"/>
        <pt x="405" y="265" on="0"/>
        <pt x="344" y="224" on="0"/>
      </contour>
    </TTGlyph>
    <TTGlyph name="bracketleft" xMin="106" yMin="-199" xMax="510" yMax="771">
      <contour>
        <pt x="106" y="-199" on="1"/>
        <pt x="225" y="771" on="1"/>
        <pt x="510" y="771" on="1"/>
        <pt x="499" y="679" on="1"/>
        <pt x="328" y="679" on="1"/>
        <pt x="231" y="-107" on="1"/>
        <pt x="403" y="-107" on="1"/>
        <pt x="401" y="-130" on="0"/>
        <pt x="394" y="-176" on="0"/>
        <pt x="391" y="-199" on="1"/>
      </contour>
    </TTGlyph>
    <TTGlyph name="bracketright" xMin="20" yMin="-199" xMax="425" yMax="771">
      <contour>
        <pt x="425" y="771" on="1"/>
        <pt x="306" y="-199" on="1"/>
        <pt x="20" y="-199" on="1"/>
        <pt x="23" y="-176" on="0"/>
        <pt x="29" y="-130" on="0"/>
        <pt x="31" y="-107" on="1"/>
        <pt x="202" y="-107" on="1"/>
        <pt x="299" y="679" on="1"/>
        <pt x="128" y="679" on="1"/>
        <pt x="139" y="771" on="1"/>
      </contour>
    </TTGlyph>
    <TTGlyph name="brokenbar" xMin="41" yMin="-293" xMax="284" yMax="811">
      <contour>
        <pt x="149" y="-293" on="1"/>
        <pt x="41" y="-293" on="1"/>
        <pt x="94" y="141" on="1"/>
        <pt x="202" y="141" on="1"/>
      </contour>
      <contour>
        <pt x="232" y="387" on="1"/>
        <pt x="124" y="387" on="1"/>
        <pt x="176" y="811" on="1"/>
        <pt x="284" y="811" on="1"/>
      </contour>
    </TTGlyph>
    <TTGlyph name="bullet" xMin="204" yMin="229" xMax="388" yMax="403">
      <contour>
        <pt x="209" y="315" on="1"/>
        <pt x="214" y="353" on="0"/>
        <pt x="268" y="403" on="0"/>
        <pt x="306" y="403" on="1"/>
        <pt x="344" y="403" on="0"/>
        <pt x="388" y="353" on="0"/>
        <pt x="383" y="315" on="1"/>
        <pt x="378" y="277" on="0"/>
        <pt x="323" y="229" on="0"/>
        <pt x="285" y="229" on="1"/>
        <pt x="247" y="229" on="0"/>
        <pt x="204" y="277" on="0"/>
      </contour>
    </TTGlyph>
    <TTGlyph name="c" xMin="56" yMin="-12" xMax="474" yMax="529">
      <contour>
        <pt x="289" y="-12" on="1"/>
        <pt x="238" y="-12" on="0"/>
        <pt x="148" y="21" on="0"/>
        <pt x="85" y="88" on="0"/>
        <pt x="56" y="190" on="0"/>
        <pt x="64" y="259" on="1"/>
        <pt x="72" y="326" on="0"/>
        <pt x="127" y="427" on="0"/>
        <pt x="207" y="495" on="0"/>
        <pt x="304" y="529" on="0"/>
        <pt x="355" y="529" on="1"/>
        <pt x="382" y="529" on="0"/>
        <pt x="445" y="518" on="0"/>
        <pt x="474" y="507" on="1"/>
        <pt x="435" y="425" on="1"/>
        <pt x="409" y="432" on="0"/>
        <pt x="363" y="438" on="0"/>
        <pt x="344" y="438" on="1"/>
        <pt x="289" y="438" on="0"/>
        <pt x="205" y="346" on="0"/>
        <pt x="194" y="259" on="1"/>
        <pt x="189" y="215" on="0"/>
        <pt x="200" y="148" on="0"/>
        <pt x="228" y="103" on="0"/>
        <pt x="272" y="79" on="0"/>
        <pt x="300" y="79" on="1"/>
        <pt x="321" y="79" on="0"/>
        <pt x="372" y="91" on="0"/>
        <pt x="407" y="105" on="1"/>
        <pt x="428" y="23" on="1"/>
        <pt x="386" y="4" on="0"/>
        <pt x="315" y="-12" on="0"/>
      </contour>
    </TTGlyph>
    <TTGlyph name="ccedilla" xMin="50" yMin="-210" xMax="468" yMax="529">
      <contour>
        <pt x="283" y="-12" on="1"/>
        <pt x="282" y="-12" on="1"/>
        <pt x="269" y="-46" on="1"/>
        <pt x="284" y="-49" on="0"/>
        <pt x="311" y="-61" on="0"/>
        <pt x="332" y="-81" on="0"/>
        <pt x="342" y="-107" on="0"/>
        <pt x="340" y="-123" on="1"/>
        <pt x="337" y="-146" on="0"/>
        <pt x="312" y="-178" on="0"/>
        <pt x="274" y="-200" on="0"/>
        <pt x="230" y="-210" on="0"/>
        <pt x="208" y="-210" on="1"/>
        <pt x="191" y="-210" on="0"/>
        <pt x="153" y="-202" on="0"/>
        <pt x="130" y="-191" on="1"/>
        <pt x="152" y="-140" on="1"/>
        <pt x="170" y="-148" on="0"/>
        <pt x="200" y="-153" on="0"/>
        <pt x="215" y="-153" on="1"/>
        <pt x="232" y="-153" on="0"/>
        <pt x="261" y="-140" on="0"/>
        <pt x="263" y="-126" on="1"/>
        <pt x="265" y="-109" on="0"/>
        <pt x="229" y="-92" on="0"/>
        <pt x="194" y="-88" on="1"/>
        <pt x="225" y="-6" on="1"/>
        <pt x="184" y="1" on="0"/>
        <pt x="116" y="41" on="0"/>
        <pt x="70" y="107" on="0"/>
        <pt x="50" y="199" on="0"/>
        <pt x="57" y="259" on="1"/>
        <pt x="65" y="326" on="0"/>
        <pt x="120" y="427" on="0"/>
        <pt x="200" y="495" on="0"/>
        <pt x="297" y="529" on="0"/>
        <pt x="348" y="529" on="1"/>
        <pt x="375" y="529" on="0"/>
        <pt x="439" y="518" on="0"/>
        <pt x="468" y="507" on="1"/>
        <pt x="427" y="424" on="1"/>
        <pt x="403" y="432" on="0"/>
        <pt x="356" y="438" on="0"/>
        <pt x="337" y="438" on="1"/>
        <pt x="282" y="438" on="0"/>
        <pt x="198" y="346" on="0"/>
        <pt x="187" y="259" on="1"/>
        <pt x="182" y="215" on="0"/>
        <pt x="193" y="148" on="0"/>
        <pt x="221" y="103" on="0"/>
        <pt x="265" y="79" on="0"/>
        <pt x="293" y="79" on="1"/>
        <pt x="315" y="79" on="0"/>
        <pt x="366" y="91" on="0"/>
        <pt x="401" y="105" on="1"/>
        <pt x="421" y="23" on="1"/>
        <pt x="379" y="5" on="0"/>
        <pt x="309" y="-11" on="0"/>
      </contour>
    </TTGlyph>
    <TTGlyph name="cedilla" xMin="130" yMin="-210" xMax="342" yMax="3">
      <contour>
        <pt x="226" y="-3" on="1"/>
        <pt x="287" y="3" on="1"/>
        <pt x="269" y="-46" on="1"/>
        <pt x="284" y="-49" on="0"/>
        <pt x="311" y="-61" on="0"/>
        <pt x="332" y="-81" on="0"/>
        <pt x="342" y="-107" on="0"/>
        <pt x="340" y="-123" on="1"/>
        <pt x="337" y="-146" on="0"/>
        <pt x="312" y="-178" on="0"/>
        <pt x="274" y="-200" on="0"/>
        <pt x="230" y="-210" on="0"/>
        <pt x="208" y="-210" on="1"/>
        <pt x="191" y="-210" on="0"/>
        <pt x="153" y="-202" on="0"/>
        <pt x="130" y="-191" on="1"/>
        <pt x="152" y="-140" on="1"/>
        <pt x="170" y="-148" on="0"/>
        <pt x="200" y="-153" on="0"/>
        <pt x="215" y="-153" on="1"/>
        <pt x="232" y="-153" on="0"/>
        <pt x="261" y="-140" on="0"/>
        <pt x="263" y="-126" on="1"/>
        <pt x="265" y="-109" on="0"/>
        <pt x="229" y="-92" on="0"/>
        <pt x="194" y="-88" on="1"/>
      </contour>
    </TTGlyph>
    <TTGlyph name="cent" xMin="69" yMin="-14" xMax="486" yMax="716">
      <contour>
        <pt x="440" y="119" on="1"/>
        <pt x="410" y="105" on="0"/>
        <pt x="355" y="89" on="0"/>
        <pt x="332" y="86" on="1"/>
        <pt x="320" y="-14" on="1"/>
        <pt x="232" y="-14" on="1"/>
        <pt x="244" y="89" on="1"/>
        <pt x="203" y="96" on="0"/>
        <pt x="135" y="137" on="0"/>
        <pt x="89" y="203" on="0"/>
        <pt x="69" y="295" on="0"/>
        <pt x="76" y="355" on="1"/>
        <pt x="83" y="412" on="0"/>
        <pt x="126" y="502" on="0"/>
        <pt x="189" y="568" on="0"/>
        <pt x="267" y="610" on="0"/>
        <pt x="309" y="618" on="1"/>
        <pt x="321" y="716" on="1"/>
        <pt x="409" y="716" on="1"/>
        <pt x="398" y="623" on="1"/>
        <pt x="420" y="621" on="0"/>
        <pt x="465" y="611" on="0"/>
        <pt x="486" y="603" on="1"/>
        <pt x="445" y="520" on="1"/>
        <pt x="420" y="527" on="0"/>
        <pt x="375" y="533" on="0"/>
        <pt x="356" y="533" on="1"/>
        <pt x="301" y="533" on="0"/>
        <pt x="217" y="442" on="0"/>
        <pt x="206" y="355" on="1"/>
        <pt x="201" y="311" on="0"/>
        <pt x="212" y="244" on="0"/>
        <pt x="240" y="198" on="0"/>
        <pt x="284" y="175" on="0"/>
        <pt x="312" y="175" on="1"/>
        <pt x="333" y="175" on="0"/>
        <pt x="384" y="187" on="0"/>
        <pt x="419" y="201" on="1"/>
      </contour>
    </TTGlyph>
    <TTGlyph name="circumflex" xMin="134" yMin="587" xMax="435" yMax="743">
      <contour>
        <pt x="259" y="743" on="1"/>
        <pt x="344" y="743" on="1"/>
        <pt x="435" y="601" on="1"/>
        <pt x="364" y="587" on="1"/>
        <pt x="291" y="664" on="1"/>
        <pt x="201" y="587" on="1"/>
        <pt x="134" y="601" on="1"/>
      </contour>
    </TTGlyph>
    <TTGlyph name="colon" xMin="81" yMin="-15" xMax="282" yMax="501">
      <contour>
        <pt x="130" y="426" on="1"/>
        <pt x="134" y="457" on="0"/>
        <pt x="181" y="501" on="0"/>
        <pt x="213" y="501" on="1"/>
        <pt x="245" y="501" on="0"/>
        <pt x="282" y="457" on="0"/>
        <pt x="278" y="426" on="1"/>
        <pt x="274" y="394" on="0"/>
        <pt x="227" y="352" on="0"/>
        <pt x="195" y="352" on="1"/>
        <pt x="163" y="352" on="0"/>
        <pt x="126" y="394" on="0"/>
      </contour>
      <contour>
        <pt x="85" y="58" on="1"/>
        <pt x="89" y="90" on="0"/>
        <pt x="136" y="134" on="0"/>
        <pt x="168" y="134" on="1"/>
        <pt x="200" y="134" on="0"/>
        <pt x="237" y="90" on="0"/>
        <pt x="233" y="58" on="1"/>
        <pt x="229" y="27" on="0"/>
        <pt x="182" y="-15" on="0"/>
        <pt x="150" y="-15" on="1"/>
        <pt x="118" y="-15" on="0"/>
        <pt x="81" y="27" on="0"/>
      </contour>
    </TTGlyph>
    <TTGlyph name="comma" xMin="41" yMin="-124" xMax="177" yMax="98">
      <contour>
        <pt x="41" y="-117" on="1"/>
        <pt x="68" y="98" on="1"/>
        <pt x="177" y="98" on="1"/>
        <pt x="167" y="20" on="1"/>
        <pt x="164" y="-9" on="0"/>
        <pt x="146" y="-64" on="0"/>
        <pt x="115" y="-104" on="0"/>
        <pt x="71" y="-124" on="0"/>
      </contour>
    </TTGlyph>
    <TTGlyph name="copyright" xMin="60" yMin="25" xMax="737" yMax="686">
      <contour>
        <pt x="398" y="176" on="1"/>
        <pt x="363" y="176" on="0"/>
        <pt x="304" y="200" on="0"/>
        <pt x="264" y="246" on="0"/>
        <pt x="246" y="313" on="0"/>
        <pt x="251" y="357" on="1"/>
        <pt x="257" y="400" on="0"/>
        <pt x="292" y="468" on="0"/>
        <pt x="343" y="513" on="0"/>
        <pt x="407" y="537" on="0"/>
        <pt x="442" y="537" on="1"/>
        <pt x="482" y="537" on="0"/>
        <pt x="524" y="523" on="1"/>
        <pt x="497" y="465" on="1"/>
        <pt x="465" y="476" on="0"/>
        <pt x="435" y="476" on="1"/>
        <pt x="397" y="476" on="0"/>
        <pt x="338" y="411" on="0"/>
        <pt x="331" y="357" on="1"/>
        <pt x="324" y="301" on="0"/>
        <pt x="367" y="236" on="0"/>
        <pt x="405" y="236" on="1"/>
        <pt x="419" y="236" on="0"/>
        <pt x="456" y="243" on="0"/>
        <pt x="481" y="254" on="1"/>
        <pt x="493" y="199" on="1"/>
        <pt x="464" y="185" on="0"/>
        <pt x="414" y="176" on="0"/>
      </contour>
      <contour>
        <pt x="432" y="617" on="1"/>
        <pt x="379" y="617" on="0"/>
        <pt x="284" y="579" on="0"/>
        <pt x="209" y="510" on="0"/>
        <pt x="160" y="414" on="0"/>
        <pt x="153" y="354" on="1"/>
        <pt x="146" y="295" on="0"/>
        <pt x="171" y="200" on="0"/>
        <pt x="229" y="132" on="0"/>
        <pt x="315" y="95" on="0"/>
        <pt x="368" y="95" on="1"/>
        <pt x="420" y="95" on="0"/>
        <pt x="514" y="131" on="0"/>
        <pt x="588" y="200" on="0"/>
        <pt x="637" y="297" on="0"/>
        <pt x="644" y="357" on="1"/>
        <pt x="651" y="415" on="0"/>
        <pt x="626" y="511" on="0"/>
        <pt x="569" y="580" on="0"/>
        <pt x="484" y="617" on="0"/>
      </contour>
      <contour>
        <pt x="441" y="686" on="1"/>
        <pt x="514" y="686" on="0"/>
        <pt x="629" y="636" on="0"/>
        <pt x="704" y="547" on="0"/>
        <pt x="737" y="427" on="0"/>
        <pt x="728" y="357" on="1"/>
        <pt x="720" y="289" on="0"/>
        <pt x="657" y="168" on="0"/>
        <pt x="559" y="78" on="0"/>
        <pt x="432" y="25" on="0"/>
        <pt x="360" y="25" on="1"/>
        <pt x="286" y="25" on="0"/>
        <pt x="170" y="75" on="0"/>
        <pt x="94" y="164" on="0"/>
        <pt x="60" y="286" on="0"/>
        <pt x="69" y="357" on="1"/>
        <pt x="77" y="424" on="0"/>
        <pt x="141" y="543" on="0"/>
        <pt x="240" y="633" on="0"/>
        <pt x="368" y="686" on="0"/>
      </contour>
    </TTGlyph>
    <TTGlyph name="currency" xMin="42" yMin="102" xMax="555" yMax="578">
      <contour>
        <pt x="313" y="476" on="1"/>
        <pt x="290" y="476" on="0"/>
        <pt x="247" y="455" on="0"/>
        <pt x="214" y="419" on="0"/>
        <pt x="191" y="369" on="0"/>
        <pt x="187" y="340" on="1"/>
        <pt x="183" y="308" on="0"/>
        <pt x="196" y="258" on="0"/>
        <pt x="223" y="223" on="0"/>
        <pt x="260" y="205" on="0"/>
        <pt x="280" y="205" on="1"/>
        <pt x="301" y="205" on="0"/>
        <pt x="342" y="225" on="0"/>
        <pt x="377" y="261" on="0"/>
        <pt x="401" y="311" on="0"/>
        <pt x="405" y="342" on="1"/>
        <pt x="408" y="368" on="0"/>
        <pt x="399" y="416" on="0"/>
        <pt x="375" y="454" on="0"/>
        <pt x="337" y="476" on="0"/>
      </contour>
      <contour>
        <pt x="322" y="544" on="1"/>
        <pt x="357" y="544" on="0"/>
        <pt x="413" y="523" on="0"/>
        <pt x="430" y="507" on="1"/>
        <pt x="515" y="578" on="1"/>
        <pt x="555" y="529" on="1"/>
        <pt x="468" y="457" on="1"/>
        <pt x="479" y="439" on="0"/>
        <pt x="491" y="379" on="0"/>
        <pt x="486" y="343" on="1"/>
        <pt x="481" y="305" on="0"/>
        <pt x="454" y="242" on="0"/>
        <pt x="439" y="224" on="1"/>
        <pt x="508" y="151" on="1"/>
        <pt x="455" y="103" on="1"/>
        <pt x="389" y="175" on="1"/>
        <pt x="367" y="158" on="0"/>
        <pt x="305" y="137" on="0"/>
        <pt x="271" y="137" on="1"/>
        <pt x="239" y="137" on="0"/>
        <pt x="184" y="157" on="0"/>
        <pt x="167" y="173" on="1"/>
        <pt x="85" y="102" on="1"/>
        <pt x="42" y="152" on="1"/>
        <pt x="127" y="223" on="1"/>
        <pt x="116" y="241" on="0"/>
        <pt x="101" y="302" on="0"/>
        <pt x="106" y="340" on="1"/>
        <pt x="111" y="378" on="0"/>
        <pt x="140" y="438" on="0"/>
        <pt x="157" y="457" on="1"/>
        <pt x="88" y="528" on="1"/>
        <pt x="142" y="578" on="1"/>
        <pt x="208" y="507" on="1"/>
        <pt x="230" y="524" on="0"/>
        <pt x="289" y="544" on="0"/>
      </contour>
    </TTGlyph>
    <TTGlyph name="d" xMin="64" yMin="-12" xMax="621" yMax="758">
      <contour>
        <pt x="71" y="262" on="1"/>
        <pt x="78" y="317" on="0"/>
        <pt x="127" y="414" on="0"/>
        <pt x="198" y="484" on="0"/>
        <pt x="284" y="525" on="0"/>
        <pt x="328" y="525" on="1"/>
        <pt x="352" y="525" on="0"/>
        <pt x="400" y="518" on="0"/>
        <pt x="434" y="507" on="1"/>
        <pt x="417" y="476" on="0"/>
        <pt x="372" y="438" on="0"/>
        <pt x="343" y="437" on="1"/>
        <pt x="285" y="435" on="0"/>
        <pt x="211" y="344" on="0"/>
        <pt x="201" y="262" on="1"/>
        <pt x="196" y="224" on="0"/>
        <pt x="203" y="157" on="0"/>
        <pt x="227" y="107" on="0"/>
        <pt x="267" y="79" on="0"/>
        <pt x="295" y="79" on="1"/>
        <pt x="355" y="79" on="0"/>
        <pt x="426" y="151" on="1"/>
        <pt x="501" y="758" on="1"/>
        <pt x="621" y="751" on="1"/>
        <pt x="552" y="187" on="1"/>
        <pt x="546" y="136" on="0"/>
        <pt x="540" y="50" on="0"/>
        <pt x="545" y="5" on="1"/>
        <pt x="452" y="0" on="1"/>
        <pt x="441" y="8" on="0"/>
        <pt x="428" y="33" on="0"/>
        <pt x="423" y="50" on="1"/>
        <pt x="422" y="70" on="1"/>
        <pt x="406" y="50" on="1"/>
        <pt x="365" y="15" on="0"/>
        <pt x="293" y="-12" on="0"/>
        <pt x="263" y="-12" on="1"/>
        <pt x="209" y="-12" on="0"/>
        <pt x="131" y="30" on="0"/>
        <pt x="82" y="103" on="0"/>
        <pt x="64" y="203" on="0"/>
      </contour>
    </TTGlyph>
    <TTGlyph name="dagger" xMin="56" yMin="-30" xMax="599" yMax="697">
      <contour>
        <pt x="133" y="397" on="1"/>
        <pt x="56" y="397" on="1"/>
        <pt x="67" y="486" on="1"/>
        <pt x="247" y="486" on="1"/>
        <pt x="231" y="451" on="0"/>
        <pt x="177" y="397" on="0"/>
      </contour>
      <contour>
        <pt x="588" y="397" on="1"/>
        <pt x="528" y="397" on="1"/>
        <pt x="501" y="397" on="0"/>
        <pt x="463" y="410" on="0"/>
        <pt x="439" y="434" on="0"/>
        <pt x="424" y="466" on="0"/>
        <pt x="419" y="486" on="1"/>
        <pt x="599" y="486" on="1"/>
      </contour>
      <contour>
        <pt x="410" y="697" on="1"/>
        <pt x="321" y="-30" on="1"/>
        <pt x="219" y="-30" on="1"/>
        <pt x="308" y="697" on="1"/>
      </contour>
    </TTGlyph>
    <TTGlyph name="daggerdbl" xMin="51" yMin="-30" xMax="626" yMax="697">
      <contour>
        <pt x="160" y="417" on="1"/>
        <pt x="83" y="417" on="1"/>
        <pt x="94" y="506" on="1"/>
        <pt x="274" y="506" on="1"/>
        <pt x="257" y="471" on="0"/>
        <pt x="204" y="417" on="0"/>
      </contour>
      <contour>
        <pt x="615" y="417" on="1"/>
        <pt x="555" y="417" on="1"/>
        <pt x="528" y="417" on="0"/>
        <pt x="490" y="430" on="0"/>
        <pt x="465" y="454" on="0"/>
        <pt x="450" y="486" on="0"/>
        <pt x="446" y="506" on="1"/>
        <pt x="626" y="506" on="1"/>
      </contour>
      <contour>
        <pt x="128" y="161" on="1"/>
        <pt x="51" y="161" on="1"/>
        <pt x="62" y="250" on="1"/>
        <pt x="242" y="250" on="1"/>
        <pt x="226" y="215" on="0"/>
        <pt x="172" y="161" on="0"/>
      </contour>
      <contour>
        <pt x="583" y="161" on="1"/>
        <pt x="506" y="161" on="1"/>
        <pt x="484" y="161" on="0"/>
        <pt x="453" y="176" on="0"/>
        <pt x="431" y="201" on="0"/>
        <pt x="418" y="233" on="0"/>
        <pt x="414" y="250" on="1"/>
        <pt x="594" y="250" on="1"/>
      </contour>
      <contour>
        <pt x="434" y="697" on="1"/>
        <pt x="345" y="-30" on="1"/>
        <pt x="243" y="-30" on="1"/>
        <pt x="332" y="697" on="1"/>
      </contour>
    </TTGlyph>
    <TTGlyph name="degree" xMin="95" yMin="477" xMax="407" yMax="769">
      <contour>
        <pt x="99" y="623" on="1"/>
        <pt x="103" y="654" on="0"/>
        <pt x="134" y="707" on="0"/>
        <pt x="180" y="746" on="0"/>
        <pt x="238" y="769" on="0"/>
        <pt x="269" y="769" on="1"/>
        <pt x="297" y="769" on="0"/>
        <pt x="350" y="749" on="0"/>
        <pt x="388" y="712" on="0"/>
        <pt x="407" y="657" on="0"/>
        <pt x="403" y="623" on="1"/>
        <pt x="399" y="590" on="0"/>
        <pt x="366" y="536" on="0"/>
        <pt x="319" y="498" on="0"/>
        <pt x="261" y="477" on="0"/>
        <pt x="233" y="477" on="1"/>
        <pt x="203" y="477" on="0"/>
        <pt x="151" y="498" on="0"/>
        <pt x="113" y="536" on="0"/>
        <pt x="95" y="590" on="0"/>
      </contour>
      <contour>
        <pt x="261" y="706" on="1"/>
        <pt x="227" y="706" on="0"/>
        <pt x="180" y="658" on="0"/>
        <pt x="175" y="623" on="1"/>
        <pt x="170" y="587" on="0"/>
        <pt x="207" y="541" on="0"/>
        <pt x="241" y="541" on="1"/>
        <pt x="276" y="541" on="0"/>
        <pt x="323" y="589" on="0"/>
        <pt x="328" y="623" on="1"/>
        <pt x="333" y="662" on="0"/>
        <pt x="292" y="706" on="0"/>
      </contour>
    </TTGlyph>
    <TTGlyph name="dieresis" xMin="160" yMin="611" xMax="479" yMax="729">
      <contour>
        <pt x="358" y="670" on="1"/>
        <pt x="361" y="695" on="0"/>
        <pt x="400" y="729" on="0"/>
        <pt x="424" y="729" on="1"/>
        <pt x="448" y="729" on="0"/>
        <pt x="479" y="695" on="0"/>
        <pt x="476" y="670" on="1"/>
        <pt x="473" y="645" on="0"/>
        <pt x="434" y="611" on="0"/>
        <pt x="410" y="611" on="1"/>
        <pt x="386" y="611" on="0"/>
        <pt x="355" y="645" on="0"/>
      </contour>
      <contour>
        <pt x="163" y="670" on="1"/>
        <pt x="166" y="695" on="0"/>
        <pt x="205" y="729" on="0"/>
        <pt x="229" y="729" on="1"/>
        <pt x="254" y="729" on="0"/>
        <pt x="285" y="695" on="0"/>
        <pt x="282" y="670" on="1"/>
        <pt x="279" y="645" on="0"/>
        <pt x="240" y="611" on="0"/>
        <pt x="215" y="611" on="1"/>
        <pt x="191" y="611" on="0"/>
        <pt x="160" y="645" on="0"/>
      </contour>
    </TTGlyph>
    <TTGlyph name="divide" xMin="79" yMin="55" xMax="557" yMax="552">
      <contour>
        <pt x="236" y="112" on="1"/>
        <pt x="239" y="138" on="0"/>
        <pt x="275" y="171" on="0"/>
        <pt x="300" y="171" on="1"/>
        <pt x="326" y="171" on="0"/>
        <pt x="355" y="138" on="0"/>
        <pt x="352" y="112" on="1"/>
        <pt x="349" y="87" on="0"/>
        <pt x="312" y="55" on="0"/>
        <pt x="286" y="55" on="1"/>
        <pt x="261" y="55" on="0"/>
        <pt x="233" y="87" on="0"/>
      </contour>
      <contour>
        <pt x="284" y="494" on="1"/>
        <pt x="287" y="520" on="0"/>
        <pt x="322" y="552" on="0"/>
        <pt x="347" y="552" on="1"/>
        <pt x="373" y="552" on="0"/>
        <pt x="401" y="520" on="0"/>
        <pt x="398" y="494" on="1"/>
        <pt x="395" y="469" on="0"/>
        <pt x="359" y="438" on="0"/>
        <pt x="333" y="438" on="1"/>
        <pt x="308" y="438" on="0"/>
        <pt x="281" y="469" on="0"/>
      </contour>
      <contour>
        <pt x="79" y="263" on="1"/>
        <pt x="89" y="347" on="1"/>
        <pt x="557" y="347" on="1"/>
        <pt x="547" y="263" on="1"/>
      </contour>
    </TTGlyph>
    <TTGlyph name="dollar" xMin="37" yMin="-107" xMax="524" yMax="810">
      <contour>
        <pt x="338" y="622" on="1"/>
        <pt x="291" y="622" on="0"/>
        <pt x="230" y="574" on="0"/>
        <pt x="226" y="540" on="1"/>
        <pt x="222" y="505" on="0"/>
        <pt x="265" y="456" on="0"/>
        <pt x="334" y="412" on="0"/>
        <pt x="415" y="369" on="0"/>
        <pt x="482" y="312" on="0"/>
        <pt x="522" y="235" on="0"/>
        <pt x="515" y="179" on="1"/>
        <pt x="511" y="143" on="0"/>
        <pt x="478" y="80" on="0"/>
        <pt x="425" y="32" on="0"/>
        <pt x="352" y="0" on="0"/>
        <pt x="309" y="-7" on="1"/>
        <pt x="296" y="-107" on="1"/>
        <pt x="202" y="-107" on="1"/>
        <pt x="214" y="-11" on="1"/>
        <pt x="176" y="-8" on="0"/>
        <pt x="85" y="15" on="0"/>
        <pt x="37" y="38" on="1"/>
        <pt x="81" y="122" on="1"/>
        <pt x="130" y="99" on="0"/>
        <pt x="216" y="80" on="0"/>
        <pt x="254" y="80" on="1"/>
        <pt x="283" y="80" on="0"/>
        <pt x="333" y="96" on="0"/>
        <pt x="371" y="124" on="0"/>
        <pt x="394" y="161" on="0"/>
        <pt x="397" y="181" on="1"/>
        <pt x="401" y="218" on="0"/>
        <pt x="359" y="270" on="0"/>
        <pt x="290" y="313" on="0"/>
        <pt x="209" y="355" on="0"/>
        <pt x="142" y="409" on="0"/>
        <pt x="101" y="482" on="0"/>
        <pt x="108" y="535" on="1"/>
        <pt x="112" y="572" on="0"/>
        <pt x="146" y="633" on="0"/>
        <pt x="198" y="678" on="0"/>
        <pt x="265" y="705" on="0"/>
        <pt x="303" y="710" on="1"/>
        <pt x="315" y="810" on="1"/>
        <pt x="409" y="810" on="1"/>
        <pt x="397" y="709" on="1"/>
        <pt x="425" y="706" on="0"/>
        <pt x="485" y="693" on="0"/>
        <pt x="524" y="680" on="1"/>
        <pt x="480" y="599" on="1"/>
        <pt x="438" y="612" on="0"/>
        <pt x="370" y="622" on="0"/>
      </contour>
    </TTGlyph>
    <TTGlyph name="e" xMin="74" yMin="-12" xMax="548" yMax="529">
      <contour>
        <pt x="326" y="317" on="1"/>
        <pt x="429" y="317" on="1"/>
        <pt x="436" y="342" on="0"/>
        <pt x="430" y="387" on="0"/>
        <pt x="409" y="421" on="0"/>
        <pt x="374" y="441" on="0"/>
        <pt x="351" y="441" on="1"/>
        <pt x="326" y="441" on="0"/>
        <pt x="278" y="420" on="0"/>
        <pt x="237" y="377" on="0"/>
        <pt x="208" y="312" on="0"/>
        <pt x="202" y="268" on="1"/>
        <pt x="197" y="224" on="0"/>
        <pt x="210" y="155" on="0"/>
        <pt x="243" y="105" on="0"/>
        <pt x="294" y="79" on="0"/>
        <pt x="327" y="79" on="1"/>
        <pt x="362" y="79" on="0"/>
        <pt x="429" y="96" on="0"/>
        <pt x="475" y="116" on="1"/>
        <pt x="497" y="33" on="1"/>
        <pt x="442" y="8" on="0"/>
        <pt x="346" y="-12" on="0"/>
        <pt x="303" y="-12" on="1"/>
        <pt x="239" y="-12" on="0"/>
        <pt x="149" y="34" on="0"/>
        <pt x="94" y="111" on="0"/>
        <pt x="74" y="211" on="0"/>
        <pt x="81" y="265" on="1"/>
        <pt x="88" y="326" on="0"/>
        <pt x="139" y="424" on="0"/>
        <pt x="215" y="493" on="0"/>
        <pt x="313" y="529" on="0"/>
        <pt x="369" y="529" on="1"/>
        <pt x="423" y="529" on="0"/>
        <pt x="504" y="484" on="0"/>
        <pt x="548" y="406" on="0"/>
        <pt x="548" y="301" on="0"/>
        <pt x="520" y="241" on="1"/>
        <pt x="236" y="241" on="1"/>
        <pt x="250" y="273" on="0"/>
        <pt x="297" y="317" on="0"/>
      </contour>
    </TTGlyph>
    <TTGlyph name="eacute" xMin="67" yMin="-12" xMax="540" yMax="740">
      <contour>
        <pt x="533" y="740" on="1"/>
        <pt x="439" y="640" on="1"/>
        <pt x="424" y="624" on="0"/>
        <pt x="388" y="605" on="0"/>
        <pt x="352" y="598" on="0"/>
        <pt x="318" y="599" on="0"/>
        <pt x="306" y="602" on="1"/>
        <pt x="410" y="740" on="1"/>
      </contour>
      <contour>
        <pt x="319" y="317" on="1"/>
        <pt x="422" y="317" on="1"/>
        <pt x="428" y="342" on="0"/>
        <pt x="423" y="387" on="0"/>
        <pt x="402" y="421" on="0"/>
        <pt x="367" y="441" on="0"/>
        <pt x="343" y="441" on="1"/>
        <pt x="318" y="441" on="0"/>
        <pt x="270" y="420" on="0"/>
        <pt x="230" y="377" on="0"/>
        <pt x="201" y="312" on="0"/>
        <pt x="195" y="268" on="1"/>
        <pt x="190" y="224" on="0"/>
        <pt x="203" y="155" on="0"/>
        <pt x="236" y="105" on="0"/>
        <pt x="287" y="79" on="0"/>
        <pt x="319" y="79" on="1"/>
        <pt x="354" y="79" on="0"/>
        <pt x="421" y="96" on="0"/>
        <pt x="468" y="116" on="1"/>
        <pt x="489" y="33" on="1"/>
        <pt x="434" y="8" on="0"/>
        <pt x="338" y="-12" on="0"/>
        <pt x="295" y="-12" on="1"/>
        <pt x="232" y="-12" on="0"/>
        <pt x="142" y="34" on="0"/>
        <pt x="87" y="111" on="0"/>
        <pt x="67" y="211" on="0"/>
        <pt x="74" y="265" on="1"/>
        <pt x="81" y="326" on="0"/>
        <pt x="132" y="424" on="0"/>
        <pt x="208" y="493" on="0"/>
        <pt x="306" y="529" on="0"/>
        <pt x="361" y="529" on="1"/>
        <pt x="415" y="529" on="0"/>
        <pt x="497" y="484" on="0"/>
        <pt x="540" y="406" on="0"/>
        <pt x="540" y="301" on="0"/>
        <pt x="513" y="241" on="1"/>
        <pt x="229" y="241" on="1"/>
        <pt x="243" y="273" on="0"/>
        <pt x="289" y="317" on="0"/>
      </contour>
    </TTGlyph>
    <TTGlyph name="ecircumflex" xMin="66" yMin="-12" xMax="539" yMax="743">
      <contour>
        <pt x="340" y="743" on="1"/>
        <pt x="425" y="743" on="1"/>
        <pt x="516" y="601" on="1"/>
        <pt x="445" y="587" on="1"/>
        <pt x="372" y="664" on="1"/>
        <pt x="282" y="587" on="1"/>
        <pt x="215" y="601" on="1"/>
      </contour>
      <contour>
        <pt x="318" y="317" on="1"/>
        <pt x="421" y="317" on="1"/>
        <pt x="428" y="342" on="0"/>
        <pt x="422" y="387" on="0"/>
        <pt x="401" y="421" on="0"/>
        <pt x="366" y="441" on="0"/>
        <pt x="343" y="441" on="1"/>
        <pt x="318" y="441" on="0"/>
        <pt x="270" y="420" on="0"/>
        <pt x="229" y="377" on="0"/>
        <pt x="200" y="312" on="0"/>
        <pt x="194" y="268" on="1"/>
        <pt x="189" y="224" on="0"/>
        <pt x="202" y="155" on="0"/>
        <pt x="235" y="105" on="0"/>
        <pt x="286" y="79" on="0"/>
        <pt x="319" y="79" on="1"/>
        <pt x="354" y="79" on="0"/>
        <pt x="421" y="96" on="0"/>
        <pt x="467" y="116" on="1"/>
        <pt x="488" y="33" on="1"/>
        <pt x="433" y="8" on="0"/>
        <pt x="337" y="-12" on="0"/>
        <pt x="295" y="-12" on="1"/>
        <pt x="231" y="-12" on="0"/>
        <pt x="141" y="34" on="0"/>
        <pt x="86" y="111" on="0"/>
        <pt x="66" y="211" on="0"/>
        <pt x="73" y="265" on="1"/>
        <pt x="80" y="326" on="0"/>
        <pt x="131" y="424" on="0"/>
        <pt x="207" y="493" on="0"/>
        <pt x="305" y="529" on="0"/>
        <pt x="361" y="529" on="1"/>
        <pt x="415" y="529" on="0"/>
        <pt x="496" y="484" on="0"/>
        <pt x="539" y="406" on="0"/>
        <pt x="539" y="301" on="0"/>
        <pt x="512" y="241" on="1"/>
        <pt x="228" y="241" on="1"/>
        <pt x="242" y="273" on="0"/>
        <pt x="289" y="317" on="0"/>
      </contour>
    </TTGlyph>
    <TTGlyph name="edieresis" xMin="67" yMin="-12" xMax="541" yMax="729">
      <contour>
        <pt x="405" y="670" on="1"/>
        <pt x="408" y="695" on="0"/>
        <pt x="447" y="729" on="0"/>
        <pt x="471" y="729" on="1"/>
        <pt x="496" y="729" on="0"/>
        <pt x="527" y="695" on="0"/>
        <pt x="524" y="670" on="1"/>
        <pt x="521" y="645" on="0"/>
        <pt x="482" y="611" on="0"/>
        <pt x="457" y="611" on="1"/>
        <pt x="433" y="611" on="0"/>
        <pt x="402" y="645" on="0"/>
      </contour>
      <contour>
        <pt x="211" y="670" on="1"/>
        <pt x="214" y="695" on="0"/>
        <pt x="253" y="729" on="0"/>
        <pt x="276" y="729" on="1"/>
        <pt x="301" y="729" on="0"/>
        <pt x="332" y="695" on="0"/>
        <pt x="329" y="670" on="1"/>
        <pt x="326" y="645" on="0"/>
        <pt x="287" y="611" on="0"/>
        <pt x="262" y="611" on="1"/>
        <pt x="239" y="611" on="0"/>
        <pt x="208" y="645" on="0"/>
      </contour>
      <contour>
        <pt x="319" y="317" on="1"/>
        <pt x="423" y="317" on="1"/>
        <pt x="429" y="342" on="0"/>
        <pt x="424" y="387" on="0"/>
        <pt x="403" y="421" on="0"/>
        <pt x="367" y="441" on="0"/>
        <pt x="344" y="441" on="1"/>
        <pt x="319" y="441" on="0"/>
        <pt x="271" y="420" on="0"/>
        <pt x="230" y="377" on="0"/>
        <pt x="201" y="312" on="0"/>
        <pt x="195" y="268" on="1"/>
        <pt x="190" y="224" on="0"/>
        <pt x="203" y="155" on="0"/>
        <pt x="236" y="105" on="0"/>
        <pt x="287" y="79" on="0"/>
        <pt x="320" y="79" on="1"/>
        <pt x="355" y="79" on="0"/>
        <pt x="422" y="96" on="0"/>
        <pt x="468" y="116" on="1"/>
        <pt x="490" y="33" on="1"/>
        <pt x="435" y="8" on="0"/>
        <pt x="339" y="-12" on="0"/>
        <pt x="296" y="-12" on="1"/>
        <pt x="233" y="-12" on="0"/>
        <pt x="142" y="34" on="0"/>
        <pt x="87" y="111" on="0"/>
        <pt x="67" y="211" on="0"/>
        <pt x="74" y="265" on="1"/>
        <pt x="81" y="326" on="0"/>
        <pt x="132" y="424" on="0"/>
        <pt x="209" y="493" on="0"/>
        <pt x="307" y="529" on="0"/>
        <pt x="362" y="529" on="1"/>
        <pt x="416" y="529" on="0"/>
        <pt x="497" y="484" on="0"/>
        <pt x="541" y="406" on="0"/>
        <pt x="541" y="301" on="0"/>
        <pt x="513" y="241" on="1"/>
        <pt x="230" y="241" on="1"/>
        <pt x="244" y="273" on="0"/>
        <pt x="290" y="317" on="0"/>
      </contour>
    </TTGlyph>
    <TTGlyph name="egrave" xMin="67" yMin="-12" xMax="541" yMax="740">
      <contour>
        <pt x="287" y="642" on="1"/>
        <pt x="232" y="740" on="1"/>
        <pt x="351" y="740" on="1"/>
        <pt x="407" y="602" on="1"/>
        <pt x="394" y="599" on="0"/>
        <pt x="361" y="599" on="0"/>
        <pt x="328" y="608" on="0"/>
        <pt x="298" y="626" on="0"/>
      </contour>
      <contour>
        <pt x="319" y="317" on="1"/>
        <pt x="423" y="317" on="1"/>
        <pt x="429" y="342" on="0"/>
        <pt x="424" y="387" on="0"/>
        <pt x="403" y="421" on="0"/>
        <pt x="367" y="441" on="0"/>
        <pt x="344" y="441" on="1"/>
        <pt x="319" y="441" on="0"/>
        <pt x="271" y="420" on="0"/>
        <pt x="230" y="377" on="0"/>
        <pt x="201" y="312" on="0"/>
        <pt x="195" y="268" on="1"/>
        <pt x="190" y="224" on="0"/>
        <pt x="203" y="155" on="0"/>
        <pt x="236" y="105" on="0"/>
        <pt x="287" y="79" on="0"/>
        <pt x="320" y="79" on="1"/>
        <pt x="355" y="79" on="0"/>
        <pt x="422" y="96" on="0"/>
        <pt x="468" y="116" on="1"/>
        <pt x="490" y="33" on="1"/>
        <pt x="435" y="8" on="0"/>
        <pt x="339" y="-12" on="0"/>
        <pt x="296" y="-12" on="1"/>
        <pt x="233" y="-12" on="0"/>
        <pt x="142" y="34" on="0"/>
        <pt x="87" y="111" on="0"/>
        <pt x="67" y="211" on="0"/>
        <pt x="74" y="265" on="1"/>
        <pt x="81" y="326" on="0"/>
        <pt x="132" y="424" on="0"/>
        <pt x="209" y="493" on="0"/>
        <pt x="307" y="529" on="0"/>
        <pt x="362" y="529" on="1"/>
        <pt x="416" y="529" on="0"/>
        <pt x="497" y="484" on="0"/>
        <pt x="541" y="406" on="0"/>
        <pt x="541" y="301" on="0"/>
        <pt x="513" y="241" on="1"/>
        <pt x="230" y="241" on="1"/>
        <pt x="244" y="273" on="0"/>
        <pt x="290" y="317" on="0"/>
      </contour>
    </TTGlyph>
    <TTGlyph name="eight" xMin="96" yMin="-13" xMax="625" yMax="713">
      <contour>
        <pt x="337" y="77" on="1"/>
        <pt x="397" y="77" on="0"/>
        <pt x="473" y="135" on="0"/>
        <pt x="478" y="178" on="1"/>
        <pt x="482" y="208" on="0"/>
        <pt x="457" y="252" on="0"/>
        <pt x="412" y="285" on="0"/>
        <pt x="352" y="313" on="0"/>
        <pt x="289" y="342" on="0"/>
        <pt x="231" y="376" on="0"/>
        <pt x="187" y="423" on="0"/>
        <pt x="165" y="487" on="0"/>
        <pt x="170" y="531" on="1"/>
        <pt x="175" y="574" on="0"/>
        <pt x="220" y="642" on="0"/>
        <pt x="288" y="688" on="0"/>
        <pt x="373" y="713" on="0"/>
        <pt x="418" y="713" on="1"/>
        <pt x="465" y="713" on="0"/>
        <pt x="544" y="688" on="0"/>
        <pt x="599" y="642" on="0"/>
        <pt x="625" y="574" on="0"/>
        <pt x="620" y="531" on="1"/>
        <pt x="617" y="511" on="0"/>
        <pt x="599" y="467" on="0"/>
        <pt x="569" y="422" on="0"/>
        <pt x="530" y="379" on="0"/>
        <pt x="506" y="361" on="1"/>
        <pt x="552" y="335" on="0"/>
        <pt x="608" y="248" on="0"/>
        <pt x="599" y="178" on="1"/>
        <pt x="593" y="132" on="0"/>
        <pt x="546" y="61" on="0"/>
        <pt x="472" y="12" on="0"/>
        <pt x="378" y="-13" on="0"/>
        <pt x="326" y="-13" on="1"/>
        <pt x="273" y="-13" on="0"/>
        <pt x="185" y="12" on="0"/>
        <pt x="125" y="61" on="0"/>
        <pt x="96" y="132" on="0"/>
        <pt x="102" y="178" on="1"/>
        <pt x="104" y="195" on="0"/>
        <pt x="117" y="232" on="0"/>
        <pt x="141" y="272" on="0"/>
        <pt x="179" y="317" on="0"/>
        <pt x="208" y="343" on="1"/>
        <pt x="228" y="319" on="0"/>
        <pt x="250" y="259" on="0"/>
        <pt x="235" y="228" on="1"/>
        <pt x="228" y="214" on="0"/>
        <pt x="222" y="194" on="0"/>
        <pt x="220" y="183" on="1"/>
        <pt x="214" y="132" on="0"/>
        <pt x="280" y="77" on="0"/>
      </contour>
      <contour>
        <pt x="291" y="531" on="1"/>
        <pt x="288" y="506" on="0"/>
        <pt x="309" y="470" on="0"/>
        <pt x="348" y="441" on="0"/>
        <pt x="400" y="415" on="0"/>
        <pt x="429" y="402" on="1"/>
        <pt x="460" y="432" on="0"/>
        <pt x="496" y="490" on="0"/>
        <pt x="500" y="520" on="1"/>
        <pt x="503" y="547" on="0"/>
        <pt x="490" y="585" on="0"/>
        <pt x="464" y="610" on="0"/>
        <pt x="427" y="622" on="0"/>
        <pt x="407" y="622" on="1"/>
        <pt x="386" y="622" on="0"/>
        <pt x="346" y="610" on="0"/>
        <pt x="315" y="587" on="0"/>
        <pt x="294" y="553" on="0"/>
      </contour>
    </TTGlyph>
    <TTGlyph name="ellipsis" xMin="80" yMin="-15" xMax="777" yMax="134">
      <contour>
        <pt x="625" y="58" on="1"/>
        <pt x="629" y="90" on="0"/>
        <pt x="676" y="134" on="0"/>
        <pt x="708" y="134" on="1"/>
        <pt x="740" y="134" on="0"/>
        <pt x="777" y="90" on="0"/>
        <pt x="773" y="58" on="1"/>
        <pt x="769" y="27" on="0"/>
        <pt x="722" y="-15" on="0"/>
        <pt x="690" y="-15" on="1"/>
        <pt x="658" y="-15" on="0"/>
        <pt x="621" y="27" on="0"/>
      </contour>
      <contour>
        <pt x="355" y="58" on="1"/>
        <pt x="359" y="90" on="0"/>
        <pt x="406" y="134" on="0"/>
        <pt x="438" y="134" on="1"/>
        <pt x="470" y="134" on="0"/>
        <pt x="507" y="90" on="0"/>
        <pt x="503" y="58" on="1"/>
        <pt x="499" y="27" on="0"/>
        <pt x="452" y="-15" on="0"/>
        <pt x="420" y="-15" on="1"/>
        <pt x="388" y="-15" on="0"/>
        <pt x="351" y="27" on="0"/>
      </contour>
      <contour>
        <pt x="84" y="58" on="1"/>
        <pt x="88" y="90" on="0"/>
        <pt x="135" y="134" on="0"/>
        <pt x="167" y="134" on="1"/>
        <pt x="199" y="134" on="0"/>
        <pt x="236" y="90" on="0"/>
        <pt x="232" y="58" on="1"/>
        <pt x="228" y="27" on="0"/>
        <pt x="181" y="-15" on="0"/>
        <pt x="149" y="-15" on="1"/>
        <pt x="117" y="-15" on="0"/>
        <pt x="80" y="27" on="0"/>
      </contour>
    </TTGlyph>
    <TTGlyph name="emdash" xMin="73" yMin="232" xMax="823" yMax="318">
      <contour>
        <pt x="812" y="232" on="1"/>
        <pt x="73" y="232" on="1"/>
        <pt x="84" y="318" on="1"/>
        <pt x="823" y="318" on="1"/>
      </contour>
    </TTGlyph>
    <TTGlyph name="endash" xMin="73" yMin="232" xMax="508" yMax="318">
      <contour>
        <pt x="497" y="232" on="1"/>
        <pt x="73" y="232" on="1"/>
        <pt x="84" y="318" on="1"/>
        <pt x="508" y="318" on="1"/>
      </contour>
    </TTGlyph>
    <TTGlyph name="equal" xMin="87" yMin="167" xMax="597" yMax="474">
      <contour>
        <pt x="114" y="388" on="1"/>
        <pt x="125" y="474" on="1"/>
        <pt x="597" y="474" on="1"/>
        <pt x="586" y="388" on="1"/>
      </contour>
      <contour>
        <pt x="87" y="167" on="1"/>
        <pt x="98" y="253" on="1"/>
        <pt x="570" y="253" on="1"/>
        <pt x="559" y="167" on="1"/>
      </contour>
    </TTGlyph>
    <TTGlyph name="eth" xMin="47" yMin="-12" xMax="578" yMax="761">
      <contour>
        <pt x="440" y="259" on="1"/>
        <pt x="450" y="340" on="0"/>
        <pt x="393" y="438" on="0"/>
        <pt x="335" y="438" on="1"/>
        <pt x="276" y="438" on="0"/>
        <pt x="195" y="340" on="0"/>
        <pt x="184" y="259" on="1"/>
        <pt x="174" y="177" on="0"/>
        <pt x="232" y="79" on="0"/>
        <pt x="291" y="79" on="1"/>
        <pt x="349" y="79" on="0"/>
        <pt x="430" y="177" on="0"/>
      </contour>
      <contour>
        <pt x="570" y="259" on="1"/>
        <pt x="562" y="198" on="0"/>
        <pt x="510" y="98" on="0"/>
        <pt x="431" y="27" on="0"/>
        <pt x="333" y="-12" on="0"/>
        <pt x="280" y="-12" on="1"/>
        <pt x="226" y="-12" on="0"/>
        <pt x="136" y="25" on="0"/>
        <pt x="75" y="95" on="0"/>
        <pt x="47" y="195" on="0"/>
        <pt x="55" y="259" on="1"/>
        <pt x="62" y="319" on="0"/>
        <pt x="115" y="419" on="0"/>
        <pt x="194" y="490" on="0"/>
        <pt x="293" y="529" on="0"/>
        <pt x="346" y="529" on="1"/>
        <pt x="386" y="529" on="0"/>
        <pt x="431" y="505" on="1"/>
        <pt x="411" y="534" on="0"/>
        <pt x="365" y="587" on="0"/>
        <pt x="343" y="605" on="1"/>
        <pt x="217" y="549" on="1"/>
        <pt x="200" y="601" on="1"/>
        <pt x="291" y="643" on="1"/>
        <pt x="252" y="670" on="0"/>
        <pt x="208" y="692" on="1"/>
        <pt x="256" y="761" on="1"/>
        <pt x="290" y="745" on="0"/>
        <pt x="356" y="708" on="0"/>
        <pt x="386" y="685" on="1"/>
        <pt x="503" y="738" on="1"/>
        <pt x="522" y="685" on="1"/>
        <pt x="434" y="645" on="1"/>
        <pt x="463" y="617" on="0"/>
        <pt x="519" y="537" on="0"/>
        <pt x="559" y="439" on="0"/>
        <pt x="578" y="323" on="0"/>
      </contour>
    </TTGlyph>
    <TTGlyph name="exclam" xMin="44" yMin="-14" xMax="267" yMax="727">
      <contour>
        <pt x="48" y="59" on="1"/>
        <pt x="52" y="91" on="0"/>
        <pt x="99" y="134" on="0"/>
        <pt x="131" y="134" on="1"/>
        <pt x="163" y="134" on="0"/>
        <pt x="200" y="91" on="0"/>
        <pt x="196" y="59" on="1"/>
        <pt x="192" y="27" on="0"/>
        <pt x="145" y="-14" on="0"/>
        <pt x="113" y="-14" on="1"/>
        <pt x="81" y="-14" on="0"/>
        <pt x="44" y="27" on="0"/>
      </contour>
      <contour>
        <pt x="145" y="727" on="1"/>
        <pt x="267" y="727" on="1"/>
        <pt x="186" y="213" on="1"/>
        <pt x="98" y="213" on="1"/>
      </contour>
    </TTGlyph>
    <TTGlyph name="exclamdown" xMin="30" yMin="-210" xMax="249" yMax="531">
      <contour>
        <pt x="97" y="458" on="1"/>
        <pt x="101" y="490" on="0"/>
        <pt x="148" y="531" on="0"/>
        <pt x="180" y="531" on="1"/>
        <pt x="212" y="531" on="0"/>
        <pt x="249" y="490" on="0"/>
        <pt x="245" y="458" on="1"/>
        <pt x="241" y="426" on="0"/>
        <pt x="194" y="383" on="0"/>
        <pt x="162" y="383" on="1"/>
        <pt x="130" y="383" on="0"/>
        <pt x="93" y="426" on="0"/>
      </contour>
      <contour>
        <pt x="152" y="-210" on="1"/>
        <pt x="30" y="-210" on="1"/>
        <pt x="109" y="304" on="1"/>
        <pt x="197" y="304" on="1"/>
      </contour>
    </TTGlyph>
    <TTGlyph name="f" xMin="68" yMin="0" xMax="527" yMax="763">
      <contour>
        <pt x="407" y="517" on="1"/>
        <pt x="457" y="517" on="1"/>
        <pt x="446" y="429" on="1"/>
        <pt x="302" y="429" on="1"/>
        <pt x="309" y="445" on="0"/>
        <pt x="328" y="476" on="0"/>
        <pt x="354" y="501" on="0"/>
        <pt x="387" y="517" on="0"/>
      </contour>
      <contour>
        <pt x="152" y="429" on="1"/>
        <pt x="68" y="429" on="1"/>
        <pt x="77" y="497" on="1"/>
        <pt x="163" y="517" on="1"/>
        <pt x="166" y="545" on="1"/>
        <pt x="172" y="594" on="0"/>
        <pt x="211" y="675" on="0"/>
        <pt x="272" y="732" on="0"/>
        <pt x="353" y="763" on="0"/>
        <pt x="402" y="763" on="1"/>
        <pt x="427" y="763" on="0"/>
        <pt x="491" y="751" on="0"/>
        <pt x="527" y="735" on="1"/>
        <pt x="490" y="656" on="1"/>
        <pt x="461" y="666" on="0"/>
        <pt x="421" y="673" on="0"/>
        <pt x="404" y="673" on="1"/>
        <pt x="357" y="673" on="0"/>
        <pt x="290" y="609" on="0"/>
        <pt x="282" y="549" on="1"/>
        <pt x="215" y="0" on="1"/>
        <pt x="100" y="0" on="1"/>
      </contour>
    </TTGlyph>
    <TTGlyph name="five" xMin="33" yMin="-12" xMax="537" yMax="701">
      <contour>
        <pt x="257" y="603" on="1"/>
        <pt x="249" y="566" on="0"/>
        <pt x="236" y="494" on="0"/>
        <pt x="228" y="457" on="1"/>
        <pt x="219" y="422" on="1"/>
        <pt x="236" y="424" on="0"/>
        <pt x="265" y="428" on="0"/>
        <pt x="278" y="428" on="1"/>
        <pt x="340" y="428" on="0"/>
        <pt x="431" y="393" on="0"/>
        <pt x="488" y="334" on="0"/>
        <pt x="512" y="255" on="0"/>
        <pt x="506" y="211" on="1"/>
        <pt x="500" y="163" on="0"/>
        <pt x="451" y="81" on="0"/>
        <pt x="373" y="22" on="0"/>
        <pt x="269" y="-12" on="0"/>
        <pt x="209" y="-12" on="1"/>
        <pt x="171" y="-12" on="0"/>
        <pt x="79" y="10" on="0"/>
        <pt x="33" y="37" on="1"/>
        <pt x="73" y="118" on="1"/>
        <pt x="118" y="96" on="0"/>
        <pt x="190" y="79" on="0"/>
        <pt x="219" y="79" on="1"/>
        <pt x="255" y="79" on="0"/>
        <pt x="311" y="103" on="0"/>
        <pt x="352" y="142" on="0"/>
        <pt x="375" y="189" on="0"/>
        <pt x="378" y="213" on="1"/>
        <pt x="382" y="244" on="0"/>
        <pt x="365" y="291" on="0"/>
        <pt x="327" y="322" on="0"/>
        <pt x="272" y="338" on="0"/>
        <pt x="238" y="338" on="1"/>
        <pt x="212" y="338" on="0"/>
        <pt x="143" y="330" on="0"/>
        <pt x="101" y="322" on="1"/>
        <pt x="174" y="701" on="1"/>
        <pt x="537" y="701" on="1"/>
        <pt x="525" y="603" on="1"/>
      </contour>
    </TTGlyph>
    <TTGlyph name="florin" xMin="-11" yMin="-141" xMax="598" yMax="712">
      <contour>
        <pt x="-1" y="-141" on="1"/>
        <pt x="-11" y="-64" on="1"/>
        <pt x="13" y="-56" on="0"/>
        <pt x="56" y="-35" on="0"/>
        <pt x="92" y="-3" on="0"/>
        <pt x="118" y="43" on="0"/>
        <pt x="126" y="76" on="1"/>
        <pt x="193" y="378" on="1"/>
        <pt x="115" y="378" on="1"/>
        <pt x="117" y="395" on="0"/>
        <pt x="121" y="428" on="0"/>
        <pt x="123" y="445" on="1"/>
        <pt x="212" y="466" on="1"/>
        <pt x="218" y="494" on="1"/>
        <pt x="229" y="543" on="0"/>
        <pt x="276" y="624" on="0"/>
        <pt x="343" y="681" on="0"/>
        <pt x="427" y="712" on="0"/>
        <pt x="476" y="712" on="1"/>
        <pt x="501" y="712" on="0"/>
        <pt x="564" y="700" on="0"/>
        <pt x="598" y="683" on="1"/>
        <pt x="553" y="605" on="1"/>
        <pt x="525" y="615" on="0"/>
        <pt x="487" y="622" on="0"/>
        <pt x="470" y="622" on="1"/>
        <pt x="423" y="622" on="0"/>
        <pt x="348" y="558" on="0"/>
        <pt x="335" y="497" on="1"/>
        <pt x="241" y="75" on="1"/>
        <pt x="230" y="25" on="0"/>
        <pt x="185" y="-47" on="0"/>
        <pt x="122" y="-98" on="0"/>
        <pt x="43" y="-131" on="0"/>
      </contour>
      <contour>
        <pt x="456" y="466" on="1"/>
        <pt x="506" y="466" on="1"/>
        <pt x="495" y="378" on="1"/>
        <pt x="343" y="378" on="1"/>
        <pt x="351" y="394" on="0"/>
        <pt x="373" y="425" on="0"/>
        <pt x="402" y="450" on="0"/>
        <pt x="436" y="466" on="0"/>
      </contour>
    </TTGlyph>
    <TTGlyph name="four" xMin="50" yMin="0" xMax="583" yMax="701">
      <contour>
        <pt x="60" y="230" on="1"/>
        <pt x="422" y="701" on="1"/>
        <pt x="560" y="701" on="1"/>
        <pt x="502" y="236" on="1"/>
        <pt x="583" y="236" on="1"/>
        <pt x="573" y="147" on="1"/>
        <pt x="492" y="147" on="1"/>
        <pt x="474" y="0" on="1"/>
        <pt x="358" y="0" on="1"/>
        <pt x="422" y="529" on="1"/>
        <pt x="428" y="559" on="1"/>
        <pt x="410" y="532" on="1"/>
        <pt x="207" y="269" on="1"/>
        <pt x="203" y="264" on="0"/>
        <pt x="196" y="257" on="0"/>
        <pt x="192" y="252" on="1"/>
        <pt x="176" y="235" on="1"/>
        <pt x="181" y="236" on="0"/>
        <pt x="191" y="236" on="0"/>
        <pt x="196" y="237" on="1"/>
        <pt x="253" y="237" on="1"/>
        <pt x="274" y="237" on="0"/>
        <pt x="304" y="219" on="0"/>
        <pt x="325" y="192" on="0"/>
        <pt x="338" y="160" on="0"/>
        <pt x="341" y="147" on="1"/>
        <pt x="50" y="147" on="1"/>
      </contour>
    </TTGlyph>
    <TTGlyph name="g" xMin="45" yMin="-250" xMax="578" yMax="528">
      <contour>
        <pt x="76" y="246" on="1"/>
        <pt x="83" y="306" on="0"/>
        <pt x="134" y="410" on="0"/>
        <pt x="215" y="485" on="0"/>
        <pt x="322" y="528" on="0"/>
        <pt x="385" y="528" on="1"/>
        <pt x="406" y="528" on="0"/>
        <pt x="448" y="525" on="0"/>
        <pt x="494" y="518" on="0"/>
        <pt x="546" y="506" on="0"/>
        <pt x="578" y="497" on="1"/>
        <pt x="517" y="0" on="1"/>
        <pt x="509" y="-64" on="0"/>
        <pt x="459" y="-158" on="0"/>
        <pt x="383" y="-220" on="0"/>
        <pt x="286" y="-250" on="0"/>
        <pt x="231" y="-250" on="1"/>
        <pt x="192" y="-250" on="0"/>
        <pt x="97" y="-234" on="0"/>
        <pt x="45" y="-208" on="1"/>
        <pt x="86" y="-124" on="1"/>
        <pt x="131" y="-145" on="0"/>
        <pt x="202" y="-161" on="0"/>
        <pt x="234" y="-161" on="1"/>
        <pt x="263" y="-161" on="0"/>
        <pt x="318" y="-142" on="0"/>
        <pt x="362" y="-105" on="0"/>
        <pt x="391" y="-49" on="0"/>
        <pt x="396" y="-11" on="1"/>
        <pt x="450" y="428" on="1"/>
        <pt x="430" y="433" on="0"/>
        <pt x="393" y="437" on="0"/>
        <pt x="378" y="437" on="1"/>
        <pt x="307" y="437" on="0"/>
        <pt x="217" y="334" on="0"/>
        <pt x="206" y="246" on="1"/>
        <pt x="202" y="215" on="0"/>
        <pt x="205" y="155" on="0"/>
        <pt x="223" y="109" on="0"/>
        <pt x="259" y="84" on="0"/>
        <pt x="288" y="87" on="1"/>
        <pt x="315" y="90" on="0"/>
        <pt x="350" y="60" on="0"/>
        <pt x="365" y="34" on="1"/>
        <pt x="337" y="17" on="0"/>
        <pt x="280" y="-6" on="0"/>
        <pt x="255" y="-8" on="1"/>
        <pt x="208" y="-12" on="0"/>
        <pt x="136" y="28" on="0"/>
        <pt x="89" y="100" on="0"/>
        <pt x="70" y="195" on="0"/>
      </contour>
    </TTGlyph>
    <TTGlyph name="germandbls" xMin="76" yMin="-12" xMax="578" yMax="763">
      <contour>
        <pt x="252" y="25" on="1"/>
        <pt x="292" y="104" on="1"/>
        <pt x="323" y="90" on="0"/>
        <pt x="372" y="80" on="0"/>
        <pt x="390" y="80" on="1"/>
        <pt x="418" y="80" on="0"/>
        <pt x="460" y="114" on="0"/>
        <pt x="464" y="141" on="1"/>
        <pt x="467" y="164" on="0"/>
        <pt x="445" y="200" on="0"/>
        <pt x="410" y="231" on="0"/>
        <pt x="370" y="264" on="0"/>
        <pt x="336" y="306" on="0"/>
        <pt x="317" y="362" on="0"/>
        <pt x="322" y="401" on="1"/>
        <pt x="327" y="445" on="0"/>
        <pt x="397" y="523" on="0"/>
        <pt x="453" y="544" on="1"/>
        <pt x="461" y="564" on="0"/>
        <pt x="464" y="588" on="1"/>
        <pt x="468" y="626" on="0"/>
        <pt x="421" y="675" on="0"/>
        <pt x="382" y="675" on="1"/>
        <pt x="339" y="675" on="0"/>
        <pt x="267" y="615" on="0"/>
        <pt x="260" y="555" on="1"/>
        <pt x="192" y="0" on="1"/>
        <pt x="163" y="0" on="0"/>
        <pt x="105" y="-1" on="0"/>
        <pt x="76" y="-1" on="1"/>
        <pt x="143" y="544" on="1"/>
        <pt x="150" y="598" on="0"/>
        <pt x="193" y="679" on="0"/>
        <pt x="257" y="735" on="0"/>
        <pt x="339" y="763" on="0"/>
        <pt x="385" y="763" on="1"/>
        <pt x="431" y="763" on="0"/>
        <pt x="501" y="736" on="0"/>
        <pt x="546" y="690" on="0"/>
        <pt x="565" y="625" on="0"/>
        <pt x="561" y="588" on="1"/>
        <pt x="554" y="537" on="0"/>
        <pt x="510" y="479" on="1"/>
        <pt x="475" y="465" on="0"/>
        <pt x="435" y="428" on="0"/>
        <pt x="432" y="401" on="1"/>
        <pt x="429" y="377" on="0"/>
        <pt x="450" y="342" on="0"/>
        <pt x="485" y="311" on="0"/>
        <pt x="526" y="278" on="0"/>
        <pt x="559" y="235" on="0"/>
        <pt x="578" y="178" on="0"/>
        <pt x="573" y="137" on="1"/>
        <pt x="569" y="103" on="0"/>
        <pt x="535" y="48" on="0"/>
        <pt x="485" y="9" on="0"/>
        <pt x="424" y="-12" on="0"/>
        <pt x="392" y="-12" on="1"/>
        <pt x="362" y="-12" on="0"/>
        <pt x="297" y="1" on="0"/>
      </contour>
    </TTGlyph>
    <TTGlyph name="grave" xMin="109" yMin="594" xMax="266" yMax="727">
      <contour>
        <pt x="169" y="631" on="1"/>
        <pt x="109" y="727" on="1"/>
        <pt x="216" y="727" on="1"/>
        <pt x="266" y="602" on="1"/>
        <pt x="235" y="594" on="0"/>
        <pt x="185" y="607" on="0"/>
      </contour>
    </TTGlyph>
    <TTGlyph name="greater" xMin="48" yMin="0" xMax="603" yMax="552">
      <contour>
        <pt x="61" y="112" on="1"/>
        <pt x="160" y="151" on="0"/>
        <pt x="353" y="230" on="0"/>
        <pt x="451" y="270" on="1"/>
        <pt x="477" y="276" on="1"/>
        <pt x="452" y="283" on="1"/>
        <pt x="102" y="441" on="1"/>
        <pt x="115" y="552" on="1"/>
        <pt x="603" y="313" on="1"/>
        <pt x="594" y="239" on="1"/>
        <pt x="48" y="0" on="1"/>
      </contour>
    </TTGlyph>
    <TTGlyph name="guillemotleft" xMin="88" yMin="47" xMax="650" yMax="470">
      <contour>
        <pt x="554" y="47" on="1"/>
        <pt x="353" y="258" on="1"/>
        <pt x="606" y="470" on="1"/>
        <pt x="650" y="420" on="1"/>
        <pt x="498" y="258" on="1"/>
        <pt x="610" y="96" on="1"/>
      </contour>
      <contour>
        <pt x="289" y="47" on="1"/>
        <pt x="88" y="258" on="1"/>
        <pt x="341" y="470" on="1"/>
        <pt x="385" y="420" on="1"/>
        <pt x="233" y="258" on="1"/>
        <pt x="345" y="96" on="1"/>
      </contour>
    </TTGlyph>
    <TTGlyph name="guillemotright" xMin="64" yMin="47" xMax="625" yMax="470">
      <contour>
        <pt x="625" y="258" on="1"/>
        <pt x="373" y="47" on="1"/>
        <pt x="328" y="96" on="1"/>
        <pt x="481" y="258" on="1"/>
        <pt x="368" y="420" on="1"/>
        <pt x="425" y="470" on="1"/>
      </contour>
      <contour>
        <pt x="361" y="258" on="1"/>
        <pt x="108" y="47" on="1"/>
        <pt x="64" y="96" on="1"/>
        <pt x="216" y="258" on="1"/>
        <pt x="104" y="420" on="1"/>
        <pt x="160" y="470" on="1"/>
      </contour>
    </TTGlyph>
    <TTGlyph name="guilsinglleft" xMin="214" yMin="47" xMax="511" yMax="470">
      <contour>
        <pt x="414" y="47" on="1"/>
        <pt x="214" y="258" on="1"/>
        <pt x="466" y="470" on="1"/>
        <pt x="511" y="420" on="1"/>
        <pt x="358" y="258" on="1"/>
        <pt x="471" y="96" on="1"/>
      </contour>
    </TTGlyph>
    <TTGlyph name="guilsinglright" xMin="203" yMin="47" xMax="500" yMax="470">
      <contour>
        <pt x="500" y="258" on="1"/>
        <pt x="248" y="47" on="1"/>
        <pt x="203" y="96" on="1"/>
        <pt x="356" y="258" on="1"/>
        <pt x="243" y="420" on="1"/>
        <pt x="300" y="470" on="1"/>
      </contour>
    </TTGlyph>
    <TTGlyph name="h" xMin="77" yMin="0" xMax="573" yMax="758">
      <contour>
        <pt x="400" y="0" on="1"/>
        <pt x="445" y="370" on="1"/>
        <pt x="449" y="399" on="0"/>
        <pt x="430" y="436" on="0"/>
        <pt x="404" y="436" on="1"/>
        <pt x="390" y="436" on="0"/>
        <pt x="362" y="427" on="0"/>
        <pt x="347" y="429" on="1"/>
        <pt x="328" y="429" on="0"/>
        <pt x="303" y="460" on="0"/>
        <pt x="293" y="481" on="1"/>
        <pt x="347" y="510" on="0"/>
        <pt x="419" y="529" on="0"/>
        <pt x="447" y="529" on="1"/>
        <pt x="474" y="529" on="0"/>
        <pt x="522" y="511" on="0"/>
        <pt x="557" y="472" on="0"/>
        <pt x="573" y="411" on="0"/>
        <pt x="568" y="368" on="1"/>
        <pt x="523" y="0" on="1"/>
      </contour>
      <contour>
        <pt x="198" y="0" on="1"/>
        <pt x="77" y="0" on="1"/>
        <pt x="170" y="758" on="1"/>
        <pt x="290" y="751" on="1"/>
      </contour>
    </TTGlyph>
    <TTGlyph name="hyphen" xMin="77" yMin="262" xMax="389" yMax="347">
      <contour>
        <pt x="379" y="262" on="1"/>
        <pt x="77" y="262" on="1"/>
        <pt x="87" y="347" on="1"/>
        <pt x="389" y="347" on="1"/>
      </contour>
    </TTGlyph>
    <TTGlyph name="i" xMin="74" yMin="0" xMax="295" yMax="742">
      <contour>
        <pt x="143" y="667" on="1"/>
        <pt x="148" y="699" on="0"/>
        <pt x="195" y="742" on="0"/>
        <pt x="226" y="742" on="1"/>
        <pt x="258" y="742" on="0"/>
        <pt x="295" y="699" on="0"/>
        <pt x="290" y="667" on="1"/>
        <pt x="286" y="636" on="0"/>
        <pt x="239" y="593" on="0"/>
        <pt x="207" y="593" on="1"/>
        <pt x="176" y="593" on="0"/>
        <pt x="139" y="636" on="0"/>
      </contour>
      <contour>
        <pt x="197" y="0" on="1"/>
        <pt x="74" y="0" on="1"/>
        <pt x="137" y="517" on="1"/>
        <pt x="260" y="517" on="1"/>
      </contour>
    </TTGlyph>
    <TTGlyph name="iacute" xMin="56" yMin="0" xMax="362" yMax="740">
      <contour>
        <pt x="362" y="740" on="1"/>
        <pt x="267" y="640" on="1"/>
        <pt x="252" y="624" on="0"/>
        <pt x="216" y="605" on="0"/>
        <pt x="180" y="598" on="0"/>
        <pt x="146" y="599" on="0"/>
        <pt x="134" y="602" on="1"/>
        <pt x="239" y="740" on="1"/>
      </contour>
      <contour>
        <pt x="180" y="0" on="1"/>
        <pt x="56" y="0" on="1"/>
        <pt x="119" y="517" on="1"/>
        <pt x="243" y="517" on="1"/>
      </contour>
    </TTGlyph>
    <TTGlyph name="icircumflex" xMin="91" yMin="0" xMax="392" yMax="743">
      <contour>
        <pt x="216" y="743" on="1"/>
        <pt x="301" y="743" on="1"/>
        <pt x="392" y="601" on="1"/>
        <pt x="321" y="587" on="1"/>
        <pt x="248" y="664" on="1"/>
        <pt x="158" y="587" on="1"/>
        <pt x="91" y="601" on="1"/>
      </contour>
      <contour>
        <pt x="229" y="0" on="1"/>
        <pt x="105" y="0" on="1"/>
        <pt x="168" y="517" on="1"/>
        <pt x="292" y="517" on="1"/>
      </contour>
    </TTGlyph>
    <TTGlyph name="idieresis" xMin="98" yMin="0" xMax="417" yMax="729">
      <contour>
        <pt x="295" y="670" on="1"/>
        <pt x="298" y="695" on="0"/>
        <pt x="337" y="729" on="0"/>
        <pt x="361" y="729" on="1"/>
        <pt x="386" y="729" on="0"/>
        <pt x="417" y="695" on="0"/>
        <pt x="414" y="670" on="1"/>
        <pt x="411" y="645" on="0"/>
        <pt x="372" y="611" on="0"/>
        <pt x="347" y="611" on="1"/>
        <pt x="323" y="611" on="0"/>
        <pt x="292" y="645" on="0"/>
      </contour>
      <contour>
        <pt x="101" y="670" on="1"/>
        <pt x="104" y="695" on="0"/>
        <pt x="143" y="729" on="0"/>
        <pt x="167" y="729" on="1"/>
        <pt x="191" y="729" on="0"/>
        <pt x="223" y="695" on="0"/>
        <pt x="220" y="670" on="1"/>
        <pt x="217" y="645" on="0"/>
        <pt x="177" y="611" on="0"/>
        <pt x="153" y="611" on="1"/>
        <pt x="129" y="611" on="0"/>
        <pt x="98" y="645" on="0"/>
      </contour>
      <contour>
        <pt x="238" y="0" on="1"/>
        <pt x="115" y="0" on="1"/>
        <pt x="178" y="517" on="1"/>
        <pt x="301" y="517" on="1"/>
      </contour>
    </TTGlyph>
    <TTGlyph name="igrave" xMin="96" yMin="0" xMax="283" yMax="740">
      <contour>
        <pt x="151" y="642" on="1"/>
        <pt x="96" y="740" on="1"/>
        <pt x="215" y="740" on="1"/>
        <pt x="271" y="602" on="1"/>
        <pt x="258" y="599" on="0"/>
        <pt x="225" y="599" on="0"/>
        <pt x="192" y="608" on="0"/>
        <pt x="162" y="626" on="0"/>
      </contour>
      <contour>
        <pt x="220" y="0" on="1"/>
        <pt x="97" y="0" on="1"/>
        <pt x="160" y="517" on="1"/>
        <pt x="283" y="517" on="1"/>
      </contour>
    </TTGlyph>
    <TTGlyph name="j" xMin="-53" yMin="-249" xMax="312" yMax="743">
      <contour>
        <pt x="275" y="517" on="1"/>
        <pt x="217" y="45" on="1"/>
        <pt x="211" y="0" on="0"/>
        <pt x="186" y="-73" on="0"/>
        <pt x="135" y="-142" on="0"/>
        <pt x="53" y="-210" on="0"/>
        <pt x="-8" y="-249" on="1"/>
        <pt x="-53" y="-183" on="1"/>
        <pt x="-11" y="-150" on="0"/>
        <pt x="43" y="-98" on="0"/>
        <pt x="75" y="-47" on="0"/>
        <pt x="90" y="9" on="0"/>
        <pt x="95" y="45" on="1"/>
        <pt x="153" y="517" on="1"/>
      </contour>
      <contour>
        <pt x="159" y="667" on="1"/>
        <pt x="164" y="699" on="0"/>
        <pt x="210" y="743" on="0"/>
        <pt x="242" y="743" on="1"/>
        <pt x="274" y="743" on="0"/>
        <pt x="312" y="699" on="0"/>
        <pt x="307" y="667" on="1"/>
        <pt x="303" y="635" on="0"/>
        <pt x="255" y="593" on="0"/>
        <pt x="223" y="593" on="1"/>
        <pt x="191" y="593" on="0"/>
        <pt x="155" y="635" on="0"/>
      </contour>
    </TTGlyph>
    <TTGlyph name="k" xMin="77" yMin="0" xMax="611" yMax="758">
      <contour>
        <pt x="611" y="510" on="1"/>
        <pt x="431" y="337" on="1"/>
        <pt x="588" y="0" on="1"/>
        <pt x="452" y="0" on="1"/>
        <pt x="361" y="227" on="1"/>
        <pt x="350" y="262" on="1"/>
        <pt x="269" y="181" on="1"/>
        <pt x="264" y="225" on="0"/>
        <pt x="290" y="312" on="0"/>
        <pt x="319" y="348" on="1"/>
        <pt x="329" y="361" on="0"/>
        <pt x="350" y="384" on="0"/>
        <pt x="361" y="396" on="1"/>
        <pt x="478" y="517" on="1"/>
      </contour>
      <contour>
        <pt x="290" y="751" on="1"/>
        <pt x="198" y="0" on="1"/>
        <pt x="77" y="0" on="1"/>
        <pt x="170" y="758" on="1"/>
      </contour>
    </TTGlyph>
    <TTGlyph name="l" xMin="79" yMin="0" xMax="292" yMax="758">
      <contour>
        <pt x="292" y="751" on="1"/>
        <pt x="200" y="0" on="1"/>
        <pt x="79" y="0" on="1"/>
        <pt x="172" y="758" on="1"/>
      </contour>
    </TTGlyph>
    <TTGlyph name="less" xMin="66" yMin="0" xMax="621" yMax="552">
      <contour>
        <pt x="217" y="270" on="1"/>
        <pt x="567" y="112" on="1"/>
        <pt x="554" y="0" on="1"/>
        <pt x="66" y="239" on="1"/>
        <pt x="75" y="313" on="1"/>
        <pt x="621" y="552" on="1"/>
        <pt x="608" y="441" on="1"/>
        <pt x="509" y="401" on="0"/>
        <pt x="317" y="321" on="0"/>
        <pt x="218" y="283" on="1"/>
        <pt x="191" y="276" on="1"/>
      </contour>
    </TTGlyph>
    <TTGlyph name="logicalnot" xMin="87" yMin="156" xMax="595" yMax="449">
      <contour>
        <pt x="98" y="449" on="1"/>
        <pt x="595" y="449" on="1"/>
        <pt x="559" y="156" on="1"/>
        <pt x="464" y="156" on="1"/>
        <pt x="489" y="363" on="1"/>
        <pt x="87" y="363" on="1"/>
      </contour>
    </TTGlyph>
    <TTGlyph name="m" xMin="79" yMin="0" xMax="891" yMax="529">
      <contour>
        <pt x="719" y="0" on="1"/>
        <pt x="764" y="370" on="1"/>
        <pt x="768" y="399" on="0"/>
        <pt x="746" y="436" on="0"/>
        <pt x="717" y="436" on="1"/>
        <pt x="702" y="436" on="0"/>
        <pt x="668" y="427" on="0"/>
        <pt x="652" y="429" on="1"/>
        <pt x="632" y="429" on="0"/>
        <pt x="603" y="461" on="0"/>
        <pt x="594" y="482" on="1"/>
        <pt x="651" y="508" on="0"/>
        <pt x="729" y="529" on="0"/>
        <pt x="761" y="529" on="1"/>
        <pt x="788" y="529" on="0"/>
        <pt x="838" y="511" on="0"/>
        <pt x="874" y="472" on="0"/>
        <pt x="891" y="411" on="0"/>
        <pt x="886" y="368" on="1"/>
        <pt x="841" y="0" on="1"/>
      </contour>
      <contour>
        <pt x="399" y="0" on="1"/>
        <pt x="444" y="370" on="1"/>
        <pt x="448" y="399" on="0"/>
        <pt x="430" y="436" on="0"/>
        <pt x="403" y="436" on="1"/>
        <pt x="387" y="436" on="0"/>
        <pt x="357" y="428" on="0"/>
        <pt x="341" y="430" on="1"/>
        <pt x="321" y="430" on="0"/>
        <pt x="295" y="462" on="0"/>
        <pt x="285" y="483" on="1"/>
        <pt x="342" y="509" on="0"/>
        <pt x="416" y="529" on="0"/>
        <pt x="448" y="529" on="1"/>
        <pt x="475" y="529" on="0"/>
        <pt x="523" y="511" on="0"/>
        <pt x="557" y="472" on="0"/>
        <pt x="572" y="411" on="0"/>
        <pt x="567" y="368" on="1"/>
        <pt x="522" y="0" on="1"/>
      </contour>
      <contour>
        <pt x="126" y="512" on="1"/>
        <pt x="226" y="517" on="1"/>
        <pt x="247" y="490" on="0"/>
        <pt x="255" y="437" on="0"/>
        <pt x="251" y="407" on="1"/>
        <pt x="202" y="0" on="1"/>
        <pt x="79" y="0" on="1"/>
        <pt x="126" y="386" on="1"/>
        <pt x="129" y="414" on="0"/>
        <pt x="130" y="477" on="0"/>
      </contour>
    </TTGlyph>
    <TTGlyph name="macron" xMin="186" yMin="607" xMax="493" yMax="683">
      <contour>
        <pt x="484" y="607" on="1"/>
        <pt x="186" y="607" on="1"/>
        <pt x="195" y="683" on="1"/>
        <pt x="493" y="683" on="1"/>
      </contour>
    </TTGlyph>
    <TTGlyph name="mu" xMin="37" yMin="-211" xMax="567" yMax="517">
      <contour>
        <pt x="411" y="76" on="1"/>
        <pt x="398" y="55" on="1"/>
        <pt x="375" y="26" on="0"/>
        <pt x="310" y="-10" on="0"/>
        <pt x="263" y="-10" on="1"/>
        <pt x="242" y="-10" on="0"/>
        <pt x="200" y="4" on="0"/>
        <pt x="186" y="18" on="1"/>
        <pt x="174" y="37" on="1"/>
        <pt x="173" y="30" on="0"/>
        <pt x="173" y="17" on="0"/>
        <pt x="172" y="10" on="1"/>
        <pt x="145" y="-211" on="1"/>
        <pt x="37" y="-211" on="1"/>
        <pt x="126" y="517" on="1"/>
        <pt x="240" y="517" on="1"/>
        <pt x="202" y="210" on="1"/>
        <pt x="195" y="150" on="0"/>
        <pt x="237" y="79" on="0"/>
        <pt x="283" y="79" on="1"/>
        <pt x="306" y="79" on="0"/>
        <pt x="349" y="98" on="0"/>
        <pt x="384" y="130" on="0"/>
        <pt x="407" y="174" on="0"/>
        <pt x="410" y="199" on="1"/>
        <pt x="449" y="517" on="1"/>
        <pt x="564" y="517" on="1"/>
        <pt x="520" y="155" on="1"/>
        <pt x="515" y="113" on="0"/>
        <pt x="534" y="79" on="0"/>
        <pt x="565" y="81" on="1"/>
        <pt x="567" y="4" on="1"/>
        <pt x="550" y="-2" on="0"/>
        <pt x="512" y="-8" on="0"/>
        <pt x="501" y="-8" on="1"/>
        <pt x="473" y="-8" on="0"/>
        <pt x="422" y="21" on="0"/>
        <pt x="413" y="56" on="1"/>
      </contour>
    </TTGlyph>
    <TTGlyph name="multiply" xMin="61" yMin="70" xMax="572" yMax="540">
      <contour>
        <pt x="116" y="70" on="1"/>
        <pt x="61" y="133" on="1"/>
        <pt x="253" y="306" on="1"/>
        <pt x="103" y="477" on="1"/>
        <pt x="175" y="540" on="1"/>
        <pt x="326" y="370" on="1"/>
        <pt x="517" y="540" on="1"/>
        <pt x="572" y="477" on="1"/>
        <pt x="382" y="306" on="1"/>
        <pt x="532" y="133" on="1"/>
        <pt x="461" y="70" on="1"/>
        <pt x="310" y="241" on="1"/>
      </contour>
    </TTGlyph>
    <TTGlyph name="n" xMin="65" yMin="0" xMax="563" yMax="529">
      <contour>
        <pt x="390" y="0" on="1"/>
        <pt x="435" y="370" on="1"/>
        <pt x="439" y="399" on="0"/>
        <pt x="419" y="436" on="0"/>
        <pt x="391" y="436" on="1"/>
        <pt x="375" y="436" on="0"/>
        <pt x="344" y="427" on="0"/>
        <pt x="327" y="429" on="1"/>
        <pt x="307" y="429" on="0"/>
        <pt x="283" y="461" on="0"/>
        <pt x="272" y="480" on="1"/>
        <pt x="326" y="509" on="0"/>
        <pt x="402" y="529" on="0"/>
        <pt x="434" y="529" on="1"/>
        <pt x="461" y="529" on="0"/>
        <pt x="511" y="511" on="0"/>
        <pt x="546" y="472" on="0"/>
        <pt x="563" y="411" on="0"/>
        <pt x="558" y="368" on="1"/>
        <pt x="513" y="0" on="1"/>
      </contour>
      <contour>
        <pt x="111" y="512" on="1"/>
        <pt x="212" y="517" on="1"/>
        <pt x="233" y="490" on="0"/>
        <pt x="241" y="437" on="0"/>
        <pt x="237" y="407" on="1"/>
        <pt x="188" y="0" on="1"/>
        <pt x="65" y="0" on="1"/>
        <pt x="112" y="386" on="1"/>
        <pt x="118" y="444" on="0"/>
      </contour>
    </TTGlyph>
    <TTGlyph name="nine" xMin="111" yMin="-10" xMax="635" yMax="714">
      <contour>
        <pt x="239" y="81" on="1"/>
        <pt x="293" y="81" on="0"/>
        <pt x="382" y="125" on="0"/>
        <pt x="449" y="203" on="0"/>
        <pt x="491" y="309" on="0"/>
        <pt x="499" y="371" on="1"/>
        <pt x="504" y="411" on="0"/>
        <pt x="502" y="500" on="0"/>
        <pt x="478" y="575" on="0"/>
        <pt x="427" y="623" on="0"/>
        <pt x="384" y="623" on="1"/>
        <pt x="359" y="623" on="0"/>
        <pt x="313" y="601" on="0"/>
        <pt x="277" y="562" on="0"/>
        <pt x="253" y="509" on="0"/>
        <pt x="249" y="478" on="1"/>
        <pt x="245" y="446" on="0"/>
        <pt x="254" y="400" on="0"/>
        <pt x="275" y="368" on="0"/>
        <pt x="305" y="353" on="0"/>
        <pt x="323" y="353" on="1"/>
        <pt x="328" y="353" on="0"/>
        <pt x="346" y="355" on="0"/>
        <pt x="356" y="357" on="1"/>
        <pt x="374" y="360" on="0"/>
        <pt x="403" y="352" on="0"/>
        <pt x="426" y="336" on="0"/>
        <pt x="443" y="314" on="0"/>
        <pt x="449" y="304" on="1"/>
        <pt x="399" y="280" on="0"/>
        <pt x="331" y="263" on="0"/>
        <pt x="303" y="263" on="1"/>
        <pt x="259" y="263" on="0"/>
        <pt x="187" y="291" on="0"/>
        <pt x="137" y="345" on="0"/>
        <pt x="114" y="425" on="0"/>
        <pt x="120" y="478" on="1"/>
        <pt x="125" y="521" on="0"/>
        <pt x="169" y="606" on="0"/>
        <pt x="241" y="673" on="0"/>
        <pt x="336" y="714" on="0"/>
        <pt x="392" y="714" on="1"/>
        <pt x="467" y="714" on="0"/>
        <pt x="566" y="657" on="0"/>
        <pt x="620" y="562" on="0"/>
        <pt x="635" y="439" on="0"/>
        <pt x="627" y="373" on="1"/>
        <pt x="618" y="299" on="0"/>
        <pt x="552" y="161" on="0"/>
        <pt x="448" y="54" on="0"/>
        <pt x="309" y="-10" on="0"/>
        <pt x="228" y="-10" on="1"/>
        <pt x="203" y="-10" on="0"/>
        <pt x="142" y="1" on="0"/>
        <pt x="111" y="14" on="1"/>
        <pt x="149" y="97" on="1"/>
        <pt x="176" y="88" on="0"/>
        <pt x="220" y="81" on="0"/>
      </contour>
    </TTGlyph>
    <TTGlyph name="ntilde" xMin="71" yMin="0" xMax="569" yMax="738">
      <contour>
        <pt x="282" y="618" on="1"/>
        <pt x="216" y="624" on="1"/>
        <pt x="220" y="651" on="0"/>
        <pt x="241" y="694" on="0"/>
        <pt x="271" y="723" on="0"/>
        <pt x="307" y="738" on="0"/>
        <pt x="325" y="738" on="1"/>
        <pt x="347" y="738" on="0"/>
        <pt x="377" y="721" on="0"/>
        <pt x="401" y="701" on="0"/>
        <pt x="423" y="684" on="0"/>
        <pt x="436" y="684" on="1"/>
        <pt x="449" y="684" on="0"/>
        <pt x="469" y="711" on="0"/>
        <pt x="474" y="734" on="1"/>
        <pt x="538" y="728" on="1"/>
        <pt x="533" y="697" on="0"/>
        <pt x="510" y="653" on="0"/>
        <pt x="481" y="626" on="0"/>
        <pt x="449" y="614" on="0"/>
        <pt x="434" y="614" on="1"/>
        <pt x="410" y="614" on="0"/>
        <pt x="379" y="631" on="0"/>
        <pt x="356" y="651" on="0"/>
        <pt x="337" y="668" on="0"/>
        <pt x="324" y="668" on="1"/>
        <pt x="313" y="668" on="0"/>
        <pt x="288" y="646" on="0"/>
      </contour>
      <contour>
        <pt x="396" y="0" on="1"/>
        <pt x="441" y="370" on="1"/>
        <pt x="445" y="399" on="0"/>
        <pt x="425" y="436" on="0"/>
        <pt x="397" y="436" on="1"/>
        <pt x="381" y="436" on="0"/>
        <pt x="350" y="427" on="0"/>
        <pt x="333" y="429" on="1"/>
        <pt x="313" y="429" on="0"/>
        <pt x="289" y="461" on="0"/>
        <pt x="278" y="480" on="1"/>
        <pt x="333" y="509" on="0"/>
        <pt x="408" y="529" on="0"/>
        <pt x="440" y="529" on="1"/>
        <pt x="467" y="529" on="0"/>
        <pt x="517" y="511" on="0"/>
        <pt x="552" y="472" on="0"/>
        <pt x="569" y="411" on="0"/>
        <pt x="564" y="368" on="1"/>
        <pt x="519" y="0" on="1"/>
      </contour>
      <contour>
        <pt x="118" y="512" on="1"/>
        <pt x="218" y="517" on="1"/>
        <pt x="239" y="490" on="0"/>
        <pt x="248" y="437" on="0"/>
        <pt x="244" y="407" on="1"/>
        <pt x="195" y="0" on="1"/>
        <pt x="71" y="0" on="1"/>
        <pt x="118" y="386" on="1"/>
        <pt x="121" y="414" on="0"/>
        <pt x="122" y="477" on="0"/>
      </contour>
    </TTGlyph>
    <TTGlyph name="numbersign" xMin="90" yMin="0" xMax="839" yMax="702">
      <contour>
        <pt x="459" y="0" on="1"/>
        <pt x="469" y="34" on="0"/>
        <pt x="490" y="101" on="0"/>
        <pt x="501" y="135" on="1"/>
        <pt x="511" y="159" on="1"/>
        <pt x="332" y="158" on="1"/>
        <pt x="340" y="174" on="0"/>
        <pt x="360" y="203" on="0"/>
        <pt x="390" y="225" on="0"/>
        <pt x="431" y="237" on="0"/>
        <pt x="459" y="237" on="1"/>
        <pt x="531" y="237" on="1"/>
        <pt x="594" y="439" on="1"/>
        <pt x="607" y="468" on="1"/>
        <pt x="396" y="467" on="1"/>
        <pt x="250" y="0" on="1"/>
        <pt x="152" y="0" on="1"/>
        <pt x="163" y="34" on="0"/>
        <pt x="184" y="103" on="0"/>
        <pt x="195" y="137" on="1"/>
        <pt x="205" y="159" on="1"/>
        <pt x="90" y="158" on="1"/>
        <pt x="99" y="236" on="1"/>
        <pt x="224" y="236" on="1"/>
        <pt x="290" y="442" on="1"/>
        <pt x="300" y="468" on="1"/>
        <pt x="187" y="467" on="1"/>
        <pt x="197" y="546" on="1"/>
        <pt x="323" y="546" on="1"/>
        <pt x="371" y="702" on="1"/>
        <pt x="469" y="702" on="1"/>
        <pt x="420" y="546" on="1"/>
        <pt x="629" y="546" on="1"/>
        <pt x="678" y="702" on="1"/>
        <pt x="776" y="702" on="1"/>
        <pt x="727" y="546" on="1"/>
        <pt x="839" y="546" on="1"/>
        <pt x="829" y="467" on="1"/>
        <pt x="702" y="467" on="1"/>
        <pt x="630" y="237" on="1"/>
        <pt x="741" y="237" on="1"/>
        <pt x="731" y="158" on="1"/>
        <pt x="607" y="158" on="1"/>
        <pt x="557" y="0" on="1"/>
      </contour>
    </TTGlyph>
    <TTGlyph name="o" xMin="59" yMin="-12" xMax="590" yMax="529">
      <contour>
        <pt x="197" y="259" on="1"/>
        <pt x="192" y="219" on="0"/>
        <pt x="202" y="153" on="0"/>
        <pt x="229" y="105" on="0"/>
        <pt x="273" y="79" on="0"/>
        <pt x="303" y="79" on="1"/>
        <pt x="335" y="79" on="0"/>
        <pt x="386" y="107" on="0"/>
        <pt x="424" y="156" on="0"/>
        <pt x="448" y="222" on="0"/>
        <pt x="453" y="259" on="1"/>
        <pt x="463" y="340" on="0"/>
        <pt x="405" y="438" on="0"/>
        <pt x="347" y="438" on="1"/>
        <pt x="289" y="438" on="0"/>
        <pt x="208" y="340" on="0"/>
      </contour>
      <contour>
        <pt x="67" y="259" on="1"/>
        <pt x="76" y="329" on="0"/>
        <pt x="136" y="431" on="0"/>
        <pt x="219" y="497" on="0"/>
        <pt x="314" y="529" on="0"/>
        <pt x="358" y="529" on="1"/>
        <pt x="417" y="529" on="0"/>
        <pt x="507" y="488" on="0"/>
        <pt x="566" y="416" on="0"/>
        <pt x="590" y="317" on="0"/>
        <pt x="583" y="259" on="1"/>
        <pt x="575" y="194" on="0"/>
        <pt x="519" y="94" on="0"/>
        <pt x="438" y="24" on="0"/>
        <pt x="341" y="-12" on="0"/>
        <pt x="292" y="-12" on="1"/>
        <pt x="240" y="-12" on="0"/>
        <pt x="151" y="24" on="0"/>
        <pt x="89" y="93" on="0"/>
        <pt x="59" y="194" on="0"/>
      </contour>
    </TTGlyph>
    <TTGlyph name="oacute" xMin="46" yMin="-12" xMax="578" yMax="740">
      <contour>
        <pt x="525" y="740" on="1"/>
        <pt x="430" y="640" on="1"/>
        <pt x="415" y="624" on="0"/>
        <pt x="379" y="605" on="0"/>
        <pt x="343" y="598" on="0"/>
        <pt x="309" y="599" on="0"/>
        <pt x="297" y="602" on="1"/>
        <pt x="402" y="740" on="1"/>
      </contour>
      <contour>
        <pt x="440" y="259" on="1"/>
        <pt x="450" y="340" on="0"/>
        <pt x="392" y="438" on="0"/>
        <pt x="334" y="438" on="1"/>
        <pt x="276" y="438" on="0"/>
        <pt x="195" y="340" on="0"/>
        <pt x="184" y="259" on="1"/>
        <pt x="174" y="177" on="0"/>
        <pt x="231" y="79" on="0"/>
        <pt x="290" y="79" on="1"/>
        <pt x="348" y="79" on="0"/>
        <pt x="430" y="177" on="0"/>
      </contour>
      <contour>
        <pt x="570" y="259" on="1"/>
        <pt x="562" y="198" on="0"/>
        <pt x="509" y="98" on="0"/>
        <pt x="430" y="27" on="0"/>
        <pt x="332" y="-12" on="0"/>
        <pt x="279" y="-12" on="1"/>
        <pt x="225" y="-12" on="0"/>
        <pt x="135" y="25" on="0"/>
        <pt x="74" y="95" on="0"/>
        <pt x="46" y="195" on="0"/>
        <pt x="54" y="259" on="1"/>
        <pt x="61" y="319" on="0"/>
        <pt x="114" y="419" on="0"/>
        <pt x="193" y="490" on="0"/>
        <pt x="292" y="529" on="0"/>
        <pt x="345" y="529" on="1"/>
        <pt x="399" y="529" on="0"/>
        <pt x="488" y="492" on="0"/>
        <pt x="550" y="422" on="0"/>
        <pt x="578" y="322" on="0"/>
      </contour>
    </TTGlyph>
    <TTGlyph name="ocircumflex" xMin="46" yMin="-12" xMax="578" yMax="743">
      <contour>
        <pt x="329" y="743" on="1"/>
        <pt x="415" y="743" on="1"/>
        <pt x="505" y="601" on="1"/>
        <pt x="434" y="587" on="1"/>
        <pt x="361" y="664" on="1"/>
        <pt x="272" y="587" on="1"/>
        <pt x="205" y="601" on="1"/>
      </contour>
      <contour>
        <pt x="440" y="259" on="1"/>
        <pt x="450" y="340" on="0"/>
        <pt x="392" y="438" on="0"/>
        <pt x="334" y="438" on="1"/>
        <pt x="276" y="438" on="0"/>
        <pt x="195" y="340" on="0"/>
        <pt x="184" y="259" on="1"/>
        <pt x="174" y="177" on="0"/>
        <pt x="231" y="79" on="0"/>
        <pt x="290" y="79" on="1"/>
        <pt x="348" y="79" on="0"/>
        <pt x="430" y="177" on="0"/>
      </contour>
      <contour>
        <pt x="570" y="259" on="1"/>
        <pt x="562" y="198" on="0"/>
        <pt x="509" y="98" on="0"/>
        <pt x="430" y="27" on="0"/>
        <pt x="332" y="-12" on="0"/>
        <pt x="279" y="-12" on="1"/>
        <pt x="225" y="-12" on="0"/>
        <pt x="135" y="25" on="0"/>
        <pt x="74" y="95" on="0"/>
        <pt x="46" y="195" on="0"/>
        <pt x="54" y="259" on="1"/>
        <pt x="61" y="319" on="0"/>
        <pt x="114" y="419" on="0"/>
        <pt x="193" y="490" on="0"/>
        <pt x="292" y="529" on="0"/>
        <pt x="345" y="529" on="1"/>
        <pt x="399" y="529" on="0"/>
        <pt x="488" y="492" on="0"/>
        <pt x="550" y="422" on="0"/>
        <pt x="578" y="322" on="0"/>
      </contour>
    </TTGlyph>
    <TTGlyph name="odieresis" xMin="46" yMin="-12" xMax="577" yMax="729">
      <contour>
        <pt x="401" y="670" on="1"/>
        <pt x="404" y="695" on="0"/>
        <pt x="443" y="729" on="0"/>
        <pt x="467" y="729" on="1"/>
        <pt x="491" y="729" on="0"/>
        <pt x="522" y="695" on="0"/>
        <pt x="519" y="670" on="1"/>
        <pt x="516" y="645" on="0"/>
        <pt x="477" y="611" on="0"/>
        <pt x="453" y="611" on="1"/>
        <pt x="429" y="611" on="0"/>
        <pt x="398" y="645" on="0"/>
      </contour>
      <contour>
        <pt x="206" y="670" on="1"/>
        <pt x="209" y="695" on="0"/>
        <pt x="248" y="729" on="0"/>
        <pt x="272" y="729" on="1"/>
        <pt x="297" y="729" on="0"/>
        <pt x="328" y="695" on="0"/>
        <pt x="325" y="670" on="1"/>
        <pt x="322" y="645" on="0"/>
        <pt x="283" y="611" on="0"/>
        <pt x="258" y="611" on="1"/>
        <pt x="234" y="611" on="0"/>
        <pt x="203" y="645" on="0"/>
      </contour>
      <contour>
        <pt x="439" y="259" on="1"/>
        <pt x="444" y="299" on="0"/>
        <pt x="434" y="366" on="0"/>
        <pt x="407" y="412" on="0"/>
        <pt x="362" y="438" on="0"/>
        <pt x="333" y="438" on="1"/>
        <pt x="275" y="438" on="0"/>
        <pt x="194" y="340" on="0"/>
        <pt x="183" y="259" on="1"/>
        <pt x="173" y="177" on="0"/>
        <pt x="231" y="79" on="0"/>
        <pt x="289" y="79" on="1"/>
        <pt x="348" y="79" on="0"/>
        <pt x="429" y="177" on="0"/>
      </contour>
      <contour>
        <pt x="569" y="259" on="1"/>
        <pt x="561" y="198" on="0"/>
        <pt x="509" y="98" on="0"/>
        <pt x="430" y="27" on="0"/>
        <pt x="331" y="-12" on="0"/>
        <pt x="278" y="-12" on="1"/>
        <pt x="224" y="-12" on="0"/>
        <pt x="135" y="25" on="0"/>
        <pt x="74" y="95" on="0"/>
        <pt x="46" y="195" on="0"/>
        <pt x="54" y="259" on="1"/>
        <pt x="61" y="319" on="0"/>
        <pt x="114" y="419" on="0"/>
        <pt x="192" y="490" on="0"/>
        <pt x="291" y="529" on="0"/>
        <pt x="344" y="529" on="1"/>
        <pt x="398" y="529" on="0"/>
        <pt x="488" y="492" on="0"/>
        <pt x="549" y="422" on="0"/>
        <pt x="577" y="322" on="0"/>
      </contour>
    </TTGlyph>
</ttFont>
